<svg width="32" height="20" viewBox="0 0 32 20" fill="none" xmlns="http://www.w3.org/2000/svg">
<g clip-path="url(#clip0_11_818)">
<path d="M32 0H0V20H32V0Z" fill="white"/>
<path d="M31.9991 2.22266H11.8508V4.44476H31.9991V2.22266Z" fill="#0038A8"/>
<path d="M31.9991 6.66602H11.8508V8.88812H31.9991V6.66602Z" fill="#0038A8"/>
<path d="M32 11.1116H0V13.3337H32V11.1116Z" fill="#0038A8"/>
<path d="M32 15.5566H0V17.7787H32V15.5566Z" fill="#0038A8"/>
<path d="M5.65408 6.46484L6.04661 7.04274C4.43808 8.19432 5.42261 8.87537 4.28021 9.24379C4.99061 8.55958 4.17355 8.50695 4.76661 7.07537" fill="#FCD116"/>
<path fill-rule="evenodd" clip-rule="evenodd" d="M5.65696 6.44922L6.06116 7.04428L6.05284 7.05024C5.65154 7.33754 5.41248 7.59512 5.26158 7.82536C5.11073 8.05555 5.04764 8.25891 4.99888 8.43865C4.99351 8.45845 4.9883 8.478 4.98317 8.49728C4.94184 8.65253 4.90503 8.79079 4.8207 8.91135C4.72547 9.04751 4.57047 9.16023 4.28349 9.25278L4.23993 9.26682L4.27272 9.23524C4.44962 9.06486 4.53027 8.93489 4.56215 8.81397C4.59409 8.69285 4.57754 8.57951 4.55682 8.44035L4.55657 8.43865C4.53594 8.30011 4.51171 8.13737 4.52964 7.92004C4.54765 7.70185 4.60809 7.42908 4.7567 7.07037L4.76074 7.06062L4.78048 7.06859L4.77645 7.07833C4.62852 7.43541 4.5687 7.70606 4.55091 7.92175C4.53317 8.13668 4.55711 8.29747 4.57772 8.43588L4.57793 8.43729C4.59854 8.57577 4.616 8.69335 4.5828 8.81927C4.55164 8.93744 4.47627 9.06181 4.32023 9.21828C4.5766 9.12952 4.7162 9.0237 4.80315 8.89939C4.88521 8.78207 4.92104 8.6476 4.96256 8.4918C4.96768 8.47259 4.97288 8.45307 4.97827 8.43321C5.02724 8.25268 5.09102 8.04684 5.24367 7.81393C5.39522 7.58268 5.63403 7.32526 6.032 7.03916L5.63924 6.46094L5.65696 6.44922Z" fill="black"/>
<path fill-rule="evenodd" clip-rule="evenodd" d="M4.78458 8.31185C4.84817 7.88887 4.93133 7.33567 5.36724 6.62695L5.38548 6.63788C4.9518 7.34295 4.86915 7.89275 4.80566 8.31505C4.80421 8.32475 4.80276 8.33439 4.80131 8.34396C4.76923 8.55679 4.74 8.73798 4.66873 8.88922C4.59713 9.04116 4.48334 9.1625 4.28336 9.25665L4.27417 9.23765C4.46992 9.14549 4.57999 9.02761 4.64939 8.88034C4.71912 8.73237 4.74803 8.55435 4.78021 8.34087C4.78166 8.33126 4.78311 8.32159 4.78458 8.31185Z" fill="black"/>
<path d="M5.92606 5.32202H6.70793L5.92606 9.56728L5.14313 5.32202H5.92499V9.56728" fill="#FCD116"/>
<path fill-rule="evenodd" clip-rule="evenodd" d="M5.13104 5.3125H6.72141L5.92677 9.62712L5.91592 9.56829H5.91503V9.56345L5.13104 5.3125ZM5.93636 9.4573L6.69585 5.33355H5.93636V9.4573ZM5.91503 9.44588L5.15661 5.33355H5.91503V9.44588Z" fill="black"/>
<path d="M4.91693 5.94188L4.7804 6.62399C2.8156 6.3082 3.0236 7.48188 1.9516 6.93978C2.94467 6.95136 2.40387 6.33662 3.8492 5.74609" fill="#FCD116"/>
<path fill-rule="evenodd" clip-rule="evenodd" d="M3.862 5.75383L3.85214 5.75785C3.49165 5.90514 3.25544 6.05376 3.08836 6.19343C2.92129 6.33308 2.82297 6.46408 2.73823 6.57702L2.7375 6.578C2.65324 6.69032 2.58146 6.78598 2.4681 6.85228C2.36132 6.91473 2.21873 6.95059 1.99588 6.95243C2.24107 7.06999 2.41579 7.09327 2.56652 7.0664C2.70861 7.04108 2.83036 6.97117 2.97144 6.89016C2.98888 6.88015 3.00663 6.86996 3.02474 6.85966C3.1889 6.76637 3.38174 6.66557 3.6569 6.60808C3.9301 6.551 4.28384 6.53672 4.77079 6.61401L4.9074 5.93155L4.92833 5.93563L4.78773 6.63805L4.77755 6.63641C4.28736 6.55763 3.93332 6.57184 3.66132 6.62867C3.38939 6.68549 3.19882 6.78502 3.03539 6.87791C3.01733 6.88817 2.99958 6.89837 2.98206 6.90843C2.84151 6.98918 2.71634 7.06109 2.57031 7.08712C2.40531 7.11653 2.21489 7.08736 1.9456 6.95118L1.90521 6.93076L1.95059 6.93129C2.19786 6.93417 2.34804 6.89803 2.45722 6.83417C2.5666 6.7702 2.63607 6.67781 2.72109 6.5645C2.80595 6.45139 2.90551 6.31868 3.07457 6.17737C3.24362 6.03605 3.48181 5.88638 3.84398 5.7384L3.85384 5.73438L3.862 5.75383Z" fill="black"/>
<path fill-rule="evenodd" clip-rule="evenodd" d="M2.97654 6.63721C3.32527 6.3823 3.78154 6.04878 4.5982 5.85156L4.60327 5.87201C3.7908 6.06822 3.33732 6.39969 2.98915 6.65419C2.98147 6.6598 2.97385 6.66537 2.96628 6.67091C2.79082 6.79906 2.64017 6.90688 2.4816 6.96425C2.32229 7.0219 2.1554 7.02854 1.94757 6.95592L1.95469 6.93607C2.15806 7.00714 2.31984 7.00036 2.47426 6.94449C2.62942 6.88834 2.77758 6.78254 2.95359 6.65398C2.96119 6.64843 2.96883 6.64284 2.97654 6.63721Z" fill="black"/>
<path d="M5.92543 5.32171L6.47903 5.86802L2.87903 8.32381L5.37183 4.77539L5.92543 5.32171L2.87903 8.32381L5.92543 5.32171Z" fill="#FCD116"/>
<path fill-rule="evenodd" clip-rule="evenodd" d="M5.37218 4.75977L6.49746 5.87024L2.83868 8.36612L5.37218 4.75977ZM5.91218 5.32243L5.37516 4.79248L2.95701 8.23463L5.91218 5.32243ZM2.97211 8.24951L5.92726 5.33732L6.46428 5.86727L2.97211 8.24951Z" fill="black"/>
<path d="M4.7676 5.05306L4.182 5.44463C3.01507 3.85306 2.32493 4.82463 1.9516 3.69727C2.64493 4.39832 2.69827 3.592 4.14893 4.17727" fill="#FCD116"/>
<path fill-rule="evenodd" clip-rule="evenodd" d="M1.92743 3.65625L1.95944 3.68861C2.13209 3.86319 2.26379 3.94277 2.38632 3.97423C2.50906 4.00575 2.62391 3.98942 2.76492 3.96897L2.76665 3.96872C2.90703 3.94837 3.07194 3.92446 3.29217 3.94215C3.51327 3.95992 3.78967 4.01957 4.15317 4.16622L4.16305 4.17021L4.15497 4.18969L4.1451 4.18571C3.78327 4.03973 3.509 3.9807 3.29044 3.96314C3.07264 3.94563 2.9097 3.96926 2.76945 3.98959L2.76802 3.9898C2.6277 4.01015 2.50855 4.02737 2.38095 3.99461C2.26121 3.96386 2.13518 3.88948 1.97662 3.73549C2.06656 3.98849 2.1738 4.12626 2.29977 4.21212C2.41848 4.29305 2.55452 4.32853 2.71212 4.36964C2.7318 4.37478 2.75181 4.38 2.77218 4.38541C2.95511 4.434 3.1637 4.49734 3.39971 4.64857C3.63403 4.79871 3.89487 5.03515 4.18477 5.4289L4.77065 5.03714L4.78262 5.05457L4.17962 5.45777L4.17356 5.44951C3.88243 5.05243 3.62141 4.81572 3.38809 4.66623C3.15484 4.51676 2.94876 4.45412 2.76663 4.40574C2.74634 4.40035 2.72631 4.39513 2.70656 4.38998C2.54951 4.34905 2.40963 4.3126 2.28764 4.22945C2.14967 4.1354 2.03545 3.98244 1.94166 3.69924L1.92743 3.65625Z" fill="black"/>
<path fill-rule="evenodd" clip-rule="evenodd" d="M2.89892 4.1951C3.32755 4.25785 3.88813 4.33992 4.60629 4.7701L4.59522 4.7881C3.88074 4.36012 3.32362 4.27856 2.89569 4.21591C2.88585 4.21447 2.87609 4.21304 2.86639 4.21161C2.65072 4.17995 2.46711 4.15111 2.31386 4.08078C2.15989 4.01012 2.03694 3.89782 1.94153 3.70047L1.96078 3.69141C2.05417 3.88458 2.17362 3.9932 2.32285 4.06169C2.4728 4.1305 2.65319 4.15903 2.86953 4.19079C2.87925 4.19222 2.88905 4.19365 2.89892 4.1951Z" fill="black"/>
<path d="M5.92592 5.32212V6.0937L1.62299 5.32212L5.92485 4.55054V5.32212H1.62299" fill="#FCD116"/>
<path fill-rule="evenodd" clip-rule="evenodd" d="M5.9367 4.53711V5.3213H5.93777V6.10549L1.56451 5.3213L5.9367 4.53711ZM5.91537 5.31077V4.56233L1.74251 5.31077H5.91537ZM1.74254 5.33183H5.91644V6.08027L1.74254 5.33183Z" fill="black"/>
<path d="M5.29702 4.32475L4.60582 4.19002C4.92582 2.25107 3.73755 2.45633 4.28582 1.39844C4.26769 2.37844 4.89169 1.84581 5.49009 3.27212" fill="#FCD116"/>
<path fill-rule="evenodd" clip-rule="evenodd" d="M4.29591 1.35364L4.29507 1.39915C4.29055 1.64318 4.32606 1.79144 4.38998 1.89927C4.454 2.00728 4.54715 2.07596 4.6617 2.15998L4.66285 2.16083C4.77694 2.24451 4.91091 2.34278 5.05365 2.50916C5.19684 2.67608 5.34858 2.91121 5.49853 3.26862L5.50261 3.27834L5.4829 3.28639L5.47882 3.27667C5.32956 2.92092 5.1789 2.68775 5.03736 2.52277C4.89621 2.35823 4.76386 2.26115 4.64987 2.17754L4.64897 2.17688C4.53499 2.09327 4.43814 2.02221 4.37156 1.9099C4.30911 1.80453 4.27384 1.66394 4.27336 1.44445C4.15475 1.68606 4.13136 1.8583 4.1586 2.0069C4.1843 2.14707 4.25507 2.26717 4.33706 2.40632C4.34724 2.4236 4.35759 2.44117 4.36805 2.4591C4.46252 2.6211 4.56457 2.8114 4.62274 3.08295C4.6805 3.35255 4.6949 3.70163 4.61658 4.18218L5.30814 4.31699L5.304 4.33764L4.59222 4.19889L4.59388 4.18884C4.67371 3.70511 4.65937 3.35573 4.60187 3.0873C4.54438 2.81895 4.44362 2.63089 4.34956 2.4696C4.33913 2.45172 4.32877 2.43415 4.31855 2.41681C4.23681 2.27818 4.16402 2.1547 4.13761 2.01065C4.10776 1.84783 4.13718 1.65991 4.27491 1.39416L4.29591 1.35364Z" fill="black"/>
<path fill-rule="evenodd" clip-rule="evenodd" d="M4.59211 2.41039C4.85025 2.75448 5.18803 3.20471 5.38779 4.01029L5.36707 4.0153C5.16833 3.21384 4.83263 2.76637 4.5749 2.42283C4.56911 2.41512 4.56336 2.40745 4.55766 2.39984C4.42786 2.22669 4.3187 2.07803 4.26071 1.92154C4.20245 1.76432 4.19592 1.59962 4.26978 1.39453L4.28988 1.40158C4.21761 1.60228 4.22428 1.76192 4.28075 1.91431C4.33749 2.06743 4.44461 2.21363 4.57481 2.38732C4.58053 2.39496 4.5863 2.40265 4.59211 2.41039Z" fill="black"/>
<path d="M5.92543 5.32272L5.37183 5.86904L2.87903 2.31641L6.47796 4.77641L5.92436 5.32272L2.87903 2.31641" fill="#FCD116"/>
<path fill-rule="evenodd" clip-rule="evenodd" d="M2.83868 2.27344L6.49639 4.77361L5.93429 5.32832L5.93482 5.32885L5.37219 5.88408L2.83868 2.27344ZM5.92622 5.30651L6.46324 4.77656L2.97208 2.39023L5.92622 5.30651ZM2.9571 2.40521L5.91167 5.32193L5.37518 5.85136L2.9571 2.40521Z" fill="black"/>
<path d="M6.19496 4.17738L5.80243 3.59949C7.41523 2.44791 6.4307 1.76686 7.57416 1.39844C6.86376 2.08265 7.68083 2.13528 7.08776 3.56686" fill="#FCD116"/>
<path fill-rule="evenodd" clip-rule="evenodd" d="M7.61286 1.37488L7.58009 1.40644C7.40319 1.57682 7.32254 1.70679 7.29066 1.82771C7.25873 1.94884 7.27528 2.06218 7.29599 2.20133L7.29625 2.20304C7.31687 2.34157 7.3411 2.50431 7.32317 2.72164C7.30517 2.93983 7.24472 3.2126 7.09611 3.57132L7.09208 3.58106L7.07233 3.57309L7.07637 3.56335C7.22429 3.20628 7.28411 2.93562 7.30191 2.71993C7.31964 2.505 7.2957 2.34421 7.2751 2.2058L7.27489 2.20439C7.25427 2.06591 7.23682 1.94833 7.27002 1.82241C7.30117 1.70424 7.37655 1.57986 7.53261 1.42338C7.27595 1.51215 7.13614 1.61798 7.04898 1.7423C6.96679 1.85954 6.93074 1.9939 6.88898 2.14956C6.8838 2.16887 6.87853 2.18851 6.87307 2.20849C6.82376 2.38902 6.75955 2.59486 6.60629 2.82777C6.45412 3.05901 6.21452 3.31643 5.81549 3.60253L6.20824 4.18074L6.19052 4.19246L5.78632 3.59739L5.79465 3.59144C6.19702 3.30413 6.43688 3.04655 6.58839 2.8163C6.73986 2.58612 6.80338 2.38275 6.85247 2.20301C6.85791 2.1831 6.86318 2.16344 6.86838 2.14406C6.90995 1.98893 6.94698 1.85079 7.03143 1.73032C7.12689 1.59417 7.28208 1.48145 7.56933 1.38891L7.61286 1.37488Z" fill="black"/>
<path fill-rule="evenodd" clip-rule="evenodd" d="M7.0646 2.33682C7.00046 2.75936 6.91664 3.31151 6.48396 4.01835L6.4657 4.00747C6.89617 3.30423 6.97947 2.75546 7.04351 2.33359C7.04516 2.32276 7.04679 2.31201 7.04841 2.30135C7.08083 2.0885 7.11056 1.90732 7.18232 1.75608C7.25441 1.60415 7.36867 1.48282 7.56891 1.38867L7.57808 1.40768C7.38206 1.49984 7.27152 1.61773 7.20164 1.76501C7.13143 1.91298 7.10202 2.091 7.06951 2.30448C7.06788 2.31517 7.06624 2.32595 7.0646 2.33682Z" fill="black"/>
<path d="M5.92606 5.32249H5.14313L5.92499 1.07722L6.70686 5.32249H5.92606V1.07617V5.32249Z" fill="#FCD116"/>
<path fill-rule="evenodd" clip-rule="evenodd" d="M5.92569 1.01758L5.93634 1.07539H5.93742V1.08129L6.72034 5.33223H5.13104L5.92569 1.01758ZM5.91609 1.18743L5.1566 5.31118H5.91609V1.18743ZM5.93742 5.31118V1.19902L6.69478 5.31118H5.93742Z" fill="black"/>
<path d="M6.93347 4.69972L7.07 4.01762C9.03481 4.33341 8.82681 3.15972 9.89881 3.70183C8.90787 3.68393 9.44867 4.29972 8.00014 4.89025" fill="#FCD116"/>
<path fill-rule="evenodd" clip-rule="evenodd" d="M7.07892 4.0304L6.94232 4.71285L6.92139 4.70877L7.06199 4.00635L7.07217 4.00799C7.56235 4.08677 7.91639 4.07256 8.18839 4.01573C8.46033 3.95891 8.65089 3.85938 8.81433 3.76649C8.83239 3.75623 8.85014 3.74603 8.86765 3.73597C9.00821 3.65522 9.13337 3.58331 9.27941 3.55728C9.4444 3.52787 9.63483 3.55704 9.90412 3.69322L9.9451 3.71395L9.89906 3.71311C9.65231 3.70866 9.50254 3.7437 9.39363 3.80677C9.28453 3.86995 9.21517 3.96186 9.13008 4.07492L9.12995 4.07509C9.04505 4.1879 8.94529 4.32046 8.77589 4.46172C8.60642 4.60303 8.36763 4.75277 8.00466 4.90074L7.9948 4.90476L7.98665 4.8853L7.99651 4.88128C8.35781 4.73399 8.59462 4.58531 8.76212 4.44564C8.9296 4.30598 9.02815 4.17505 9.11296 4.06237L9.1136 4.06152C9.19796 3.94941 9.26966 3.85415 9.38284 3.78861C9.48928 3.72697 9.63132 3.69217 9.85323 3.69169C9.60835 3.57437 9.4338 3.55116 9.2832 3.578C9.1411 3.60333 9.01936 3.67323 8.87828 3.75424C8.86083 3.76426 8.84309 3.77444 8.82498 3.78474C8.66081 3.87804 8.46798 3.97883 8.19281 4.03633C7.91961 4.09341 7.56588 4.10768 7.07892 4.0304Z" fill="black"/>
<path fill-rule="evenodd" clip-rule="evenodd" d="M8.87475 4.00646C8.52661 4.26081 8.0714 4.59339 7.25507 4.79053L7.25 4.77008C8.06215 4.57395 8.51457 4.24341 8.86214 3.98948C8.86994 3.98378 8.87769 3.97812 8.88539 3.9725C9.06059 3.8446 9.2111 3.73699 9.36987 3.67961C9.52937 3.62197 9.69678 3.61513 9.90566 3.68721L9.89861 3.70708C9.69416 3.63653 9.53183 3.6435 9.3772 3.69938C9.22184 3.75553 9.07381 3.86113 8.89808 3.98942C8.89035 3.99506 8.88258 4.00074 8.87475 4.00646Z" fill="black"/>
<path d="M5.92659 5.32272L5.37299 4.77641L8.96872 2.31641L6.47912 5.86799L5.92552 5.32167L8.96872 2.31641" fill="#FCD116"/>
<path fill-rule="evenodd" clip-rule="evenodd" d="M9.01135 2.27344L6.48108 5.88304L5.35687 4.77363L9.01135 2.27344ZM5.94106 5.32036L6.47808 5.85031L8.89312 2.40511L5.94106 5.32036ZM8.87788 2.39037L5.92598 5.30547L5.39002 4.77657L8.87788 2.39037Z" fill="black"/>
<path d="M7.08466 5.58659L7.67026 5.19922C8.83719 6.7908 9.52732 5.81922 9.90066 6.94764C9.20732 6.24659 9.15399 7.0529 7.70332 6.46764" fill="#FCD116"/>
<path fill-rule="evenodd" clip-rule="evenodd" d="M7.67357 5.18359L7.6796 5.19182C7.97073 5.5889 8.23175 5.8256 8.46507 5.97512C8.69832 6.1246 8.9044 6.18728 9.08653 6.23572C9.10672 6.24109 9.12663 6.24629 9.14628 6.25142C9.30347 6.29245 9.44345 6.32898 9.56553 6.41233C9.70349 6.50653 9.81771 6.65968 9.9115 6.94315L9.92571 6.98611L9.89372 6.95377C9.72107 6.77919 9.58937 6.69961 9.46684 6.66815C9.3441 6.63663 9.22925 6.65296 9.08824 6.67341L9.08651 6.67366C8.94613 6.69401 8.78121 6.71792 8.56099 6.70023C8.33989 6.68246 8.06349 6.62281 7.69999 6.47616L7.69011 6.47217L7.69819 6.45269L7.70806 6.45667C8.06989 6.60265 8.34416 6.66168 8.56272 6.67924C8.78052 6.69674 8.94346 6.67312 9.08371 6.65279L9.08514 6.65258C9.22546 6.63223 9.34461 6.61501 9.47221 6.64777C9.59196 6.67852 9.718 6.75291 9.87656 6.90691C9.78661 6.65363 9.67937 6.51566 9.55339 6.42964C9.43459 6.34853 9.29844 6.31296 9.1407 6.27175C9.12113 6.26664 9.10123 6.26144 9.08098 6.25605C8.89804 6.20739 8.68946 6.14402 8.45345 5.99277C8.21912 5.84261 7.95827 5.60616 7.66836 5.21238L7.08243 5.59997L7.07056 5.58248L7.67357 5.18359Z" fill="black"/>
<path fill-rule="evenodd" clip-rule="evenodd" d="M8.95021 6.4465C8.52229 6.3832 7.96328 6.30051 7.24799 5.87348L7.25903 5.85547C7.97066 6.28031 8.52624 6.36249 8.95348 6.42569C8.96441 6.42731 8.97526 6.42892 8.98603 6.43051C9.20157 6.46251 9.38511 6.49184 9.53833 6.56266C9.69226 6.6338 9.8152 6.74655 9.9106 6.94416L9.89134 6.95321C9.79795 6.75977 9.67849 6.65068 9.52928 6.58172C9.37937 6.51244 9.19904 6.48342 8.98285 6.45133C8.97206 6.44973 8.96118 6.44812 8.95021 6.4465Z" fill="black"/>
<path d="M5.92743 5.32341V4.55078L10.2293 5.32236L5.92743 6.09499V5.32341H10.2293H5.92743Z" fill="#FCD116"/>
<path fill-rule="evenodd" clip-rule="evenodd" d="M5.91534 4.53687L10.2875 5.32105L10.2279 5.33176V5.33264H10.223L5.91534 6.1063V4.53687ZM10.1154 5.31158L5.93668 4.56209V5.31158H10.1154ZM5.93668 5.33264H10.1038L5.93668 6.08107V5.33264Z" fill="black"/>
<path d="M6.55527 6.31641L7.24647 6.45114C6.92647 8.39009 8.11474 8.18483 7.56647 9.24272C7.57821 8.26272 6.95527 8.79641 6.35687 7.37009" fill="#FCD116"/>
<path fill-rule="evenodd" clip-rule="evenodd" d="M6.54665 6.30469L7.25843 6.44344L7.25678 6.45348C7.17694 6.93722 7.19128 7.2866 7.24878 7.55502C7.30628 7.82338 7.40704 8.01144 7.50109 8.17272C7.51152 8.19061 7.52188 8.20818 7.5321 8.22552C7.61384 8.36415 7.68664 8.48763 7.71304 8.63168C7.7429 8.7945 7.71347 8.98242 7.57575 9.24816L7.55505 9.2881L7.55558 9.24325C7.5585 8.99923 7.52188 8.85102 7.45717 8.74328C7.39235 8.63534 7.29873 8.56678 7.1839 8.48288C7.06929 8.39914 6.93481 8.30089 6.79161 8.13406C6.64841 7.96723 6.49674 7.73217 6.34679 7.37477L6.34271 7.36504L6.36242 7.35699L6.3665 7.36671C6.51576 7.72246 6.66635 7.95556 6.80789 8.12045C6.9494 8.28531 7.08215 8.38234 7.1966 8.46596L7.19758 8.46669C7.3114 8.54984 7.40834 8.62068 7.47552 8.73254C7.5388 8.83791 7.57514 8.9786 7.577 9.19847C7.69586 8.95655 7.71932 8.78415 7.69205 8.63543C7.66635 8.49525 7.59559 8.37516 7.51359 8.23601C7.50342 8.21873 7.49306 8.20116 7.4826 8.18323C7.38813 8.02122 7.28609 7.83092 7.22791 7.55938C7.17015 7.28978 7.15575 6.9407 7.23407 6.46015L6.54252 6.32534L6.54665 6.30469Z" fill="black"/>
<path fill-rule="evenodd" clip-rule="evenodd" d="M7.2582 8.23252C7.00046 7.88896 6.66345 7.43974 6.46368 6.63415L6.48441 6.62915C6.68315 7.43061 7.01809 7.87708 7.27541 8.22008C7.28119 8.22778 7.28692 8.23543 7.29262 8.24302C7.42222 8.41592 7.53127 8.56444 7.58941 8.72112C7.64782 8.87853 7.65475 9.04374 7.58171 9.24986L7.56158 9.24291C7.63307 9.04115 7.626 8.88096 7.56938 8.72836C7.51249 8.57504 7.40547 8.42897 7.27547 8.25554C7.26976 8.24792 7.264 8.24025 7.2582 8.23252Z" fill="black"/>
<path d="M5.92659 5.32171L6.48019 4.77539L8.96872 8.32381L5.37299 5.86697L5.92659 5.32065L8.96872 8.32381" fill="#FCD116"/>
<path fill-rule="evenodd" clip-rule="evenodd" d="M6.48215 4.75977L9.01133 8.36615L5.35687 5.86918L5.92705 5.3065L5.92759 5.30703L6.48215 4.75977ZM5.92705 5.33628L5.39003 5.86623L8.87807 8.24949L5.92705 5.33628ZM8.89309 8.23454L5.94267 5.32192L6.47916 4.79249L8.89309 8.23454Z" fill="black"/>
<path d="M5.92554 6.73768C6.7173 6.73768 7.35914 6.10428 7.35914 5.32294C7.35914 4.5416 6.7173 3.9082 5.92554 3.9082C5.13379 3.9082 4.49194 4.5416 4.49194 5.32294C4.49194 6.10428 5.13379 6.73768 5.92554 6.73768Z" fill="#FCD116"/>
<path fill-rule="evenodd" clip-rule="evenodd" d="M5.92614 3.91754C5.14028 3.91754 4.50321 4.54622 4.50321 5.32175C4.50321 6.09727 5.14028 6.72596 5.92614 6.72596C6.712 6.72596 7.34907 6.09727 7.34907 5.32175C7.34907 4.54622 6.712 3.91754 5.92614 3.91754ZM4.48187 5.32175C4.48187 4.5346 5.12849 3.89648 5.92614 3.89648C6.72379 3.89648 7.37041 4.5346 7.37041 5.32175C7.37041 6.1089 6.72379 6.74701 5.92614 6.74701C5.12849 6.74701 4.48187 6.1089 4.48187 5.32175Z" fill="black"/>
<path d="M6.98166 4.7558C6.88993 4.86106 6.83873 4.67896 6.51233 4.67896C6.18593 4.67896 6.13473 4.87159 6.08566 4.83369C6.0366 4.7958 6.3598 4.56317 6.46326 4.55054C6.65516 4.56518 6.83757 4.6388 6.98486 4.76106L6.98166 4.7558ZM6.60726 4.87685C6.62485 4.89604 6.63705 4.91944 6.64265 4.94472C6.64825 4.96999 6.64705 4.99628 6.63918 5.02096C6.63131 5.04564 6.61704 5.06786 6.59778 5.08542C6.57852 5.10298 6.55495 5.11527 6.5294 5.12106C6.43766 5.12106 6.26913 4.96633 6.347 4.86422" fill="black"/>
<path d="M6.1734 4.98859C6.1862 4.83386 6.31633 4.80859 6.5254 4.80859C6.73447 4.80859 6.8262 4.96228 6.903 5.00123C6.81127 5.00123 6.7334 4.8728 6.5254 4.8728C6.3174 4.8728 6.31207 4.8728 6.1734 5.00123V4.98859ZM6.21287 5.02649C6.26513 4.94965 6.3302 5.10333 6.47313 5.10333C6.58671 5.1062 6.69757 5.06886 6.78567 4.99807C6.8774 4.93386 6.65553 5.1528 6.51153 5.1528C6.36753 5.1528 6.17233 5.07596 6.2118 5.02438" fill="black"/>
<path d="M6.65533 5.10359C6.68144 5.09519 6.7042 5.07886 6.72033 5.05692C6.73647 5.03499 6.74515 5.00858 6.74515 4.98148C6.74515 4.95438 6.73647 4.92797 6.72033 4.90604C6.7042 4.8841 6.68144 4.86777 6.65533 4.85938C6.68093 4.88464 6.78546 5.01411 6.65533 5.10359ZM5.92573 5.87516C6.0036 5.87516 6.0324 5.8499 6.13906 5.8499C6.24573 5.8499 6.49106 5.99095 6.634 5.94043C6.33426 6.05622 6.4516 5.97937 5.93 5.97937H5.86493L5.92573 5.87516ZM6.68626 6.05622C6.64475 5.98217 6.59693 5.91174 6.54333 5.84569C6.65 5.92253 6.67346 5.96148 6.68626 6.05622ZM5.93 6.18464C6.2564 6.18464 6.20413 6.12043 6.634 5.94043C6.32146 5.97938 6.2564 6.08148 5.93 6.08148H5.86493L5.93 6.18464ZM5.93 5.70885C6.02173 5.70885 6.04733 5.64464 6.15186 5.64464C6.26259 5.64527 6.37089 5.67664 6.4644 5.73516C6.45281 5.70528 6.43354 5.67888 6.40848 5.65858C6.38342 5.63827 6.35343 5.62476 6.32146 5.61938C6.2148 5.60674 6.2564 5.43938 6.13906 5.40885C6.13906 5.46043 6.17853 5.4478 6.19133 5.52464C6.20413 5.60148 6.074 5.58885 6.0484 5.52464C6.074 5.6299 5.99613 5.6299 5.93106 5.6299" fill="black"/>
<path d="M4.87014 4.7558C4.96188 4.86106 5.01308 4.67896 5.33948 4.67896C5.66588 4.67896 5.71708 4.87159 5.76614 4.83369C5.81521 4.7958 5.49201 4.56317 5.38854 4.55054C5.19665 4.56518 5.01423 4.6388 4.86694 4.76106L4.87014 4.7558ZM5.24454 4.87685C5.22696 4.89604 5.21476 4.91944 5.20916 4.94472C5.20356 4.96999 5.20475 4.99628 5.21262 5.02096C5.22049 5.04564 5.23476 5.06786 5.25402 5.08542C5.27328 5.10298 5.29686 5.11527 5.32241 5.12106C5.41414 5.12106 5.58268 4.96633 5.50481 4.86422" fill="black"/>
<path d="M5.67717 4.98859C5.66437 4.83386 5.53424 4.80859 5.32517 4.80859C5.1161 4.80859 5.02544 4.96333 4.94757 5.00123C5.0393 5.00123 5.11717 4.8728 5.32517 4.8728C5.53317 4.8728 5.5385 4.8728 5.67717 5.00123V4.98859ZM5.6377 5.02649C5.58544 4.94965 5.52037 5.10333 5.37744 5.10333C5.26387 5.1062 5.153 5.06886 5.0649 4.99807C4.97317 4.93386 5.19504 5.1528 5.33904 5.1528C5.48304 5.1528 5.67824 5.07596 5.63877 5.02438" fill="black"/>
<path d="M5.19468 5.10359C5.16857 5.09519 5.14582 5.07886 5.12968 5.05692C5.11355 5.03499 5.10486 5.00858 5.10486 4.98148C5.10486 4.95438 5.11355 4.92797 5.12968 4.90604C5.14582 4.8841 5.16857 4.86777 5.19468 4.85938C5.16908 4.88464 5.06455 5.01411 5.19468 5.10359ZM5.92428 5.87516C5.84642 5.87516 5.81762 5.8499 5.71095 5.8499C5.60428 5.8499 5.35895 5.99095 5.21602 5.94043C5.51575 6.05622 5.39842 5.97937 5.92002 5.97937H5.98508L5.92428 5.87516ZM5.16375 6.05622C5.20529 5.98219 5.25311 5.91176 5.30668 5.84569C5.20002 5.92253 5.17655 5.96148 5.16375 6.05622ZM5.92002 6.18464C5.59362 6.18464 5.64588 6.12043 5.21602 5.94043C5.52855 5.97938 5.59362 6.08148 5.92002 6.08148H5.98508L5.92002 6.18464ZM5.92002 5.70885C5.82828 5.70885 5.80268 5.64464 5.69815 5.64464C5.58743 5.64527 5.47912 5.67664 5.38562 5.73516C5.39711 5.70522 5.41635 5.67877 5.44143 5.65845C5.46651 5.63813 5.49655 5.62466 5.52855 5.61938C5.63522 5.60674 5.59362 5.43938 5.71095 5.40885C5.71095 5.46043 5.67148 5.4478 5.65868 5.52464C5.64588 5.60148 5.77602 5.58885 5.80162 5.52464C5.77602 5.6299 5.85388 5.6299 5.91895 5.6299" fill="black"/>
<path d="M5.92677 6.29895C5.8617 6.29895 5.6921 6.3379 5.92677 6.3379C6.16144 6.3379 5.99184 6.29895 5.92677 6.29895Z" fill="black"/>
</g>
<defs>
<clipPath id="clip0_11_818">
<rect width="32" height="20" fill="white"/>
</clipPath>
</defs>
</svg>
