<svg width="32" height="20" viewBox="0 0 32 20" fill="none" xmlns="http://www.w3.org/2000/svg">
<g clip-path="url(#clip0_11_710)">
<path d="M32 0H0V20H32V0Z" fill="white"/>
<path d="M16 10H0V20H16V10Z" fill="#005293"/>
<path d="M32 0H16V10H32V0Z" fill="#D21034"/>
<path d="M5.46371 3.92312L7.03171 5.04733L6.43225 6.86628L8.00025 5.74207L9.56718 6.86628L8.96878 5.04733L10.5368 3.92312H8.59865L8.00025 2.10522L7.40185 3.92312H5.46371Z" fill="#005293"/>
<path d="M21.4637 14.4518L23.0317 15.5749L22.4333 17.3928L24.0002 16.2697L25.5672 17.3928L24.9688 15.5749L26.5368 14.4518H24.5986L24.0002 12.6328L23.4018 14.4518H21.4637Z" fill="#D21034"/>
</g>
<defs>
<clipPath id="clip0_11_710">
<rect width="32" height="20" fill="white"/>
</clipPath>
</defs>
</svg>
