<svg width="32" height="20" viewBox="0 0 32 20" fill="none" xmlns="http://www.w3.org/2000/svg">
<g clip-path="url(#clip0_11_679)">
<path d="M32 0H0V20H32V0Z" fill="#00247D"/>
<path d="M7.08267 5.71484L1.29067 8.56748H0L5.792 5.71484H7.08267Z" fill="white"/>
<path d="M5.792 2.86316H4.50133L0 0.642105V0L5.792 2.86316Z" fill="white"/>
<path d="M17.3649 0L11.5836 2.86316H10.2823L16.0743 0H17.3649Z" fill="white"/>
<path d="M17.366 7.92537V8.56748L11.5847 5.71484H12.8753L17.366 7.92537Z" fill="white"/>
<path d="M7.81867 5.14648V8.56754H7.232V5.95701L1.94133 8.56754H1.29067L7.08267 5.71491H5.792L0 8.56754V7.60964L3.85067 5.71491H0V5.14648H7.81867Z" fill="white"/>
<path d="M7.08267 5.71484L1.29067 8.56748H0L5.792 5.71484H7.08267Z" fill="#CC142B"/>
<path d="M5.792 2.86316H4.50133L0 0.642105V0L5.792 2.86316Z" fill="#CC142B"/>
<path d="M17.3649 0L11.5836 2.86316H10.2823L16.0743 0H17.3649Z" fill="#CC142B"/>
<path d="M17.366 7.92537V8.56748L11.5847 5.71484H12.8753L17.366 7.92537Z" fill="#CC142B"/>
<path d="M17.3645 5.71491H13.5245L17.3645 7.60964V7.92543L12.8738 5.71491H11.5831L17.3645 8.56754H15.4231L10.1325 5.95701V8.56754H9.55645V5.14648H17.3645V5.71491Z" fill="white"/>
<path d="M17.3645 0.957895L13.5138 2.86316H17.3645V3.43158H9.55645V0H10.1325V2.61053L15.4231 0H16.0738L10.2818 2.86316H11.5831L17.3645 0V0.957895Z" fill="white"/>
<path d="M7.81867 0V3.43158H0V2.86316H3.85067L0 0.957895V0.642105L4.50133 2.86316H5.792L0 0H1.94133L7.232 2.61053V0H7.81867Z" fill="white"/>
<path d="M9.55733 3.43158V0H7.81867V3.43158H0V5.14737H7.81867V8.57895H9.55733V5.14737H17.376V3.43158H9.55733Z" fill="#CC142B"/>
<path d="M26.9657 6.0631L27.6271 6.53678L27.3711 7.31573L28.0431 6.83152L28.7044 7.31573L28.4484 6.53678L29.1204 6.0631H28.2991L28.0431 5.29468L27.7871 6.0631H26.9657Z" fill="white"/>
<path d="M27.371 6.19905L27.787 6.49379L27.627 6.96748L28.043 6.67274L28.4483 6.96748L28.299 6.49379L28.7043 6.19905H28.203L28.043 5.71484L27.883 6.19905H27.371Z" fill="#CC142B"/>
<path d="M23.6573 3.30532L24.4039 3.84217L24.1266 4.70532L24.8733 4.16848L25.6199 4.70532L25.3319 3.84217L26.0786 3.30532H25.1613L24.8733 2.43164L24.5853 3.30532H23.6573Z" fill="white"/>
<path d="M24.0746 3.43158L24.5653 3.78947L24.3733 4.3579L24.8746 4.01053L25.3653 4.3579L25.1733 3.78947L25.6746 3.43158H25.0559L24.8746 2.86316L24.6826 3.43158H24.0746Z" fill="#CC142B"/>
<path d="M19.9677 6.96838L20.7144 7.50522L20.4264 8.37891L21.1731 7.84207L21.9197 8.37891L21.6424 7.50522L22.3891 6.96838H21.4611L21.1731 6.10522L20.8851 6.96838H19.9677Z" fill="white"/>
<path d="M20.373 7.10434L20.8637 7.46223L20.6823 8.03065L21.173 7.67276L21.6637 8.03065L21.4823 7.46223L21.973 7.10434H21.365L21.173 6.52539L20.981 7.10434H20.373Z" fill="#CC142B"/>
<path d="M23.5302 12.736L24.3622 13.3255L24.0422 14.2939L24.8742 13.6939L25.7062 14.2939L25.3862 13.3255L26.2182 12.736H25.1836L24.8742 11.7676L24.5542 12.736H23.5302Z" fill="white"/>
<path d="M23.9355 12.8624L24.5115 13.2729L24.2982 13.9466L24.8742 13.5361L25.4502 13.9466L25.2262 13.2729L25.8022 12.8624H25.0875L24.8742 12.1992L24.6502 12.8624H23.9355Z" fill="#CC142B"/>
</g>
<defs>
<clipPath id="clip0_11_679">
<rect width="32" height="20" fill="white"/>
</clipPath>
</defs>
</svg>
