<svg width="32" height="20" viewBox="0 0 32 20" fill="none" xmlns="http://www.w3.org/2000/svg">
<g clip-path="url(#clip0_11_1159)">
<path d="M32 0H0V20H32V0Z" fill="#C1272D"/>
<path d="M15.9991 3.87439L14.5449 8.3041H9.82872L13.641 11.0417L12.1868 15.4753C13.1686 14.7635 14.9493 13.4897 15.9991 12.7376L19.8172 15.4733L18.3591 11.0436L22.1714 8.30218H17.459L15.9991 3.87439ZM15.9991 6.90746L16.4637 8.3041H15.5403L15.9991 6.90746ZM14.2358 9.24222L13.952 10.1113L12.7467 9.24605L14.2358 9.24222ZM15.2331 9.24222H16.7767L17.253 10.6887L15.9991 11.5827L14.7529 10.6868L15.2331 9.24222ZM17.7604 9.24222H19.2476L18.0461 10.1113L17.7604 9.24222ZM14.4438 11.6269L15.1923 12.1602L13.987 13.0254L14.4438 11.6269ZM17.5543 11.6269L18.0092 13.0254L16.8058 12.1621L17.5543 11.6269Z" fill="#006233"/>
</g>
<defs>
<clipPath id="clip0_11_1159">
<rect width="32" height="20" fill="white"/>
</clipPath>
</defs>
</svg>
