<svg width="32" height="20" viewBox="0 0 32 20" fill="none" xmlns="http://www.w3.org/2000/svg">
<g clip-path="url(#clip0_11_1281)">
<path d="M32 0H0V20H32V0Z" fill="#003893"/>
<path d="M32 10H0V15H32V10Z" fill="white"/>
<path d="M32 11.666H0V13.3323H32V11.666Z" fill="#CE1126"/>
<path d="M11.1048 7.62624L11.6584 8.02308L11.4462 8.66413L11.9998 8.26834L12.5534 8.66413L12.3411 8.02308L12.8947 7.62624H12.211L11.9998 6.98413L11.7886 7.62624H11.1048Z" fill="#FFCC00"/>
<path d="M8.34271 8.52882L8.89631 8.92567L8.68511 9.56777L9.23765 9.17093L9.79125 9.56777L9.58005 8.92567L10.1336 8.52882H9.44885L9.23765 7.88672L9.02645 8.52882H8.34271Z" fill="#FFCC00"/>
<path d="M13.8468 8.50043L14.3993 8.89727L14.1881 9.53937L14.7417 9.14253L15.2942 9.53937L15.083 8.89727L15.6366 8.50043H14.9529L14.7417 7.85938L14.5305 8.50043H13.8468Z" fill="#FFCC00"/>
<path d="M15.5595 10.8463L16.1131 11.2432L15.9019 11.8842L16.4544 11.4884L17.008 11.8842L16.7968 11.2432L17.3504 10.8463H16.6667L16.4544 10.2042L16.2432 10.8463H15.5595Z" fill="#FFCC00"/>
<path d="M15.5595 13.6947L16.1131 14.0916L15.9019 14.7326L16.4544 14.3358L17.008 14.7326L16.7968 14.0916L17.3504 13.6947H16.6667L16.4544 13.0526L16.2432 13.6947H15.5595Z" fill="#FFCC00"/>
<path d="M13.8649 16.0474L14.4185 16.4442L14.2073 17.0853L14.7599 16.6895L15.3135 17.0853L15.1023 16.4442L15.6548 16.0474H14.9711L14.7599 15.4053L14.5487 16.0474H13.8649Z" fill="#FFCC00"/>
<path d="M11.1068 16.9146L11.6604 17.3114L11.4492 17.9535L12.0018 17.5567L12.5554 17.9535L12.3442 17.3114L12.8978 16.9146H12.213L12.0018 16.2725L11.7906 16.9146H11.1068Z" fill="#FFCC00"/>
<path d="M8.30243 16.0122L8.85603 16.408L8.64483 17.0501L9.19736 16.6533L9.75096 17.0501L9.53976 16.408L10.0923 16.0122H9.40856L9.19736 15.3701L8.98616 16.0122H8.30243Z" fill="#FFCC00"/>
<path d="M6.64313 13.68L7.19673 14.0768L6.98553 14.7189L7.53806 14.3221L8.09166 14.7189L7.88046 14.0768L8.43406 13.68H7.75033L7.53806 13.0389L7.32686 13.68H6.64313Z" fill="#FFCC00"/>
<path d="M6.65118 10.8188L7.20478 11.2156L6.99358 11.8577L7.54612 11.4609L8.09972 11.8577L7.88852 11.2156L8.44212 10.8188H7.75732L7.54612 10.1777L7.33492 10.8188H6.65118Z" fill="#FFCC00"/>
</g>
<defs>
<clipPath id="clip0_11_1281">
<rect width="32" height="20" fill="white"/>
</clipPath>
</defs>
</svg>
