<svg width="32" height="20" viewBox="0 0 32 20" fill="none" xmlns="http://www.w3.org/2000/svg">
<g clip-path="url(#clip0_11_810)">
<path d="M32 0H0V6.4H32V0Z" fill="#0099B5"/>
<path d="M32 6.40039H0V13.6004H32V6.40039Z" fill="#CE1126"/>
<path d="M32 6.80078H0V13.2008H32V6.80078Z" fill="white"/>
<path d="M32 13.5999H0V19.9999H32V13.5999Z" fill="#1EB53A"/>
<path d="M4.48049 5.26408C5.54087 5.26408 6.40049 4.41578 6.40049 3.36935C6.40049 2.32291 5.54087 1.47461 4.48049 1.47461C3.4201 1.47461 2.56049 2.32291 2.56049 3.36935C2.56049 4.41578 3.4201 5.26408 4.48049 5.26408Z" fill="white"/>
<path d="M5.11958 5.26408C6.17997 5.26408 7.03958 4.41578 7.03958 3.36935C7.03958 2.32291 6.17997 1.47461 5.11958 1.47461C4.0592 1.47461 3.19958 2.32291 3.19958 3.36935C3.19958 4.41578 4.0592 5.26408 5.11958 5.26408Z" fill="#0099B5"/>
<path d="M8.33063 1.73671L8.55569 1.89777L8.46929 2.15987L8.69543 1.99882L8.92156 2.15987L8.83516 1.89777L9.06023 1.73671H8.78183L8.69543 1.47461L8.60903 1.73671H8.33063Z" fill="white"/>
<path d="M9.86694 1.73671L10.092 1.89777L10.0056 2.15987L10.2317 1.99882L10.4579 2.15987L10.3715 1.89777L10.5965 1.73671H10.3181L10.2317 1.47461L10.1453 1.73671H9.86694Z" fill="white"/>
<path d="M11.4032 1.73671L11.6283 1.89777L11.5419 2.15987L11.768 1.99882L11.9941 2.15987L11.9077 1.89777L12.1328 1.73671H11.8544L11.768 1.47461L11.6816 1.73671H11.4032Z" fill="white"/>
<path d="M8.35687 3.25051L8.58301 3.41261L8.49661 3.67472L8.72274 3.51261L8.94781 3.67472L8.86141 3.41261L9.08754 3.25051H8.80807L8.72274 2.9884L8.63634 3.25051H8.35687Z" fill="white"/>
<path d="M9.89313 3.25051L10.1193 3.41261L10.0329 3.67472L10.259 3.51261L10.4841 3.67472L10.3977 3.41261L10.6238 3.25051H10.3443L10.259 2.9884L10.1726 3.25051H9.89313Z" fill="white"/>
<path d="M11.4294 3.25051L11.6556 3.41261L11.5692 3.67472L11.7953 3.51261L12.0204 3.67472L11.934 3.41261L12.1601 3.25051H11.8806L11.7953 2.9884L11.7089 3.25051H11.4294Z" fill="white"/>
<path d="M6.82056 3.25051L7.04669 3.41261L6.96029 3.67472L7.18642 3.51261L7.41149 3.67472L7.32509 3.41261L7.55122 3.25051H7.27176L7.18642 2.9884L7.10002 3.25051H6.82056Z" fill="white"/>
<path d="M8.33868 4.76601L8.56375 4.92812L8.47735 5.18917L8.70348 5.02706L8.92962 5.18917L8.84322 4.92812L9.06828 4.76601H8.78988L8.70348 4.50391L8.61708 4.76601H8.33868Z" fill="white"/>
<path d="M9.875 4.76601L10.1001 4.92812L10.0137 5.18917L10.2398 5.02706L10.4659 5.18917L10.3795 4.92812L10.6046 4.76601H10.3262L10.2398 4.50391L10.1534 4.76601H9.875Z" fill="white"/>
<path d="M11.4113 4.76601L11.6364 4.92812L11.55 5.18917L11.7761 5.02706L12.0022 5.18917L11.9158 4.92812L12.1409 4.76601H11.8625L11.7761 4.50391L11.6897 4.76601H11.4113Z" fill="white"/>
<path d="M6.80243 4.76601L7.0275 4.92812L6.9411 5.18917L7.16723 5.02706L7.39336 5.18917L7.30696 4.92812L7.53203 4.76601H7.25363L7.16723 4.50391L7.08083 4.76601H6.80243Z" fill="white"/>
<path d="M5.26813 4.76601L5.49319 4.92812L5.40679 5.18917L5.63293 5.02706L5.85906 5.18917L5.77266 4.92812L5.99773 4.76601H5.71933L5.63293 4.50391L5.54653 4.76601H5.26813Z" fill="white"/>
</g>
<defs>
<clipPath id="clip0_11_810">
<rect width="32" height="19.9999" fill="white"/>
</clipPath>
</defs>
</svg>
