<svg width="32" height="20" viewBox="0 0 32 20" fill="none" xmlns="http://www.w3.org/2000/svg">
<g clip-path="url(#clip0_11_1378)">
<path d="M-0.000976562 0H32.6916V13.3711L31.2868 14.707L32.6916 15.9766V20H-0.000976562V15.9766L1.62088 14.7656L-0.000976562 13.3672V0Z" fill="#0052B4"/>
<path d="M7.83369 5.65234L8.39014 7.3125H10.1926L8.73692 8.33984L9.29337 10L7.83369 8.97266L6.37805 10L6.9345 8.33984L5.47482 7.3125H7.27724L7.83369 5.65234ZM4.74095 3.91406L5.07159 4.91016H6.15627L5.28127 5.52734L5.61595 6.52344L4.74095 5.91016L3.86595 6.52344L4.19659 5.52734L3.32159 4.91406H4.40627L4.74095 3.91406Z" fill="#EEEEEE"/>
<path d="M-0.000976562 13.3711H32.6916V15.9766H-0.000976562V13.3711Z" fill="#FFDA44"/>
</g>
<defs>
<clipPath id="clip0_11_1378">
<rect width="32" height="20" fill="white"/>
</clipPath>
</defs>
</svg>
