<svg width="32" height="20" viewBox="0 0 32 20" fill="none" xmlns="http://www.w3.org/2000/svg">
<g clip-path="url(#clip0_11_780)">
<path d="M32 0H0V20H32V0Z" fill="#E70013"/>
<path d="M16.0007 15.2646C18.9462 15.2646 21.334 12.9082 21.334 10.0014C21.334 7.09468 18.9462 4.73828 16.0007 4.73828C13.0552 4.73828 10.6674 7.09468 10.6674 10.0014C10.6674 12.9082 13.0552 15.2646 16.0007 15.2646Z" fill="white"/>
<path d="M16 13.9473C18.2091 13.9473 20 12.1801 20 9.99998C20 7.81991 18.2091 6.05261 16 6.05261C13.7909 6.05261 12 7.81991 12 9.99998C12 12.1801 13.7909 13.9473 16 13.9473Z" fill="#E70013"/>
<path d="M17.0669 13.1576C18.8343 13.1576 20.2669 11.7437 20.2669 9.99969C20.2669 8.25563 18.8343 6.8418 17.0669 6.8418C15.2996 6.8418 13.8669 8.25563 13.8669 9.99969C13.8669 11.7437 15.2996 13.1576 17.0669 13.1576Z" fill="white"/>
<path d="M14.6674 9.99873L19.0087 8.60609L16.3207 12.2514V7.74609L19.0044 11.3903L14.6674 9.99873Z" fill="#E70013"/>
</g>
<defs>
<clipPath id="clip0_11_780">
<rect width="32" height="20" fill="white"/>
</clipPath>
</defs>
</svg>
