<svg width="32" height="20" viewBox="0 0 32 20" fill="none" xmlns="http://www.w3.org/2000/svg">
<g clip-path="url(#clip0_11_1260)">
<path d="M32 0H0V20H32V0Z" fill="#239F40"/>
<path d="M32 6.66602H0V13.3323H32V6.66602Z" fill="white"/>
<path d="M32 13.334H0V20.0003H32V13.334Z" fill="#DA0000"/>
<path d="M14.7198 5.75195H16.4265H14.7198ZM14.7198 6.31616V6.03301H15.2883V6.31616H15.8569V6.03301H15.5731L14.7198 6.31616ZM16.4265 6.31616H16.1417V6.03301H16.7102V5.75195L16.4265 6.31616ZM16.7102 6.03406V6.31616H17.2798V5.75195L16.7102 6.03406ZM16.995 5.75195V6.31616V5.75195Z" stroke="white" stroke-width="0.15" stroke-linecap="square"/>
<path d="M16.1427 6.63281H17.2798M14.7198 6.63281H15.8579H14.7198Z" stroke="white" stroke-width="0.15" stroke-linecap="square"/>
<path d="M17.5645 5.75195H19.2712H17.5645ZM17.5645 6.31511V6.03301H18.133V6.31616H18.7016V6.03301H18.4168L17.5645 6.31511ZM19.2701 6.31511H18.9864V6.03301H19.5549V5.75195L19.2701 6.31511ZM19.5549 6.03406V6.31616H20.1234V5.75195L19.5549 6.03406ZM19.8386 5.75195V6.31616V5.75195Z" stroke="white" stroke-width="0.15" stroke-linecap="square"/>
<path d="M18.9864 6.63281H20.1245M17.5645 6.63281H18.7026H17.5645Z" stroke="white" stroke-width="0.15" stroke-linecap="square"/>
<path d="M9.03125 5.75195H10.7379H9.03125ZM9.03125 6.31616V6.03301H9.59978V6.31616H10.1683V6.03301H9.88458L9.03125 6.31616ZM10.7379 6.31511H10.4531V6.03301H11.0217V5.75195L10.7379 6.31511ZM11.0217 6.03406V6.31616H11.5902V5.75195L11.0217 6.03406ZM11.3054 5.75195V6.31616V5.75195Z" stroke="white" stroke-width="0.15" stroke-linecap="square"/>
<path d="M10.4531 6.63281H11.5912M9.03125 6.63281H10.1683H9.03125Z" stroke="white" stroke-width="0.15" stroke-linecap="square"/>
<path d="M11.875 5.75195H13.5817H11.875ZM11.875 6.31511V6.03301H12.4435V6.31616H13.0131V6.03301H12.7283L11.875 6.31511ZM13.5817 6.31511H13.2969V6.03301H13.8665V5.75195L13.5817 6.31511ZM13.8665 6.03406V6.31616H14.435V5.75195L13.8665 6.03406ZM14.1502 5.75195V6.31616V5.75195Z" stroke="white" stroke-width="0.15" stroke-linecap="square"/>
<path d="M13.2979 6.63281H14.4361M11.875 6.63281H13.0131H11.875Z" stroke="white" stroke-width="0.15" stroke-linecap="square"/>
<path d="M26.0978 5.75195H27.8044H26.0978ZM26.0978 6.31511V6.03301H26.6663V6.31616H27.2348V6.03301H26.95L26.0978 6.31511ZM27.8034 6.31511H27.5196V6.03301H28.0882V5.75195L27.8034 6.31511ZM28.0882 6.03406V6.31616H28.6567V5.75195L28.0882 6.03406ZM28.3719 5.75195V6.31616V5.75195Z" stroke="white" stroke-width="0.15" stroke-linecap="square"/>
<path d="M27.5196 6.63281H28.6578M26.0978 6.63281H27.2359H26.0978Z" stroke="white" stroke-width="0.15" stroke-linecap="square"/>
<path d="M28.9415 5.75195H30.6482H28.9415ZM28.9415 6.31511V6.03301H29.5101V6.31616H30.0797V6.03301H29.7949L28.9415 6.31511ZM30.6482 6.31511H30.3634V6.03301H30.933V5.75195L30.6482 6.31511ZM30.933 6.03406V6.31616H31.5015V5.75195L30.933 6.03406ZM31.2167 5.75195V6.31616V5.75195Z" stroke="white" stroke-width="0.15" stroke-linecap="square"/>
<path d="M30.3645 6.63281H31.5026M28.9415 6.63281H30.0797H28.9415Z" stroke="white" stroke-width="0.15" stroke-linecap="square"/>
<path d="M20.4083 5.75195H22.1149H20.4083ZM20.4083 6.31511V6.03301H20.9768V6.31616H21.5464V6.03301H21.2616L20.4083 6.31511ZM22.1149 6.31511H21.8301V6.03301H22.3997V5.75195L22.1149 6.31511ZM22.3997 6.03406V6.31616H22.9683V5.75195L22.3997 6.03406ZM22.6835 5.75195V6.31616V5.75195Z" stroke="white" stroke-width="0.15" stroke-linecap="square"/>
<path d="M21.8312 6.63281H22.9693M20.4083 6.63281H21.5464H20.4083Z" stroke="white" stroke-width="0.15" stroke-linecap="square"/>
<path d="M23.2531 5.75195H24.9597H23.2531ZM23.2531 6.31616V6.03301H23.8216V6.31616H24.3901V6.03301H24.1064L23.2531 6.31616ZM24.9597 6.31616H24.6749V6.03301H25.2435V5.75195L24.9597 6.31616ZM25.2435 6.03406V6.31616H25.8131V5.75195L25.2435 6.03406ZM25.5283 5.75195V6.31616V5.75195Z" stroke="white" stroke-width="0.15" stroke-linecap="square"/>
<path d="M24.676 6.63281H25.8131M23.2531 6.63281H24.3912H23.2531Z" stroke="white" stroke-width="0.15" stroke-linecap="square"/>
<path d="M6.18646 5.75195H7.89313H6.18646ZM6.18646 6.31616V6.03301H6.755V6.31616H7.32353V6.03301H7.0398L6.18646 6.31616ZM7.89313 6.31616H7.60833V6.03301H8.17686V5.75195L7.89313 6.31616ZM8.17686 6.03406V6.31616H8.74646V5.75195L8.17686 6.03406ZM8.46166 5.75195V6.31616V5.75195Z" stroke="white" stroke-width="0.15" stroke-linecap="square"/>
<path d="M7.6094 6.63281H8.74646M6.18646 6.63281H7.3246H6.18646Z" stroke="white" stroke-width="0.15" stroke-linecap="square"/>
<path d="M0.497986 5.75195H2.20465H0.497986ZM0.497986 6.31616V6.03301H1.06652V6.31616H1.63505V6.03301H1.35132L0.497986 6.31616ZM2.20465 6.31511H1.91985V6.03301H2.48839V5.75195L2.20465 6.31511ZM2.48839 6.03406V6.31616H3.05692V5.75195L2.48839 6.03406ZM2.77212 5.75195V6.31616V5.75195Z" stroke="white" stroke-width="0.15" stroke-linecap="square"/>
<path d="M1.91985 6.63281H3.05799M0.497986 6.63281H1.63505H0.497986Z" stroke="white" stroke-width="0.15" stroke-linecap="square"/>
<path d="M3.34174 5.75195H5.0484H3.34174ZM3.34174 6.31616V6.03301H3.91027V6.31616H4.47987V6.03301H4.19507L3.34174 6.31616ZM5.0484 6.31511H4.76467V6.03301H5.3332V5.75195L5.0484 6.31511ZM5.3332 6.03406V6.31616H5.90174V5.75195L5.3332 6.03406ZM5.61694 5.75195V6.31616V5.75195Z" stroke="white" stroke-width="0.15" stroke-linecap="square"/>
<path d="M4.76467 6.63281H5.90174M3.34174 6.63281H4.47987H3.34174Z" stroke="white" stroke-width="0.15" stroke-linecap="square"/>
<path d="M14.7198 13.6836H16.4265H14.7198ZM14.7198 14.2468V13.9646H15.2883V14.2468H15.8569V13.9646H15.5731L14.7198 14.2468ZM16.4265 14.2468H16.1417V13.9646H16.7102V13.6836L16.4265 14.2468ZM16.7102 13.9657V14.2478H17.2798V13.6836L16.7102 13.9657ZM16.995 13.6836V14.2468V13.6836Z" stroke="white" stroke-width="0.15" stroke-linecap="square"/>
<path d="M16.1427 13.3672H17.2798M14.7198 13.3672H15.8579H14.7198Z" stroke="white" stroke-width="0.15" stroke-linecap="square"/>
<path d="M17.5645 13.6836H19.2712H17.5645ZM17.5645 14.2468V13.9646H18.133V14.2468H18.7016V13.9646H18.4168L17.5645 14.2468ZM19.2701 14.2468H18.9864V13.9646H19.5549V13.6836L19.2701 14.2468ZM19.5549 13.9657V14.2478H20.1234V13.6836L19.5549 13.9657ZM19.8397 13.6836V14.2468V13.6836Z" stroke="white" stroke-width="0.15" stroke-linecap="square"/>
<path d="M18.9874 13.3672H20.1256M17.5645 13.3672H18.7026H17.5645Z" stroke="white" stroke-width="0.15" stroke-linecap="square"/>
<path d="M9.03125 13.6836H10.7379H9.03125ZM9.03125 14.2468V13.9646H9.59978V14.2468H10.1683V13.9646H9.88458L9.03125 14.2468ZM10.7379 14.2468H10.4531V13.9646H11.0217V13.6836L10.7379 14.2468ZM11.0217 13.9657V14.2478H11.5902V13.6836L11.0217 13.9657ZM11.3065 13.6836V14.2468V13.6836Z" stroke="white" stroke-width="0.15" stroke-linecap="square"/>
<path d="M10.4531 13.3672H11.5912M9.03125 13.3672H10.1683H9.03125Z" stroke="white" stroke-width="0.15" stroke-linecap="square"/>
<path d="M11.875 13.6836H13.5817H11.875ZM11.875 14.2468V13.9646H12.4435V14.2468H13.0131V13.9646H12.7283L11.875 14.2468ZM13.5817 14.2468H13.2969V13.9646H13.8665V13.6836L13.5817 14.2468ZM13.8665 13.9657V14.2478H14.435V13.6836L13.8665 13.9657ZM14.1502 13.6836V14.2468V13.6836Z" stroke="white" stroke-width="0.15" stroke-linecap="square"/>
<path d="M13.2979 13.3672H14.4361M11.875 13.3672H13.0131H11.875Z" stroke="white" stroke-width="0.15" stroke-linecap="square"/>
<path d="M26.0978 13.6836H27.8044H26.0978ZM26.0978 14.2468V13.9646H26.6663V14.2468H27.2348V13.9646H26.95L26.0978 14.2468ZM27.8034 14.2468H27.5196V13.9646H28.0882V13.6836L27.8034 14.2468ZM28.0882 13.9657V14.2478H28.6567V13.6836L28.0882 13.9657ZM28.373 13.6836V14.2468V13.6836Z" stroke="white" stroke-width="0.15" stroke-linecap="square"/>
<path d="M27.5207 13.3672H28.6588M26.0978 13.3672H27.2359H26.0978Z" stroke="white" stroke-width="0.15" stroke-linecap="square"/>
<path d="M28.9415 13.6836H30.6482H28.9415ZM28.9415 14.2468V13.9646H29.5101V14.2468H30.0797V13.9646H29.7949L28.9415 14.2468ZM30.6482 14.2468H30.3634V13.9646H30.933V13.6836L30.6482 14.2468ZM30.933 13.9657V14.2478H31.5015V13.6836L30.933 13.9657ZM31.2167 13.6836V14.2468V13.6836Z" stroke="white" stroke-width="0.15" stroke-linecap="square"/>
<path d="M30.3645 13.3672H31.5026M28.9415 13.3672H30.0797H28.9415Z" stroke="white" stroke-width="0.15" stroke-linecap="square"/>
<path d="M20.4083 13.6836H22.1149H20.4083ZM20.4083 14.2468V13.9646H20.9768V14.2468H21.5464V13.9646H21.2616L20.4083 14.2468ZM22.1149 14.2468H21.8301V13.9646H22.3997V13.6836L22.1149 14.2468ZM22.3997 13.9657V14.2478H22.9683V13.6836L22.3997 13.9657ZM22.6835 13.6836V14.2468V13.6836Z" stroke="white" stroke-width="0.15" stroke-linecap="square"/>
<path d="M21.8312 13.3672H22.9693M20.4083 13.3672H21.5464H20.4083Z" stroke="white" stroke-width="0.15" stroke-linecap="square"/>
<path d="M23.2531 13.6836H24.9597H23.2531ZM23.2531 14.2468V13.9646H23.8216V14.2468H24.3901V13.9646H24.1064L23.2531 14.2468ZM24.9597 14.2468H24.6749V13.9646H25.2435V13.6836L24.9597 14.2468ZM25.2435 13.9657V14.2478H25.8131V13.6836L25.2435 13.9657ZM25.5283 13.6836V14.2468V13.6836Z" stroke="white" stroke-width="0.15" stroke-linecap="square"/>
<path d="M24.676 13.3672H25.8131M23.2531 13.3672H24.3912H23.2531Z" stroke="white" stroke-width="0.15" stroke-linecap="square"/>
<path d="M6.18646 13.6836H7.89313H6.18646ZM6.18646 14.2468V13.9646H6.755V14.2468H7.32353V13.9646H7.0398L6.18646 14.2468ZM7.89313 14.2468H7.60833V13.9646H8.17686V13.6836L7.89313 14.2468ZM8.17686 13.9657V14.2478H8.74646V13.6836L8.17686 13.9657ZM8.46166 13.6836V14.2468V13.6836Z" stroke="white" stroke-width="0.15" stroke-linecap="square"/>
<path d="M7.6094 13.3672H8.74646M6.18646 13.3672H7.3246H6.18646Z" stroke="white" stroke-width="0.15" stroke-linecap="square"/>
<path d="M0.497986 13.6836H2.20465H0.497986ZM0.497986 14.2468V13.9646H1.06652V14.2468H1.63505V13.9646H1.35132L0.497986 14.2468ZM2.20465 14.2468H1.91985V13.9646H2.48839V13.6836L2.20465 14.2468ZM2.48839 13.9657V14.2478H3.05692V13.6836L2.48839 13.9657ZM2.77319 13.6836V14.2468V13.6836Z" stroke="white" stroke-width="0.15" stroke-linecap="square"/>
<path d="M1.91985 13.3672H3.05799M0.497986 13.3672H1.63505H0.497986Z" stroke="white" stroke-width="0.15" stroke-linecap="square"/>
<path d="M3.34174 13.6836H5.0484H3.34174ZM3.34174 14.2468V13.9646H3.91027V14.2468H4.47987V13.9646H4.19507L3.34174 14.2468ZM5.0484 14.2468H4.76467V13.9646H5.3332V13.6836L5.0484 14.2468ZM5.3332 13.9657V14.2478H5.90174V13.6836L5.3332 13.9657ZM5.61694 13.6836V14.2468V13.6836Z" stroke="white" stroke-width="0.15" stroke-linecap="square"/>
<path d="M4.76467 13.3672H5.90174M3.34174 13.3672H4.47987H3.34174Z" stroke="white" stroke-width="0.15" stroke-linecap="square"/>
<path d="M16.9315 8.38281C16.9315 8.38281 18.5848 9.66387 17.3699 11.5039C18.5144 10.8112 18.6136 8.90597 16.9315 8.38281Z" fill="#DA0000"/>
<path d="M16.0001 8.1986C15.7366 8.49229 15.2844 8.1986 15.4401 7.88281C15.7121 8.36597 16.0001 7.97544 16.0001 7.97544C16.0001 7.97544 16.2881 8.36597 16.5601 7.88281C16.7158 8.1986 16.2636 8.49544 16.0001 8.1986Z" fill="#DA0000"/>
<path d="M16.0004 12.1898L15.8116 11.9446C15.4702 12.0309 15.11 12.0114 14.7802 11.8888C15.2612 11.8888 15.5268 11.8046 15.6335 11.7561C15.6335 11.7561 14.5455 11.1751 14.5668 9.99298C14.6308 8.79614 15.274 8.43193 15.274 8.43193C15.274 8.43193 14.1295 10.0835 15.8074 11.4635L15.7327 9.75614V8.5014C15.8276 8.47824 16.0026 8.2793 16.0026 8.2793C16.0026 8.2793 16.1775 8.47824 16.2724 8.5014V9.75614L16.1978 11.4635C17.8799 10.0835 16.7311 8.43193 16.7311 8.43193C16.7311 8.43193 17.3711 8.79614 17.4383 9.99298C17.4596 11.1761 16.3716 11.7561 16.3716 11.7561C16.4708 11.8056 16.7396 11.8888 17.225 11.8888C16.8951 12.0114 16.535 12.0309 16.1935 11.9446L16.0004 12.1898Z" fill="#DA0000"/>
<path d="M15.0683 8.38281C15.0683 8.38281 13.415 9.66387 14.6299 11.5039C13.4854 10.8112 13.3862 8.90597 15.0683 8.38281Z" fill="#DA0000"/>
</g>
<defs>
<clipPath id="clip0_11_1260">
<rect width="32" height="20.0003" fill="white"/>
</clipPath>
</defs>
</svg>
