<svg width="32" height="20" viewBox="0 0 32 20" fill="none" xmlns="http://www.w3.org/2000/svg">
<g clip-path="url(#clip0_11_718)">
<path d="M32 0H0V20H32V0Z" fill="white"/>
<path d="M32 13.334H0V20.0003H32V13.334Z" fill="#0038A8"/>
<path d="M32 0H0V6.66632H32V0Z" fill="#D52B1E"/>
<path d="M18.453 9.99918C18.453 10.6413 18.1945 11.2571 17.7345 11.7111C17.2744 12.1652 16.6504 12.4202 15.9997 12.4202C15.349 12.4202 14.725 12.1652 14.2649 11.7111C13.8048 11.2571 13.5464 10.6413 13.5464 9.99918V9.99918C13.5464 9.35707 13.8048 8.74127 14.2649 8.28723C14.725 7.8332 15.349 7.57813 15.9997 7.57812C16.6504 7.57813 17.2744 7.8332 17.7345 8.28723C18.1945 8.74127 18.453 9.35707 18.453 9.99918V9.99918Z" stroke="black" stroke-width="0.93" stroke-linecap="round"/>
<path d="M16.3203 8.86719C16.3203 8.86719 17.2547 9.26403 17.0915 10.0851C16.9283 10.9061 16.4089 10.8998 16.2041 10.9903C15.9993 11.0809 15.8595 11.2103 15.7774 11.1925C15.7122 11.1736 15.6495 11.1471 15.5907 11.1135C15.5904 11.1548 15.6066 11.1946 15.6357 11.2244C15.6648 11.2541 15.7046 11.2713 15.7465 11.2725C15.9107 11.2967 16.1251 11.0619 16.2286 11.0335C16.3321 11.0051 16.9667 10.9388 17.1214 10.104C17.307 9.2135 16.331 8.8935 16.3203 8.86719Z" fill="#009B3A" stroke="black" stroke-width="0.07"/>
<path d="M16.7959 9.04193C16.813 9.1093 16.814 9.16509 16.7959 9.1672C16.7778 9.1693 16.7511 9.11457 16.733 9.0472C16.7159 8.97983 16.7148 8.92404 16.733 8.92193C16.7511 8.91983 16.7788 8.97457 16.7959 9.04193Z" fill="#009B3A" stroke="black" stroke-width="0.07"/>
<path d="M16.7638 9.05308C16.7958 9.11729 16.8097 9.17414 16.7947 9.18045C16.7798 9.18677 16.7403 9.13835 16.7083 9.07519C16.6763 9.01098 16.6625 8.95414 16.6774 8.94782C16.6923 8.9415 16.7318 8.98993 16.7638 9.05308Z" fill="#009B3A" stroke="black" stroke-width="0.07"/>
<path d="M16.6711 9.11225C16.7372 9.1312 16.7895 9.16067 16.7884 9.17857C16.7874 9.19646 16.7319 9.19436 16.6658 9.17857C16.5996 9.15962 16.5474 9.13015 16.5484 9.11225C16.5495 9.09436 16.6049 9.09646 16.6711 9.11225Z" fill="#009B3A" stroke="black" stroke-width="0.07"/>
<path d="M16.6827 9.07837C16.7435 9.11837 16.7894 9.16258 16.7787 9.17732C16.768 9.19205 16.7168 9.171 16.656 9.131C16.5952 9.091 16.5494 9.04679 16.56 9.03205C16.5707 9.01732 16.6219 9.03837 16.6827 9.07837Z" fill="#009B3A" stroke="black" stroke-width="0.07"/>
<path d="M16.722 9.06303C16.7732 9.11567 16.8052 9.1683 16.7945 9.17882C16.7838 9.18935 16.7326 9.15672 16.6814 9.10409C16.6302 9.05146 16.5982 8.99882 16.6089 8.9883C16.6196 8.97777 16.6708 9.0104 16.722 9.06303Z" fill="#009B3A" stroke="black" stroke-width="0.07"/>
<path d="M16.7896 9.17927C16.7752 9.18788 16.7602 9.19561 16.7448 9.20243C16.7363 9.20243 16.7256 9.1919 16.7011 9.20243C16.6811 9.213 16.665 9.2296 16.6552 9.2498C16.6552 9.26243 16.6616 9.26769 16.6904 9.2498C16.7192 9.2319 16.7267 9.21401 16.7406 9.20559C16.7565 9.19543 16.7733 9.18663 16.7907 9.17927C16.796 9.16664 16.8152 9.14032 16.8248 9.12559C16.8344 9.11085 16.8718 9.08559 16.8856 9.05611C16.8995 9.02664 16.8931 9.01085 16.8771 9.02032C16.8577 9.03329 16.8416 9.0506 16.8302 9.07085C16.8206 9.08874 16.8302 9.11085 16.8184 9.12664C16.8067 9.14243 16.7896 9.17401 16.7875 9.17401L16.7896 9.17927Z" fill="#009B3A" stroke="black" stroke-width="0.07"/>
<path d="M17.0783 9.27341C17.0783 9.37867 17.0613 9.45867 17.0378 9.45341C17.0143 9.44815 16.993 9.35867 16.9919 9.25446C16.9919 9.1492 17.009 9.0692 17.0325 9.07446C17.0559 9.07973 17.0773 9.1692 17.0783 9.27341Z" fill="#009B3A" stroke="black" stroke-width="0.07"/>
<path d="M17.0313 9.27079C17.0548 9.37606 17.0548 9.46448 17.0313 9.46553C17.0078 9.46658 16.9705 9.38132 16.947 9.27395C16.9236 9.16869 16.9236 9.08027 16.947 9.07816C16.9705 9.07606 17.0078 9.16237 17.0313 9.26974V9.27079Z" fill="#009B3A" stroke="black" stroke-width="0.07"/>
<path d="M16.8799 9.31825C16.9653 9.37509 17.0282 9.44036 17.0207 9.46457C17.0133 9.48878 16.9375 9.46457 16.8522 9.40562C16.7669 9.34878 16.7039 9.28352 16.7125 9.2593C16.721 9.23509 16.7957 9.25931 16.881 9.31825H16.8799Z" fill="#009B3A" stroke="black" stroke-width="0.07"/>
<path d="M16.9105 9.27548C16.9809 9.35969 17.0257 9.44179 17.0108 9.45863C16.9959 9.47548 16.9265 9.42285 16.8561 9.33863C16.7857 9.25442 16.742 9.17232 16.7569 9.15548C16.7719 9.13863 16.8401 9.19127 16.9105 9.27548Z" fill="#009B3A" stroke="black" stroke-width="0.07"/>
<path d="M16.97 9.27033C17.0233 9.36823 17.051 9.45665 17.0318 9.46823C17.0126 9.4798 16.954 9.41033 16.9006 9.31244C16.8473 9.21454 16.8196 9.12612 16.8388 9.11454C16.858 9.10296 16.9166 9.17244 16.97 9.27033Z" fill="#009B3A" stroke="black" stroke-width="0.07"/>
<path d="M17.0218 9.463C16.999 9.46904 16.9758 9.47361 16.9524 9.47668C16.9396 9.47668 16.929 9.45247 16.8916 9.45879C16.8604 9.46479 16.8324 9.48159 16.8127 9.50615C16.801 9.52194 16.8127 9.53563 16.8607 9.52826C16.9087 9.52089 16.9226 9.49352 16.945 9.48721C16.9707 9.47989 16.9972 9.47496 17.0239 9.47247C17.0356 9.45773 17.0708 9.42721 17.089 9.41037C17.1071 9.39352 17.1679 9.37352 17.1956 9.33773C17.2234 9.30194 17.2212 9.27668 17.1956 9.28194C17.1646 9.29209 17.1367 9.30984 17.1146 9.33352C17.0954 9.35458 17.0996 9.38931 17.0794 9.40826C17.0591 9.42721 17.0228 9.46405 17.0207 9.463H17.0218Z" fill="#009B3A" stroke="black" stroke-width="0.07"/>
<path d="M17.2295 9.65666C17.2113 9.76192 17.1793 9.8356 17.1569 9.82613C17.1345 9.81666 17.1303 9.72087 17.1484 9.6156C17.1665 9.51034 17.1985 9.43666 17.2209 9.44613C17.2433 9.45561 17.2476 9.55139 17.2295 9.65666Z" fill="#009B3A" stroke="black" stroke-width="0.07"/>
<path d="M17.1849 9.6457C17.1849 9.75096 17.1721 9.84149 17.1497 9.83833C17.1273 9.83517 17.106 9.74359 17.1028 9.63412C17.1028 9.52886 17.1156 9.43833 17.138 9.44149C17.1604 9.44464 17.1817 9.53622 17.1849 9.6457Z" fill="#009B3A" stroke="black" stroke-width="0.07"/>
<path d="M17.0306 9.66106C17.1032 9.73264 17.1533 9.80948 17.1373 9.83158C17.1213 9.85369 17.0562 9.81369 16.9826 9.74106C16.9101 9.66948 16.86 9.59264 16.876 9.57053C16.892 9.54843 16.957 9.58843 17.0306 9.66106Z" fill="#009B3A" stroke="black" stroke-width="0.07"/>
<path d="M17.068 9.62598C17.1213 9.72177 17.1501 9.81124 17.132 9.82598C17.1138 9.84072 17.0562 9.7744 17.0029 9.67861C16.9496 9.58282 16.9208 9.49335 16.9389 9.47861C16.957 9.46388 17.0146 9.53019 17.068 9.62598Z" fill="#009B3A" stroke="black" stroke-width="0.07"/>
<path d="M17.1266 9.63297C17.1608 9.73824 17.1714 9.83297 17.1512 9.8435C17.1309 9.85402 17.085 9.77087 17.0509 9.66455C17.0168 9.55929 17.0061 9.46455 17.0264 9.45402C17.0466 9.4435 17.0925 9.52666 17.1266 9.63297Z" fill="#009B3A" stroke="black" stroke-width="0.07"/>
<path d="M17.1418 9.83382C17.1184 9.83535 17.0948 9.83535 17.0714 9.83382C17.0597 9.83382 17.0533 9.8054 17.0159 9.8054C16.9846 9.80543 16.9543 9.81664 16.9306 9.83697C16.9167 9.85066 16.9306 9.86645 16.9733 9.8675C17.0159 9.86855 17.0405 9.84434 17.0629 9.84329C17.0891 9.84088 17.1155 9.84088 17.1418 9.84329C17.1567 9.83066 17.1962 9.8075 17.2165 9.79382C17.2367 9.78013 17.3007 9.77276 17.3349 9.74224C17.369 9.71171 17.3711 9.6875 17.3455 9.6875C17.3134 9.69173 17.2829 9.70406 17.257 9.72329C17.2346 9.74013 17.2314 9.77592 17.209 9.79066C17.1866 9.8054 17.1439 9.83487 17.1407 9.83382H17.1418Z" fill="#009B3A" stroke="black" stroke-width="0.07"/>
<path d="M17.2412 10.0811C17.1847 10.1696 17.1249 10.2275 17.1089 10.2085C17.0929 10.1896 17.1249 10.1033 17.1825 10.0138C17.2391 9.92536 17.2988 9.86746 17.3148 9.88641C17.3308 9.90536 17.2988 9.99167 17.2412 10.0811Z" fill="#009B3A" stroke="black" stroke-width="0.07"/>
<path d="M17.2045 10.0518C17.164 10.1571 17.116 10.2287 17.0978 10.216C17.0797 10.2034 17.0978 10.1108 17.1352 10.0055C17.1757 9.90023 17.2237 9.82866 17.2418 9.84129C17.26 9.85392 17.244 9.94866 17.2045 10.0518Z" fill="#009B3A" stroke="black" stroke-width="0.07"/>
<path d="M17.0579 10.0052C17.0953 10.102 17.1102 10.1925 17.0899 10.2083C17.0697 10.2241 17.0238 10.1578 16.9833 10.061C16.9427 9.96411 16.931 9.87358 16.9513 9.85779C16.9715 9.842 17.0174 9.90832 17.0579 10.0052Z" fill="#009B3A" stroke="black" stroke-width="0.07"/>
<path d="M17.1064 9.9883C17.117 10.0988 17.1064 10.1988 17.085 10.1988C17.0637 10.1988 17.037 10.1199 17.0264 10.0094C17.0157 9.89883 17.0264 9.79883 17.0477 9.79883C17.069 9.79883 17.0957 9.87778 17.1064 9.9883Z" fill="#009B3A" stroke="black" stroke-width="0.07"/>
<path d="M17.1551 10.0172C17.1445 10.1298 17.1178 10.2203 17.0954 10.2193C17.073 10.2182 17.0645 10.1245 17.0751 10.0088C17.0858 9.89297 17.1125 9.8056 17.1349 9.80665C17.1573 9.8077 17.1669 9.90454 17.1551 10.0172Z" fill="#009B3A" stroke="black" stroke-width="0.07"/>
<path d="M17.0913 10.2101C17.0697 10.202 17.0487 10.1925 17.0284 10.1816C17.0177 10.1753 17.0231 10.148 16.9889 10.1322C16.9608 10.1195 16.9288 10.1176 16.8993 10.1269C16.8812 10.1343 16.8855 10.1532 16.926 10.1732C16.9665 10.1932 16.9964 10.1795 17.0167 10.1869C17.0415 10.1955 17.0654 10.2065 17.0881 10.2195C17.1063 10.2132 17.1511 10.209 17.1756 10.2048C17.2181 10.2096 17.2611 10.2096 17.3036 10.2048C17.3399 10.1943 17.358 10.168 17.3345 10.1585C17.3035 10.1501 17.2707 10.1501 17.2396 10.1585C17.2129 10.1648 17.1959 10.1974 17.1692 10.2006C17.1425 10.2037 17.0924 10.2153 17.0913 10.2132V10.2101Z" fill="#009B3A" stroke="black" stroke-width="0.07"/>
<path d="M17.1266 10.5146C17.0349 10.5925 16.9506 10.6346 16.9389 10.6083C16.9271 10.582 16.9922 10.4978 17.0839 10.4199C17.1757 10.342 17.2599 10.2999 17.2717 10.3262C17.2834 10.3525 17.2183 10.4367 17.1266 10.5146Z" fill="#009B3A" stroke="black" stroke-width="0.07"/>
<path d="M17.0946 10.4685C17.0157 10.5675 16.9378 10.6317 16.9207 10.6117C16.9037 10.5917 16.9527 10.4938 17.0274 10.3949C17.1063 10.2959 17.1842 10.2317 17.2013 10.2517C17.2183 10.2717 17.1693 10.3696 17.0946 10.4685Z" fill="#009B3A" stroke="black" stroke-width="0.07"/>
<path d="M16.9464 10.3637C16.956 10.4837 16.9464 10.59 16.9144 10.5995C16.8824 10.609 16.8579 10.5205 16.8483 10.4005C16.8387 10.2805 16.8483 10.1742 16.8803 10.1648C16.9123 10.1553 16.9368 10.2437 16.9464 10.3637Z" fill="#009B3A" stroke="black" stroke-width="0.07"/>
<path d="M17.007 10.3614C16.9814 10.4877 16.9398 10.5888 16.9132 10.5877C16.8865 10.5867 16.8865 10.4824 16.9132 10.3572C16.9388 10.2309 16.9804 10.1298 17.007 10.1309C17.0337 10.1319 17.0326 10.2351 17.007 10.3614Z" fill="#009B3A" stroke="black" stroke-width="0.07"/>
<path d="M17.0532 10.4123C17.0031 10.5333 16.9465 10.6228 16.9199 10.6133C16.8932 10.6038 16.9199 10.4975 16.9668 10.3775C17.0137 10.2575 17.0735 10.167 17.1001 10.1765C17.1268 10.1859 17.1033 10.2912 17.0532 10.4123Z" fill="#009B3A" stroke="black" stroke-width="0.07"/>
<path d="M16.9149 10.6014C16.8939 10.5848 16.8739 10.5669 16.8552 10.5477C16.8456 10.5361 16.8552 10.5088 16.8285 10.4793C16.802 10.4553 16.7674 10.4418 16.7315 10.4414C16.7091 10.4414 16.708 10.4656 16.7453 10.5014C16.7827 10.5372 16.82 10.533 16.8413 10.5488C16.866 10.5674 16.8888 10.5881 16.9096 10.6109C16.932 10.6109 16.9821 10.6214 17.0109 10.6256C17.0397 10.6298 17.0995 10.6719 17.1507 10.6719C17.2019 10.6719 17.2221 10.6509 17.2008 10.6319C17.1693 10.61 17.1325 10.5969 17.0941 10.594C17.0621 10.594 17.0333 10.6214 17.0024 10.6161C16.9715 10.6109 16.916 10.6046 16.9149 10.6014Z" fill="#009B3A" stroke="black" stroke-width="0.07"/>
<path d="M16.8244 10.8912C16.6921 10.9123 16.5876 10.9049 16.5908 10.8733C16.594 10.8418 16.7028 10.7986 16.8351 10.7775C16.9673 10.7565 17.0719 10.7639 17.0687 10.7954C17.0655 10.827 16.9567 10.8702 16.8244 10.8912Z" fill="#009B3A" stroke="black" stroke-width="0.07"/>
<path d="M16.8192 10.8296C16.688 10.879 16.5781 10.8959 16.5728 10.8664C16.5674 10.8369 16.6688 10.7727 16.8 10.7233C16.9312 10.6738 17.041 10.6569 17.0464 10.6864C17.0517 10.7159 16.9504 10.7801 16.8192 10.8296Z" fill="#009B3A" stroke="black" stroke-width="0.07"/>
<path d="M16.738 10.6492C16.6804 10.7692 16.6079 10.8598 16.5769 10.8598C16.546 10.8598 16.5663 10.7545 16.6239 10.6324C16.6815 10.5103 16.754 10.4219 16.7849 10.4219C16.8159 10.4219 16.7945 10.5271 16.738 10.6492Z" fill="#009B3A" stroke="black" stroke-width="0.07"/>
<path d="M16.795 10.6802C16.7011 10.7855 16.604 10.8581 16.5816 10.8413C16.5592 10.8245 16.6136 10.7266 16.7075 10.6213C16.8014 10.516 16.8984 10.4434 16.9208 10.4592C16.9432 10.475 16.8888 10.5739 16.795 10.6792V10.6802Z" fill="#009B3A" stroke="black" stroke-width="0.07"/>
<path d="M16.8131 10.756C16.6979 10.8423 16.5913 10.8939 16.5731 10.8718C16.555 10.8497 16.6339 10.7613 16.7491 10.675C16.8643 10.5886 16.971 10.5371 16.9881 10.5602C17.0051 10.5834 16.9273 10.6697 16.8131 10.756Z" fill="#009B3A" stroke="black" stroke-width="0.07"/>
<path d="M16.5734 10.8567C16.5623 10.8285 16.553 10.7997 16.5457 10.7704C16.5457 10.7546 16.5723 10.7356 16.5574 10.6904C16.545 10.6523 16.5193 10.6198 16.4849 10.5988C16.4625 10.5872 16.4486 10.6082 16.4646 10.664C16.4806 10.7198 16.519 10.7367 16.5307 10.7693C16.5444 10.8009 16.5551 10.8337 16.5627 10.8672C16.5841 10.8798 16.6267 10.9188 16.6523 10.9388C16.6779 10.9588 16.7121 11.0335 16.759 11.063C16.8059 11.0925 16.8401 11.084 16.8294 11.0525C16.8117 11.0147 16.7846 10.9821 16.7505 10.9577C16.7206 10.9367 16.6769 10.9493 16.6502 10.9261C16.6235 10.903 16.5723 10.8609 16.5734 10.8567Z" fill="#009B3A" stroke="black" stroke-width="0.07"/>
<path d="M16.4268 11.1039C16.2913 11.1039 16.1815 11.0765 16.1815 11.0376C16.1815 10.9986 16.2881 10.9671 16.4268 10.9649C16.5655 10.9628 16.6721 10.9923 16.6721 11.0313C16.6721 11.0702 16.5655 11.1018 16.4268 11.1039Z" fill="#009B3A" stroke="black" stroke-width="0.07"/>
<path d="M16.398 10.8883C16.3116 10.9935 16.2188 11.0672 16.19 11.043C16.1612 11.0188 16.2071 10.9114 16.2967 10.8019C16.3831 10.6967 16.4759 10.623 16.5047 10.6472C16.5335 10.6714 16.4844 10.7788 16.398 10.8883Z" fill="#009B3A" stroke="black" stroke-width="0.07"/>
<path d="M16.4316 10.9976C16.3058 11.0513 16.1927 11.066 16.1788 11.0302C16.165 10.9944 16.2556 10.9249 16.3815 10.8692C16.5074 10.8134 16.6204 10.8007 16.6343 10.8365C16.6482 10.8723 16.5586 10.947 16.4316 10.9976Z" fill="#009B3A" stroke="black" stroke-width="0.07"/>
<path d="M16.4983 8.88968C16.5612 8.94547 16.5986 8.99495 16.5826 9.00547C16.5666 9.016 16.5026 8.976 16.4407 8.92021C16.3788 8.86442 16.3404 8.81495 16.3564 8.80442C16.3724 8.79389 16.4364 8.83389 16.4983 8.88968Z" fill="#009B3A" stroke="black" stroke-width="0.07"/>
<path d="M16.4276 8.94692C16.5118 8.95745 16.5833 8.98061 16.5865 8.99745C16.5897 9.01429 16.5236 9.01955 16.4393 9.00903C16.355 8.9985 16.2836 8.97534 16.2804 8.9585C16.2772 8.94166 16.3401 8.94061 16.4276 8.94692Z" fill="#009B3A" stroke="black" stroke-width="0.07"/>
<path d="M16.4551 8.91287C16.5351 8.95287 16.5927 8.99603 16.5842 9.00971C16.5756 9.0234 16.5042 9.00234 16.4252 8.96234C16.3452 8.92234 16.2887 8.87919 16.2972 8.8655C16.3058 8.85182 16.3751 8.87287 16.4551 8.91287Z" fill="#009B3A" stroke="black" stroke-width="0.07"/>
<path d="M15.3488 10.8677C15.4791 10.8953 15.6077 10.9305 15.7339 10.973C15.9131 11.0372 16.184 11.2572 16.2576 11.2698C16.3076 11.2754 16.358 11.2646 16.4012 11.2392C16.4444 11.2137 16.4779 11.1749 16.4965 11.1288C16.3707 11.1624 16.2949 11.2119 16.1765 11.1467C16.0692 11.0699 15.9574 10.9996 15.8416 10.9361C15.6912 10.879 15.5373 10.8312 15.3808 10.793L15.3488 10.8677Z" fill="#009B3A" stroke="black" stroke-width="0.07"/>
<path d="M15.5665 9.03331L15.8033 8.91016L15.542 8.97647L15.5121 9.02173L15.5665 9.03331Z" fill="#009B3A" stroke="black" stroke-width="0.07"/>
<path d="M15.7857 9.09147C15.694 9.07463 15.5532 9.0441 15.4657 9.03779C15.5276 8.97042 15.6129 8.85568 15.6663 8.78516C15.6261 8.85621 15.5904 8.92969 15.5596 9.00516C15.6334 9.03786 15.7089 9.06667 15.7857 9.09147Z" fill="#009B3A" stroke="black" stroke-width="0.07"/>
<path d="M15.524 9.05168L15.7374 8.89062L15.4931 8.99589L15.4718 9.04536L15.524 9.05168Z" fill="#009B3A" stroke="black" stroke-width="0.07"/>
<path d="M15.7494 9.0873C15.6566 9.07046 15.5148 9.03783 15.4294 9.03046C15.4902 8.96099 15.5734 8.84204 15.6257 8.76941C15.5853 8.84289 15.5497 8.91884 15.519 8.99678C15.5941 9.03101 15.6711 9.06123 15.7494 9.0873Z" fill="#009B3A" stroke="black" stroke-width="0.07"/>
<path d="M15.4888 9.06229L15.7363 8.95703L15.4696 9.00019L15.4355 9.04229L15.4888 9.06229Z" fill="#009B3A" stroke="black" stroke-width="0.07"/>
<path d="M15.7206 9.09072C15.6268 9.08335 15.4828 9.06546 15.3932 9.06757C15.4454 8.98967 15.5137 8.85704 15.5564 8.78125C15.525 8.86025 15.4986 8.94111 15.4774 9.02335C15.5572 9.05025 15.6384 9.07275 15.7206 9.09072Z" fill="#009B3A" stroke="black" stroke-width="0.07"/>
<path d="M15.4668 9.06148L15.6342 8.85938L15.4209 9.01622L15.4113 9.0699L15.4668 9.06148Z" fill="#009B3A" stroke="black" stroke-width="0.07"/>
<path d="M15.7199 9.10441C15.6196 9.10441 15.465 9.09388 15.369 9.10441C15.4159 9.01599 15.4756 8.87072 15.513 8.78125C15.4878 8.86979 15.4682 8.95979 15.4543 9.05072C15.5417 9.07351 15.6304 9.09143 15.7199 9.10441Z" fill="#009B3A" stroke="black" stroke-width="0.07"/>
<path d="M15.4307 9.10865L15.6344 8.91602L15.388 9.05181L15.371 9.1097L15.4307 9.10865Z" fill="#009B3A" stroke="black" stroke-width="0.07"/>
<path d="M15.68 9.10942C15.5734 9.10942 15.407 9.10416 15.3024 9.11574C15.3718 9.01784 15.4667 8.85574 15.5254 8.75574C15.4784 8.85239 15.4367 8.95148 15.4006 9.05258C15.4924 9.07735 15.5857 9.09633 15.68 9.10942Z" fill="#009B3A" stroke="black" stroke-width="0.07"/>
<path d="M15.3604 9.12427L15.6206 8.90637L15.3262 9.06111L15.2964 9.12532L15.3604 9.12427Z" fill="#009B3A" stroke="black" stroke-width="0.07"/>
<path d="M15.6374 9.11613C15.5308 9.13086 15.3665 9.14876 15.2641 9.17402C15.3185 9.06876 15.3889 8.89718 15.4326 8.79297C15.4017 8.89398 15.3764 8.99659 15.3569 9.10034C15.45 9.11125 15.5437 9.11653 15.6374 9.11613Z" fill="#009B3A" stroke="black" stroke-width="0.07"/>
<path d="M15.3281 9.16536L15.5286 8.89062L15.278 9.11378L15.2641 9.1822L15.3281 9.16536Z" fill="#009B3A" stroke="black" stroke-width="0.07"/>
<path d="M15.5721 9.14814C15.4654 9.15761 15.299 9.16708 15.1956 9.18708C15.2564 9.08182 15.3364 8.91761 15.3865 8.81445C15.3496 8.91373 15.3183 9.01494 15.2926 9.11761C15.3851 9.13343 15.4784 9.14363 15.5721 9.14814Z" fill="#009B3A" stroke="black" stroke-width="0.07"/>
<path d="M15.2899 9.19446L15.5449 8.97656L15.2526 9.13025L15.2238 9.19446H15.2899Z" fill="#009B3A" stroke="black" stroke-width="0.07"/>
<path d="M15.5458 9.15773C15.4391 9.17983 15.2727 9.20825 15.1714 9.24088C15.2215 9.13562 15.2844 8.95983 15.3228 8.85352C15.2968 8.95513 15.2765 9.05809 15.262 9.16194C15.3566 9.16612 15.4513 9.16471 15.5458 9.15773Z" fill="#009B3A" stroke="black" stroke-width="0.07"/>
<path d="M15.2532 9.2074L15.4164 8.90845L15.1956 9.16739V9.23582L15.2574 9.20845L15.2532 9.2074Z" fill="#009B3A" stroke="black" stroke-width="0.07"/>
<path d="M15.5462 9.17653C15.4321 9.20601 15.2529 9.24495 15.1452 9.2818C15.1868 9.15969 15.2337 8.96601 15.2636 8.8418C15.2474 8.95697 15.2378 9.07294 15.2348 9.18917C15.3388 9.19124 15.4428 9.18702 15.5462 9.17653Z" fill="#009B3A" stroke="black" stroke-width="0.07"/>
<path d="M15.2164 9.27656L15.4223 8.97656L15.1599 9.21867L15.1492 9.29446L15.2164 9.27656Z" fill="#009B3A" stroke="black" stroke-width="0.07"/>
<path d="M15.5015 9.21107C15.3884 9.24581 15.2124 9.29423 15.1068 9.33949C15.142 9.21633 15.1804 9.0237 15.2039 8.89844C15.1931 9.01285 15.1888 9.12777 15.1911 9.24265C15.2951 9.23834 15.3988 9.2278 15.5015 9.21107Z" fill="#009B3A" stroke="black" stroke-width="0.07"/>
<path d="M15.173 9.31881L15.3287 8.98828L15.1068 9.27354V9.34933L15.173 9.31881Z" fill="#009B3A" stroke="black" stroke-width="0.07"/>
<path d="M15.4587 9.25661C15.3435 9.28293 15.1632 9.31556 15.0544 9.35345C15.1014 9.23345 15.1611 9.03766 15.192 8.92188C15.1706 9.03499 15.1557 9.14921 15.1472 9.26398C15.2511 9.26777 15.3551 9.26531 15.4587 9.25661Z" fill="#009B3A" stroke="black" stroke-width="0.07"/>
<path d="M15.1369 9.35074L15.3919 9.0918L15.0911 9.28338L15.0665 9.35601L15.1369 9.35074Z" fill="#009B3A" stroke="black" stroke-width="0.07"/>
<path d="M15.4071 9.29961C15.293 9.31434 15.1148 9.33118 15.006 9.35855C15.0594 9.24066 15.1255 9.05013 15.1671 8.9375C15.1391 9.05098 15.1174 9.16589 15.102 9.28171C15.2032 9.29401 15.3051 9.29999 15.4071 9.29961Z" fill="#009B3A" stroke="black" stroke-width="0.07"/>
<path d="M15.0881 9.32616L15.2619 9.00195L15.0262 9.27459V9.35143L15.0913 9.32511L15.0881 9.32616Z" fill="#009B3A" stroke="black" stroke-width="0.07"/>
<path d="M15.4211 9.26262C15.2963 9.31315 15.1011 9.38262 14.9859 9.44473C15.0243 9.29947 15.0648 9.06789 15.0926 8.92578C15.0818 9.05883 15.0782 9.19236 15.0819 9.32578C15.1962 9.31162 15.3095 9.29053 15.4211 9.26262Z" fill="#009B3A" stroke="black" stroke-width="0.07"/>
<path d="M15.0635 9.42419L15.2715 9.05261L14.9974 9.3684L14.9899 9.45577L15.0635 9.42419Z" fill="#009B3A" stroke="black" stroke-width="0.07"/>
<path d="M15.3722 9.30873C15.2506 9.36557 15.0597 9.44557 14.9456 9.51294C14.9776 9.36767 15.0074 9.13715 15.0256 8.99609C15.0208 9.12771 15.0233 9.25948 15.033 9.39083C15.1477 9.37033 15.261 9.34291 15.3722 9.30873Z" fill="#009B3A" stroke="black" stroke-width="0.07"/>
<path d="M15.0213 9.48008L15.1728 9.08008L14.9456 9.43692L14.9509 9.52324L15.0213 9.48008Z" fill="#009B3A" stroke="black" stroke-width="0.07"/>
<path d="M15.3198 9.34147C15.1982 9.39937 15.0084 9.48042 14.8932 9.552C14.9241 9.40568 14.9518 9.17621 14.97 9.03516C14.9659 9.16681 14.9691 9.29858 14.9796 9.42989C15.0947 9.40732 15.2083 9.37779 15.3198 9.34147Z" fill="#009B3A" stroke="black" stroke-width="0.07"/>
<path d="M14.987 9.52646L15.2217 9.17383L14.9262 9.46225L14.9113 9.54962L14.987 9.52646Z" fill="#009B3A" stroke="black" stroke-width="0.07"/>
<path d="M15.3068 9.3217C15.2001 9.40697 15.0273 9.53223 14.9292 9.62697C14.9292 9.4796 14.9089 9.25223 14.8972 9.11328C14.9205 9.23981 14.9512 9.36492 14.9889 9.48802C15.098 9.43867 15.2042 9.38314 15.3068 9.3217Z" fill="#009B3A" stroke="black" stroke-width="0.07"/>
<path d="M14.9997 9.54605L15.0264 9.125L14.9133 9.53553L14.9453 9.61342L14.9997 9.54605Z" fill="#009B3A" stroke="black" stroke-width="0.07"/>
<path d="M15.2775 9.36287C15.1708 9.44813 14.997 9.5734 14.8988 9.66603C14.8988 9.51866 14.8807 9.29129 14.869 9.15234C14.8919 9.2792 14.9222 9.40466 14.9596 9.52813C15.0687 9.47915 15.1749 9.42397 15.2775 9.36287Z" fill="#009B3A" stroke="black" stroke-width="0.07"/>
<path d="M14.9711 9.61771L15.0778 9.20508L14.8911 9.57981L14.9061 9.66508L14.9711 9.61771Z" fill="#009B3A" stroke="black" stroke-width="0.07"/>
<path d="M15.2664 9.36975C15.1598 9.46975 14.9998 9.61817 14.9091 9.72553C14.8931 9.57396 14.8472 9.34343 14.8206 9.19922C14.8582 9.32873 14.9034 9.45596 14.956 9.58027C15.0635 9.51604 15.1671 9.44575 15.2664 9.36975Z" fill="#009B3A" stroke="black" stroke-width="0.07"/>
<path d="M14.9715 9.66954L14.9917 9.23059L14.8851 9.65691L14.9192 9.73796L14.9715 9.66954Z" fill="#009B3A" stroke="black" stroke-width="0.07"/>
<path d="M15.2322 9.44446C15.1255 9.53393 14.9484 9.66656 14.8492 9.76025C14.8492 9.60762 14.8204 9.37183 14.8044 9.22656C14.8325 9.35826 14.8682 9.48829 14.9111 9.61604C15.0214 9.565 15.1286 9.50771 15.2322 9.44446Z" fill="#009B3A" stroke="black" stroke-width="0.07"/>
<path d="M14.9347 9.72123L15.0894 9.30859L14.8568 9.67491L14.8632 9.76544L14.9347 9.72123Z" fill="#009B3A" stroke="black" stroke-width="0.07"/>
<path d="M15.2309 9.44627C15.1338 9.55153 14.9781 9.6989 14.8927 9.80732C14.8778 9.65364 14.8341 9.41995 14.8085 9.28101C14.8445 9.40954 14.8876 9.53604 14.9375 9.65995C15.0395 9.59446 15.1374 9.52311 15.2309 9.44627Z" fill="#009B3A" stroke="black" stroke-width="0.07"/>
<path d="M14.9464 9.73958L14.9283 9.30273L14.8568 9.73747L14.8974 9.81326L14.9464 9.73958Z" fill="#009B3A" stroke="black" stroke-width="0.07"/>
<path d="M15.1838 9.47851C15.0899 9.58377 14.9395 9.73325 14.8563 9.84272C14.836 9.68904 14.787 9.45641 14.756 9.31641C14.7957 9.4451 14.8423 9.5716 14.8958 9.69535C14.9961 9.62884 15.0923 9.55643 15.1838 9.47851Z" fill="#009B3A" stroke="black" stroke-width="0.07"/>
<path d="M14.9199 9.7843L14.969 9.34009L14.8367 9.76114L14.8634 9.84746L14.9199 9.7843Z" fill="#009B3A" stroke="black" stroke-width="0.07"/>
<path d="M15.1633 9.49726C15.0769 9.60778 14.9393 9.7741 14.8646 9.89094C14.8326 9.74042 14.7654 9.51305 14.7238 9.37305C14.7732 9.49704 14.8295 9.61828 14.8923 9.7362C14.9873 9.66183 15.0777 9.58205 15.1633 9.49726Z" fill="#009B3A" stroke="black" stroke-width="0.07"/>
<path d="M14.918 9.82507L14.8892 9.38086L14.8327 9.82191L14.8732 9.89981L14.918 9.82507Z" fill="#009B3A" stroke="black" stroke-width="0.07"/>
<path d="M15.1537 9.52215C15.0726 9.63794 14.9403 9.81268 14.8742 9.93478C14.8347 9.78531 14.7547 9.55899 14.7057 9.42004C14.762 9.5423 14.825 9.66142 14.8945 9.77689C14.9858 9.69701 15.0723 9.61196 15.1537 9.52215Z" fill="#009B3A" stroke="black" stroke-width="0.07"/>
<path d="M14.9461 9.86819L14.992 9.42188L14.8629 9.84293L14.8896 9.9303L14.9461 9.86819Z" fill="#009B3A" stroke="black" stroke-width="0.07"/>
<path d="M15.1368 9.56344C15.0675 9.68975 14.9533 9.87923 14.8968 10.0119C14.8435 9.8687 14.7443 9.65502 14.6835 9.52344C14.7503 9.6373 14.8237 9.74731 14.9032 9.85291C14.9864 9.76076 15.0644 9.66412 15.1368 9.56344Z" fill="#009B3A" stroke="black" stroke-width="0.07"/>
<path d="M14.9343 9.90347L14.8085 9.48242L14.8511 9.92874L14.9077 9.9919L14.9343 9.90347Z" fill="#009B3A" stroke="black" stroke-width="0.07"/>
<path d="M15.1354 9.61317C15.0628 9.73948 14.9444 9.92896 14.8847 10.0605C14.8314 9.91738 14.73 9.70475 14.6714 9.57422C14.7392 9.68786 14.8136 9.79752 14.8943 9.90264C14.98 9.81062 15.0605 9.71398 15.1354 9.61317Z" fill="#009B3A" stroke="black" stroke-width="0.07"/>
<path d="M14.9322 9.98237L14.8864 9.53711L14.8448 9.98237L14.8896 10.0582L14.9322 9.98237Z" fill="#009B3A" stroke="black" stroke-width="0.07"/>
<path d="M15.1465 9.65209C15.0719 9.7763 14.9503 9.96788 14.8895 10.0931C14.8383 9.94893 14.7412 9.73419 14.6815 9.60156C14.746 9.71673 14.8173 9.82814 14.8948 9.93525C14.984 9.8456 15.0681 9.75106 15.1465 9.65209Z" fill="#009B3A" stroke="black" stroke-width="0.07"/>
<path d="M14.9341 10.0181L14.8488 9.57812V10.0255L14.9 10.096L14.9341 10.0181Z" fill="#009B3A" stroke="black" stroke-width="0.07"/>
<path d="M15.1091 9.71507C15.0291 9.83402 14.8957 10.014 14.8307 10.1361C14.7869 9.98875 14.7005 9.76665 14.6472 9.63086C14.7077 9.75031 14.775 9.86629 14.8488 9.97823C14.9405 9.89544 15.0274 9.80758 15.1091 9.71507Z" fill="#009B3A" stroke="black" stroke-width="0.07"/>
<path d="M14.8929 10.0674L14.9302 9.62109L14.8065 10.0421L14.8363 10.1285L14.8929 10.0674Z" fill="#009B3A" stroke="black" stroke-width="0.07"/>
<path d="M15.1144 9.72638C15.0451 9.85585 14.9331 10.0506 14.8776 10.1832C14.82 10.0422 14.7133 9.83374 14.6472 9.70532C14.7184 9.81498 14.796 9.92042 14.8797 10.0211C14.9633 9.92713 15.0416 9.82874 15.1144 9.72638Z" fill="#009B3A" stroke="black" stroke-width="0.07"/>
<path d="M14.8786 10.1046L14.7399 9.68359L14.7933 10.1268L14.853 10.1868L14.8786 10.1046Z" fill="#009B3A" stroke="black" stroke-width="0.07"/>
<path d="M15.096 9.75977C15.048 9.90187 14.9669 10.1177 14.9328 10.2598C14.8549 10.1334 14.7195 9.9524 14.6331 9.83871C14.7198 9.93209 14.8124 10.02 14.9104 10.1019C14.9781 9.99104 15.0401 9.87685 15.096 9.75977Z" fill="#009B3A" stroke="black" stroke-width="0.07"/>
<path d="M15.0012 10.1389L14.8508 9.72839L14.9169 10.1684L14.9788 10.2263L15.0012 10.1389Z" fill="#009B3A" stroke="black" stroke-width="0.07"/>
<path d="M15.094 9.80078C15.047 9.94289 14.967 10.1597 14.934 10.3029C14.855 10.1776 14.7206 9.99762 14.631 9.88183C14.7186 9.97422 14.8119 10.0611 14.9105 10.1418C14.9775 10.0313 15.0387 9.91746 15.094 9.80078Z" fill="#009B3A" stroke="black" stroke-width="0.07"/>
<path d="M15.0015 10.2104L14.8085 9.82617L14.9215 10.2472L14.9887 10.2956L15.0015 10.2104Z" fill="#009B3A" stroke="black" stroke-width="0.07"/>
<path d="M15.0801 9.83789C15.0502 9.98526 14.9969 10.2116 14.9798 10.3579C14.887 10.2453 14.7281 10.0863 14.631 9.98842C14.7288 10.069 14.8318 10.1432 14.9393 10.2105C14.9926 10.0887 15.0396 9.96437 15.0801 9.83789Z" fill="#009B3A" stroke="black" stroke-width="0.07"/>
<path d="M15.0159 10.2704L14.9093 9.83984L14.9263 10.2872L14.9807 10.3546L15.0159 10.2704Z" fill="#009B3A" stroke="black" stroke-width="0.07"/>
<path d="M15.0821 9.88281C15.0661 10.0333 15.0341 10.266 15.032 10.4091C14.9253 10.3039 14.7568 10.1723 14.6512 10.087C14.7555 10.1528 14.8642 10.2115 14.9765 10.2628C15.0192 10.1628 15.0491 9.9986 15.0821 9.88281Z" fill="#009B3A" stroke="black" stroke-width="0.07" stroke-miterlimit="10"/>
<path d="M15.0202 10.3002L14.744 9.98438L14.952 10.3612L15.0277 10.3865L15.0202 10.3002Z" fill="#009B3A" stroke="black" stroke-width="0.07"/>
<path d="M15.0872 9.9375C15.0712 10.088 15.0382 10.3207 15.035 10.4638C14.9283 10.3586 14.7608 10.2249 14.6552 10.1396C14.7578 10.2058 14.8647 10.2653 14.9752 10.3175C15.0243 10.2175 15.0542 10.0543 15.0872 9.9375Z" fill="#009B3A" stroke="black" stroke-width="0.07"/>
<path d="M15.05 10.3728L14.8367 9.99805L14.97 10.4191L15.0394 10.4644L15.05 10.3728Z" fill="#009B3A" stroke="black" stroke-width="0.07"/>
<path d="M15.0998 10C15.0902 10.1516 15.0668 10.3863 15.07 10.5337C14.9633 10.4389 14.7862 10.3116 14.6774 10.2326C14.7842 10.2927 14.8951 10.3454 15.0092 10.3905C15.0476 10.2832 15.071 10.1179 15.0998 10Z" fill="#009B3A" stroke="black" stroke-width="0.07"/>
<path d="M15.0779 10.4406L14.8165 10.1133L15.0075 10.5017L15.0821 10.5322L15.0779 10.4406Z" fill="#009B3A" stroke="black" stroke-width="0.07"/>
<path d="M15.1008 10.0684C15.0912 10.2199 15.0698 10.4547 15.0741 10.602C14.9674 10.5084 14.7893 10.382 14.6794 10.3041C14.7866 10.3635 14.8978 10.4156 15.0122 10.4599C15.0517 10.3536 15.0741 10.1873 15.1008 10.0684Z" fill="#009B3A" stroke="black" stroke-width="0.07"/>
<path d="M15.1008 10.497L14.9173 10.1055L15.024 10.5381L15.0901 10.5897L15.1008 10.497Z" fill="#009B3A" stroke="black" stroke-width="0.07"/>
<path d="M15.1094 10.1133C15.1094 10.2659 15.1158 10.5017 15.1329 10.648C15.0177 10.5691 14.83 10.467 14.7137 10.4038C14.8258 10.4486 14.9409 10.4856 15.0582 10.5143C15.087 10.4028 15.0934 10.2354 15.1094 10.1133Z" fill="#009B3A" stroke="black" stroke-width="0.07"/>
<path d="M15.1353 10.4822L14.8004 10.2559L15.0841 10.5653H15.1631L15.1353 10.4822Z" fill="#009B3A" stroke="black" stroke-width="0.07"/>
<path d="M15.1207 10.1309C15.1335 10.2824 15.1474 10.5182 15.173 10.6635C15.0535 10.5888 14.8594 10.494 14.7399 10.4361C14.8544 10.4768 14.9717 10.5095 15.0909 10.534C15.1133 10.4214 15.1111 10.253 15.1207 10.1309Z" fill="#009B3A" stroke="black" stroke-width="0.07"/>
<path d="M15.1686 10.5658L14.8891 10.25L15.1024 10.63L15.1792 10.6574L15.1686 10.5658Z" fill="#009B3A" stroke="black" stroke-width="0.07"/>
<path d="M15.1461 10.1875C15.1664 10.3391 15.1888 10.5728 15.2208 10.7138C15.0992 10.6464 14.9008 10.5633 14.7802 10.5117C14.8963 10.5456 15.0146 10.5712 15.1344 10.5886C15.1461 10.478 15.1386 10.3149 15.1461 10.1875Z" fill="#009B3A" stroke="black" stroke-width="0.07"/>
<path d="M15.226 10.6183L14.8932 10.3867L15.1737 10.7025L15.2526 10.7078L15.226 10.6183Z" fill="#009B3A" stroke="black" stroke-width="0.07"/>
<path d="M15.153 10.2539C15.1829 10.4034 15.2223 10.636 15.2597 10.7802C15.1338 10.7244 14.9322 10.6592 14.8085 10.6192C14.9264 10.642 15.0458 10.6564 15.1658 10.6623C15.1775 10.5434 15.1573 10.3771 15.153 10.2539Z" fill="#009B3A" stroke="black" stroke-width="0.07"/>
<path d="M15.2611 10.6659L14.9859 10.3438L15.1928 10.728L15.2686 10.7564L15.2611 10.6659Z" fill="#009B3A" stroke="black" stroke-width="0.07"/>
<path d="M15.1719 10.293C15.2156 10.4382 15.2786 10.6656 15.3308 10.8003C15.2007 10.7614 14.9959 10.7224 14.869 10.6951C14.9879 10.7037 15.1073 10.7037 15.2263 10.6951C15.2242 10.5793 15.1879 10.4203 15.1719 10.293Z" fill="#009B3A" stroke="black" stroke-width="0.07"/>
<path d="M15.2772 10.667L14.8932 10.5859L15.259 10.7649L15.3326 10.7375L15.2772 10.667Z" fill="#009B3A" stroke="black" stroke-width="0.07"/>
<path d="M15.1972 10.3398C15.2398 10.4851 15.3038 10.7125 15.354 10.8483C15.2249 10.8083 15.019 10.7693 14.8932 10.743C15.0121 10.7516 15.1315 10.7516 15.2505 10.743C15.2505 10.6262 15.2132 10.4619 15.1982 10.3398H15.1972Z" fill="#009B3A" stroke="black" stroke-width="0.07"/>
<path d="M15.3398 10.706L14.9718 10.5312L15.3014 10.7955L15.3803 10.7881L15.3398 10.706Z" fill="#009B3A" stroke="black" stroke-width="0.07"/>
<path d="M15.1799 10.3643C15.2524 10.497 15.3602 10.7054 15.4412 10.8264C15.3068 10.8159 15.0978 10.8264 14.9698 10.8264C15.0875 10.8078 15.2037 10.7807 15.3175 10.7454C15.2908 10.6317 15.2215 10.4791 15.181 10.3633L15.1799 10.3643Z" fill="#009B3A" stroke="black" stroke-width="0.07"/>
<path d="M15.396 10.7459L15.0141 10.6406L15.3725 10.8406L15.4482 10.8175L15.396 10.7459Z" fill="#009B3A" stroke="black" stroke-width="0.07"/>
<path d="M15.2181 10.4219C15.2917 10.5535 15.4005 10.7619 15.4815 10.8819C15.3471 10.8724 15.1381 10.8819 15.0101 10.8871C15.1276 10.8674 15.2434 10.8393 15.3567 10.8029C15.3311 10.6892 15.2597 10.5377 15.2181 10.4219Z" fill="#009B3A" stroke="black" stroke-width="0.07"/>
<path d="M15.447 10.7769L15.0907 10.5664L15.4022 10.8601H15.4822L15.447 10.7759V10.7769Z" fill="#009B3A" stroke="black" stroke-width="0.07"/>
<path d="M15.2486 10.4531C15.3339 10.5763 15.4619 10.7689 15.5526 10.8815C15.4193 10.89 15.2155 10.9258 15.0907 10.9479C15.2047 10.9128 15.3159 10.8695 15.4235 10.8184C15.3851 10.7079 15.3009 10.5647 15.2486 10.4531Z" fill="#009B3A" stroke="black" stroke-width="0.07"/>
<path d="M15.4707 10.8072L15.0867 10.7988L15.4675 10.9094L15.5347 10.8683L15.4707 10.8072Z" fill="#009B3A" stroke="black" stroke-width="0.07"/>
<path d="M15.6941 8.96909L15.9704 8.92383L15.6952 8.93014L15.6472 8.95435L15.6941 8.96909Z" fill="#009B3A" stroke="black" stroke-width="0.07"/>
<path d="M15.8462 9.02724C15.7662 9.00303 15.6446 8.96303 15.5625 8.94513C15.65 8.91039 15.7758 8.85039 15.859 8.8125C15.7982 8.85039 15.7086 8.89882 15.6606 8.93671C15.7208 8.97013 15.7828 9.00034 15.8462 9.02724Z" fill="#009B3A" stroke="black" stroke-width="0.07"/>
<path d="M15.6802 8.979L15.948 8.90637L15.6706 8.94111L15.629 8.96953L15.6802 8.979Z" fill="#009B3A" stroke="black" stroke-width="0.07"/>
<path d="M15.8598 9.04755C15.766 9.03913 15.622 9.02124 15.5302 9.02018C15.5996 8.95913 15.6977 8.85703 15.7574 8.79492C15.7094 8.85637 15.6652 8.92071 15.6252 8.98755C15.7023 9.01142 15.7807 9.03144 15.8598 9.04755Z" fill="#009B3A" stroke="black" stroke-width="0.07"/>
<path d="M15.585 8.99793L15.8634 8.96741L15.5925 8.95898L15.5423 8.98109L15.585 8.99793Z" fill="#009B3A" stroke="black" stroke-width="0.07"/>
<path d="M15.7867 9.05265C15.7014 9.03686 15.5734 9.00843 15.4859 8.99896C15.568 8.95896 15.6875 8.8937 15.7611 8.84949C15.6998 8.89102 15.6407 8.93564 15.584 8.98317C15.6384 9.0137 15.728 9.0358 15.7867 9.05265Z" fill="#009B3A" stroke="black" stroke-width="0.07"/>
<path d="M15.5595 8.99394L15.8038 8.88867L15.536 8.95815L15.504 8.99078L15.5595 8.99394Z" fill="#009B3A" stroke="black" stroke-width="0.07"/>
<path d="M15.7879 9.0892C15.7164 9.06078 15.6087 9.01131 15.5383 8.99131C15.5927 8.94183 15.6695 8.85447 15.7164 8.80078C15.677 8.85702 15.6414 8.91575 15.6098 8.97657C15.6671 9.01724 15.7265 9.05484 15.7879 9.0892Z" fill="#009B3A" stroke="black" stroke-width="0.07"/>
<path d="M15.5718 9.01465L15.7628 8.93359L15.5558 8.96201L15.5302 8.99886L15.5718 9.01465Z" fill="#009B3A" stroke="black" stroke-width="0.07"/>
<path d="M15.4148 10.7734H15.0202L15.4202 10.8703L15.4852 10.8282L15.4148 10.7734Z" fill="#009B3A" stroke="black" stroke-width="0.07"/>
<path d="M15.4837 10.7986L15.0827 10.707L15.4677 10.8933L15.5435 10.8691L15.4837 10.7986Z" fill="#009B3A" stroke="black" stroke-width="0.07"/>
<path d="M15.5511 10.8247L15.1532 10.8047L15.5511 10.9226L15.6194 10.8847L15.5511 10.8247Z" fill="#009B3A" stroke="black" stroke-width="0.07"/>
<path d="M15.2994 10.5469C15.4061 10.6595 15.5575 10.8385 15.6663 10.9385C15.533 10.9585 15.3314 11.0121 15.2077 11.0437C15.3181 10.9996 15.425 10.9476 15.5277 10.8879C15.4679 10.7827 15.3677 10.65 15.2994 10.5469Z" fill="#009B3A" stroke="black" stroke-width="0.07"/>
<path d="M15.6055 10.8413L15.2077 10.7129L15.581 10.9318L15.6589 10.916L15.6055 10.8413Z" fill="#009B3A" stroke="black" stroke-width="0.07"/>
<path d="M15.3367 10.5723C15.4497 10.6775 15.6193 10.8365 15.7356 10.9238C15.6076 10.9607 15.4156 11.0386 15.3004 11.087C15.403 11.0286 15.501 10.9628 15.5937 10.8902C15.5308 10.7912 15.4135 10.6691 15.3367 10.5723Z" fill="#009B3A" stroke="black" stroke-width="0.07"/>
<path d="M15.6377 10.8672L15.2601 10.9409L15.6579 10.9672L15.7145 10.9125L15.6377 10.8672Z" fill="#009B3A" stroke="black" stroke-width="0.07"/>
<path d="M15.5609 10.8418L15.1673 10.8713L15.5748 10.9471L15.6367 10.9007L15.5609 10.8418Z" fill="#009B3A" stroke="black" stroke-width="0.07"/>
<path d="M15.6313 10.865L15.2238 10.8008L15.6217 10.9597L15.6953 10.9303L15.6313 10.865Z" fill="#009B3A" stroke="black" stroke-width="0.07"/>
<path d="M15.6993 10.8867L15.3004 10.8941L15.7068 10.9846L15.7719 10.9415L15.6993 10.8867Z" fill="#009B3A" stroke="black" stroke-width="0.07"/>
<path d="M15.4263 10.6328C15.533 10.7381 15.7069 10.9065 15.8231 10.9981C15.6909 11.0275 15.4946 11.0939 15.373 11.1349C15.4793 11.0835 15.5816 11.0244 15.6791 10.9581C15.6183 10.8528 15.5031 10.7286 15.4263 10.6328Z" fill="#009B3A" stroke="black" stroke-width="0.07"/>
<path d="M15.7552 10.9041L15.3488 10.7988L15.7381 10.9915L15.8149 10.9704L15.7552 10.9041Z" fill="#009B3A" stroke="black" stroke-width="0.07"/>
<path d="M15.4657 10.6523C15.5863 10.746 15.7687 10.8966 15.8924 10.9755C15.7676 11.0208 15.5831 11.1113 15.4657 11.1671C15.5638 11.1021 15.6569 11.0299 15.7441 10.9513C15.6791 10.8566 15.5489 10.7439 15.4657 10.6523Z" fill="#009B3A" stroke="black" stroke-width="0.07"/>
<path d="M15.7865 10.9258L15.4153 11.0247H15.8142L15.8665 10.9668L15.7865 10.9268V10.9258Z" fill="#009B3A" stroke="black" stroke-width="0.07"/>
<path d="M16.3037 10.3743L16.0008 10.1638L15.6978 10.3743L15.812 10.0438L15.5464 9.83323H15.8877L16.0008 9.50586L16.1149 9.83639H16.4562L16.1906 10.0469L16.3037 10.3743Z" fill="#FEDF00" stroke="black" stroke-width="0.16"/>
<path d="M14.6926 10.9347L14.4078 11.1011L14.3204 10.9568C14.3072 10.9367 14.2971 10.9147 14.2905 10.8916C14.2849 10.8756 14.2849 10.8581 14.2905 10.8421C14.2988 10.8252 14.3122 10.8112 14.3289 10.8021C14.3427 10.7938 14.3586 10.7895 14.3748 10.7895C14.3909 10.7895 14.4068 10.7938 14.4206 10.8021C14.4318 10.8086 14.4419 10.8167 14.4505 10.8263C14.4492 10.8169 14.4492 10.8073 14.4505 10.7979C14.4517 10.79 14.4539 10.7822 14.4569 10.7747C14.4597 10.7671 14.4633 10.7596 14.4676 10.7526L14.5252 10.6621L14.5838 10.76L14.5252 10.8568C14.5189 10.8653 14.5146 10.875 14.5124 10.8853C14.5117 10.8941 14.514 10.903 14.5188 10.9105V10.9179L14.634 10.8505L14.6926 10.9347ZM14.4708 10.9463L14.4484 10.9095C14.443 10.9019 14.4369 10.8949 14.4302 10.8884C14.4258 10.8836 14.4197 10.8806 14.4132 10.88C14.405 10.879 14.3968 10.8811 14.3901 10.8857C14.3834 10.8904 14.3787 10.8974 14.3769 10.9053C14.3767 10.9185 14.3808 10.9314 14.3886 10.9421L14.4121 10.98L14.4708 10.9463Z" fill="black"/>
<path d="M14.2013 10.7294L14.1149 10.4726L14.1821 10.4505L14.2365 10.6115L14.2867 10.5947L14.2365 10.4452L14.3005 10.4242L14.3507 10.5737L14.4125 10.5537L14.3571 10.3884L14.4285 10.3652L14.5171 10.6263L14.2013 10.7294Z" fill="black"/>
<path d="M14.0898 10.348L14.0706 10.1817C14.065 10.1525 14.0711 10.1223 14.0876 10.0975C14.0964 10.0869 14.1072 10.0783 14.1195 10.0721C14.1318 10.066 14.1453 10.0624 14.1591 10.0617C14.1733 10.0596 14.1879 10.0604 14.2018 10.064C14.2157 10.0676 14.2288 10.074 14.2402 10.0827C14.2638 10.1059 14.2776 10.1372 14.2786 10.1701L14.285 10.2248L14.4066 10.2111L14.4183 10.3164L14.0898 10.348ZM14.2188 10.2311V10.2069C14.2186 10.1923 14.2133 10.1782 14.2039 10.1669C14.2002 10.1635 14.1958 10.161 14.191 10.1596C14.1862 10.1581 14.1811 10.1577 14.1762 10.1585C14.1666 10.1594 14.1578 10.1639 14.1516 10.1711C14.1479 10.1771 14.1455 10.1837 14.1444 10.1905C14.1433 10.1974 14.1436 10.2044 14.1452 10.2111V10.2396L14.2188 10.2311Z" fill="black"/>
<path d="M14.08 9.73417L14.0907 9.62891L14.287 9.64996C14.3058 9.65178 14.3242 9.65676 14.3414 9.6647C14.3579 9.67225 14.3725 9.68341 14.384 9.69733C14.3946 9.70994 14.4022 9.72466 14.4064 9.74048C14.4107 9.76416 14.4107 9.78839 14.4064 9.81206C14.4046 9.82941 14.4018 9.84663 14.3979 9.86364C14.3947 9.87968 14.3885 9.89502 14.3798 9.90891C14.3712 9.92135 14.3604 9.93207 14.3478 9.94049C14.3356 9.94882 14.3218 9.95455 14.3072 9.95733C14.2885 9.96 14.2695 9.96 14.2507 9.95733L14.0544 9.93627L14.0651 9.83101L14.2656 9.85206C14.2733 9.8533 14.2811 9.853 14.2886 9.85119C14.2961 9.84938 14.3032 9.8461 14.3094 9.84154C14.3202 9.83122 14.3272 9.81749 14.3289 9.80271C14.3307 9.78792 14.3271 9.773 14.319 9.76049C14.3138 9.75481 14.3076 9.75021 14.3007 9.74696C14.2937 9.7437 14.2861 9.74186 14.2784 9.74154L14.08 9.73417Z" fill="black"/>
<path d="M14.123 9.49584L14.1859 9.31794C14.1932 9.2925 14.21 9.2707 14.2329 9.25689C14.2429 9.25235 14.2538 9.25 14.2649 9.25C14.2759 9.25 14.2868 9.25235 14.2969 9.25689C14.3145 9.26263 14.3293 9.27464 14.3385 9.29058C14.3451 9.30287 14.3484 9.31665 14.3481 9.33058C14.3582 9.31308 14.374 9.29939 14.3929 9.29163C14.4108 9.28519 14.4304 9.28519 14.4483 9.29163C14.4636 9.29677 14.4772 9.30586 14.4878 9.31794C14.4981 9.32961 14.5051 9.34378 14.5081 9.359C14.5106 9.37221 14.5106 9.38579 14.5081 9.399C14.5053 9.41391 14.5017 9.42867 14.4974 9.44321L14.4387 9.60742L14.123 9.49584ZM14.2798 9.44216L14.2947 9.4011C14.2986 9.39021 14.2986 9.37832 14.2947 9.36742C14.293 9.36338 14.2904 9.35977 14.287 9.35686C14.2837 9.35394 14.2798 9.3518 14.2755 9.35058C14.2717 9.34872 14.2675 9.34775 14.2633 9.34775C14.259 9.34775 14.2548 9.34872 14.251 9.35058C14.242 9.35741 14.2356 9.36706 14.2329 9.37794L14.2179 9.42005L14.2798 9.44216ZM14.4025 9.48426L14.4195 9.43584C14.4239 9.42358 14.4239 9.4102 14.4195 9.39795C14.4177 9.39368 14.4149 9.38986 14.4114 9.38677C14.4079 9.38367 14.4038 9.38138 14.3993 9.38005C14.3953 9.3781 14.3909 9.37709 14.3865 9.37709C14.382 9.37709 14.3776 9.3781 14.3737 9.38005C14.363 9.38824 14.3555 9.39974 14.3523 9.41268L14.3353 9.4611L14.4025 9.48426Z" fill="black"/>
<path d="M14.2802 9.1015L14.3336 9.01518L14.5469 9.14255L14.629 9.00781L14.6984 9.04887L14.5629 9.26992L14.2802 9.1015Z" fill="black"/>
<path d="M14.4798 8.80446L14.546 8.72656L14.7998 8.93709L14.7337 9.01498L14.4798 8.80446Z" fill="black"/>
<path d="M14.9248 8.63124L15.0102 8.59335C15.0211 8.61353 15.0277 8.63577 15.0294 8.65861C15.0307 8.67927 15.0266 8.69991 15.0176 8.71861C15.0062 8.74057 14.9902 8.75993 14.9707 8.77545C14.9486 8.79573 14.9225 8.81115 14.8939 8.82072C14.8675 8.82862 14.8393 8.82862 14.8128 8.82072C14.7796 8.80899 14.7503 8.78818 14.7286 8.76072C14.7124 8.74448 14.6998 8.72522 14.6914 8.70406C14.6829 8.6829 14.6789 8.66028 14.6795 8.63756C14.6866 8.59905 14.7052 8.56352 14.733 8.53556C14.7608 8.50761 14.7964 8.4885 14.8352 8.48072C14.8673 8.47888 14.8991 8.48737 14.9259 8.50493L14.8704 8.57756C14.8636 8.57289 14.856 8.56934 14.848 8.56703C14.8389 8.56484 14.8294 8.56484 14.8203 8.56703C14.8109 8.56917 14.8021 8.5735 14.7947 8.57966C14.7864 8.58604 14.78 8.59445 14.7761 8.60406C14.7721 8.61367 14.7708 8.62414 14.7723 8.6344C14.7772 8.65631 14.7883 8.67639 14.8043 8.69229C14.8194 8.71388 14.841 8.73012 14.8662 8.73861C14.8831 8.74013 14.8999 8.73518 14.9132 8.7248C14.9265 8.71442 14.9352 8.69939 14.9376 8.68282C14.9379 8.66483 14.9335 8.64707 14.9248 8.63124Z" fill="black"/>
<path d="M15.2789 8.50863L15.1722 8.56231L15.184 8.61705L15.0922 8.66547L15.0464 8.31916L15.1445 8.26758L15.4101 8.4981L15.3152 8.54758L15.2789 8.50863ZM15.2266 8.456L15.1381 8.36968L15.1616 8.48968L15.2266 8.456Z" fill="black"/>
<path d="M15.5383 8.12272L15.6876 8.09745C15.7119 8.09252 15.737 8.09252 15.7612 8.09745C15.7802 8.10192 15.7978 8.11096 15.8124 8.12377C15.8274 8.13699 15.8393 8.15312 15.8476 8.17114C15.8567 8.19057 15.8632 8.2111 15.8668 8.23219C15.8721 8.25931 15.8721 8.28717 15.8668 8.31429C15.8628 8.33376 15.8544 8.35209 15.8423 8.36798C15.8319 8.38239 15.8179 8.39398 15.8018 8.40166C15.7831 8.41047 15.7634 8.41684 15.7431 8.42061L15.5938 8.44587L15.5383 8.12272ZM15.6514 8.1785L15.6823 8.35429H15.7068C15.7223 8.35259 15.7373 8.34756 15.7506 8.33956C15.7593 8.33268 15.7653 8.323 15.7676 8.31219C15.7712 8.29341 15.7712 8.27413 15.7676 8.25535C15.7665 8.23022 15.7563 8.20632 15.7388 8.18798C15.7302 8.18225 15.7203 8.17844 15.71 8.1768C15.6997 8.17517 15.6892 8.17575 15.6791 8.1785H15.6514Z" fill="black"/>
<path d="M15.9617 8.06641L16.2358 8.07799V8.14746L16.0641 8.14009V8.19167L16.223 8.19799V8.2643L16.0641 8.25799V8.3222L16.2401 8.32956V8.40325L15.9617 8.39167V8.06641Z" fill="black"/>
<path d="M16.3602 8.09766L16.4594 8.12187L16.3997 8.36081L16.5544 8.39871L16.5352 8.4766L16.2802 8.41555L16.3602 8.09766Z" fill="black"/>
<path d="M16.8934 8.27148L17.0395 8.35675C17.0668 8.36978 17.0879 8.39282 17.0982 8.42096C17.1013 8.43425 17.1016 8.44805 17.0991 8.46146C17.0965 8.47488 17.0911 8.48761 17.0833 8.49885C17.0764 8.51143 17.0669 8.52249 17.0556 8.53136C17.0442 8.54023 17.0311 8.54672 17.0171 8.55043C16.9841 8.5551 16.9506 8.54719 16.9233 8.52833L16.8753 8.49991L16.8123 8.60517L16.7238 8.55359L16.8934 8.27148ZM16.9105 8.44306L16.9318 8.45569C16.9434 8.46434 16.9577 8.4688 16.9723 8.46833C16.9773 8.46746 16.982 8.4655 16.986 8.46258C16.9901 8.45966 16.9934 8.45587 16.9958 8.45148C16.9995 8.44272 16.9995 8.43288 16.9958 8.42412C16.9958 8.41429 16.9865 8.40482 16.9681 8.39569L16.9435 8.38096L16.9105 8.44306Z" fill="black"/>
<path d="M17.1971 8.82266L17.1118 8.74477L17.0627 8.77319L16.9859 8.70266L17.3059 8.54688L17.388 8.62161L17.2504 8.94688L17.1747 8.87319L17.1971 8.82266ZM17.2302 8.75635L17.2846 8.64582L17.1779 8.70793L17.2302 8.75635Z" fill="black"/>
<path d="M17.2682 8.97433L17.5412 8.78906L17.6372 8.92801C17.6517 8.9473 17.6632 8.96858 17.6714 8.99117C17.677 9.00719 17.677 9.02461 17.6714 9.04064C17.6668 9.0524 17.6599 9.06312 17.651 9.07215C17.6421 9.08117 17.6314 9.08832 17.6197 9.09315C17.6079 9.09797 17.5952 9.10038 17.5825 9.10022C17.5697 9.10006 17.5571 9.09734 17.5455 9.09222C17.5341 9.08648 17.5236 9.07902 17.5146 9.07011C17.5214 9.08665 17.5214 9.10516 17.5146 9.12169C17.5125 9.12967 17.5096 9.13742 17.506 9.14485L17.4548 9.23854L17.3898 9.14485L17.442 9.03959C17.4476 9.03059 17.4512 9.02056 17.4527 9.01011C17.4528 9.00148 17.4502 8.99303 17.4452 8.9859V8.97854L17.3386 9.05327L17.2682 8.97433ZM17.4922 8.94696L17.5167 8.98169C17.5225 8.98891 17.5289 8.99561 17.5359 9.00169C17.5408 9.00633 17.5473 9.00897 17.554 9.00906C17.5608 9.00945 17.5676 9.0076 17.5732 9.0038C17.5773 9.00153 17.5808 8.99834 17.5834 8.9945C17.586 8.99066 17.5876 8.98628 17.5882 8.98169C17.5873 8.96846 17.5821 8.95588 17.5732 8.9459L17.5476 8.90906L17.4922 8.94696Z" fill="black"/>
<path d="M17.5912 9.43753L17.5485 9.33227L17.492 9.33753L17.4536 9.24174L17.8077 9.23438L17.8493 9.33964L17.588 9.57437L17.5485 9.47648L17.5912 9.43753ZM17.6499 9.39122L17.7469 9.31437L17.6232 9.3249L17.6499 9.39122Z" fill="black"/>
<path d="M17.7353 9.74929L17.8036 9.73876L17.8271 9.8935L17.6873 9.91455C17.6662 9.89297 17.6482 9.86851 17.634 9.84192C17.6221 9.81695 17.6142 9.79032 17.6105 9.76297C17.6042 9.73075 17.606 9.69748 17.6159 9.66613C17.6254 9.6398 17.6429 9.61701 17.666 9.60086C17.692 9.58282 17.722 9.57126 17.7535 9.56718C17.786 9.56166 17.8195 9.56456 17.8505 9.5756C17.8793 9.58606 17.9039 9.60522 17.9209 9.63034C17.9368 9.6567 17.9466 9.68616 17.9497 9.71665C17.9542 9.74349 17.9542 9.77087 17.9497 9.79771C17.9463 9.81558 17.9382 9.83226 17.9263 9.84613C17.913 9.86067 17.8966 9.87216 17.8783 9.87981L17.8463 9.78613C17.8574 9.78117 17.8664 9.77263 17.8719 9.76192C17.8757 9.74957 17.8757 9.73637 17.8719 9.72402C17.8707 9.71418 17.8673 9.70473 17.862 9.69635C17.8566 9.68797 17.8494 9.68088 17.8409 9.6756C17.8175 9.66414 17.7907 9.66116 17.7652 9.66718C17.7382 9.66871 17.7125 9.6795 17.6927 9.69771C17.686 9.70569 17.6813 9.71501 17.6787 9.72502C17.6761 9.73502 17.6758 9.74546 17.6777 9.7556C17.6792 9.76656 17.6825 9.77722 17.6873 9.78718C17.6935 9.79886 17.701 9.80981 17.7097 9.81981H17.7407L17.7353 9.74929Z" fill="black"/>
<path d="M17.9536 10.2232L17.945 10.3284L17.7488 10.3116C17.73 10.3101 17.7116 10.3055 17.6944 10.2979C17.6778 10.2904 17.6632 10.2792 17.6517 10.2653C17.6408 10.2528 17.6328 10.238 17.6282 10.2221C17.6239 10.1984 17.6239 10.1742 17.6282 10.1505C17.63 10.1332 17.6329 10.116 17.6368 10.099C17.64 10.0829 17.6462 10.0676 17.6549 10.0537C17.6634 10.0412 17.6743 10.0305 17.6869 10.0221C17.6987 10.0135 17.7121 10.0074 17.7264 10.0042C17.7451 10.0015 17.7642 10.0015 17.7829 10.0042L17.9792 10.0211L17.9706 10.1263L17.769 10.1084C17.7614 10.1072 17.7536 10.1075 17.7461 10.1093C17.7386 10.1111 17.7315 10.1144 17.7253 10.119C17.7145 10.1296 17.7078 10.1437 17.7065 10.1587C17.7051 10.1737 17.7091 10.1887 17.7178 10.2011C17.7231 10.2069 17.7295 10.2115 17.7366 10.2148C17.7438 10.218 17.7516 10.2198 17.7594 10.22L17.9536 10.2232Z" fill="black"/>
<path d="M17.5866 10.5687L17.6229 10.4635L17.576 10.4319L17.609 10.334L17.8842 10.5529L17.849 10.6582L17.496 10.6729L17.529 10.5677L17.5866 10.5687ZM17.6613 10.5687H17.7861L17.6794 10.4982L17.6613 10.5687Z" fill="black"/>
<path d="M17.7802 10.8358L17.7215 10.9316H17.5914L17.6533 11.0453L17.5957 11.141L17.4965 10.9305L17.377 10.86L17.4293 10.7737L17.5487 10.8442L17.7802 10.8358Z" fill="black"/>
<path d="M18.016 10.0003C18.016 10.2617 17.9638 10.5205 17.8624 10.762C17.7611 11.0035 17.6125 11.223 17.4252 11.4078C17.2379 11.5926 17.0155 11.7393 16.7708 11.8393C16.5261 11.9393 16.2638 11.9908 15.9989 11.9908C15.734 11.9908 15.4717 11.9393 15.227 11.8393C14.9823 11.7393 14.7599 11.5926 14.5726 11.4078C14.3853 11.223 14.2367 11.0035 14.1354 10.762C14.034 10.5205 13.9818 10.2617 13.9818 10.0003V10.0003C13.9818 9.47237 14.1944 8.96607 14.5726 8.59278C14.9509 8.21948 15.4639 8.00977 15.9989 8.00977C16.5339 8.00977 17.0469 8.21948 17.4252 8.59278C17.8035 8.96607 18.016 9.47237 18.016 10.0003V10.0003Z" stroke="black" stroke-width="0.5" stroke-linecap="round"/>
<path d="M17.547 10.0009C17.547 10.4057 17.384 10.794 17.094 11.0802C16.8039 11.3664 16.4105 11.5272 16.0003 11.5272C15.5901 11.5272 15.1967 11.3664 14.9067 11.0802C14.6166 10.794 14.4536 10.4057 14.4536 10.0009V10.0009C14.4536 9.59612 14.6166 9.2079 14.9067 8.92166C15.1967 8.63542 15.5901 8.47461 16.0003 8.47461C16.4105 8.47461 16.8039 8.63542 17.094 8.92166C17.384 9.2079 17.547 9.59612 17.547 10.0009V10.0009Z" stroke="black" stroke-width="0.6" stroke-linecap="round"/>
</g>
<defs>
<clipPath id="clip0_11_718">
<rect width="32" height="20.0003" fill="white"/>
</clipPath>
</defs>
</svg>
