<svg width="32" height="20" viewBox="0 0 32 20" fill="none" xmlns="http://www.w3.org/2000/svg">
<g clip-path="url(#clip0_11_446)">
<path d="M32 0H0V20H32V0Z" fill="#009B3A"/>
<path d="M2.71973 10.0012L15.9997 18.3697L29.2797 10.0012L15.9997 1.63281L2.71973 10.0012Z" fill="#FEDF00"/>
<path d="M21.6001 9.99973C21.6001 10.2629 21.5788 10.5155 21.5468 10.7682C21.5041 11.0734 21.4401 11.3576 21.3441 11.6418C20.6295 13.8839 18.5068 15.5155 16.0001 15.5155C12.9068 15.5155 10.4001 13.0418 10.4001 9.98921C10.4001 9.505 10.4641 9.04184 10.5815 8.59973C10.6561 8.305 10.7628 8.02078 10.8801 7.75763C11.7548 5.82078 13.7175 4.46289 16.0001 4.46289C19.0935 4.47342 21.6001 6.9471 21.6001 9.99973Z" fill="#002776"/>
<path d="M21.547 10.7697C21.5043 11.0749 21.4403 11.3591 21.3443 11.6433C19.083 9.64334 16.0857 8.42229 12.8003 8.42229C12.043 8.42229 11.2963 8.48544 10.5817 8.61176C10.6563 8.31702 10.763 8.03281 10.8803 7.76965C11.5097 7.68544 12.1497 7.63281 12.8003 7.63281C16.1283 7.63281 19.179 8.81176 21.547 10.7697Z" fill="white"/>
<path d="M13.0131 8.28425L13.4931 8.3053V8.21057L13.1091 8.20004V8.0632L13.4184 8.07372V7.97899L13.1091 7.96846V7.8632L13.4717 7.87372V7.77899L13.0131 7.75793V8.28425Z" fill="#009B3A"/>
<path d="M13.6854 8.31657L13.7814 8.3271L13.8134 7.9692L13.8881 8.33762L13.9734 8.34815L14.1121 8.00078L14.0801 8.35868L14.1761 8.3692L14.2188 7.84289L14.0801 7.83236L13.9414 8.17973L13.8668 7.81131L13.7388 7.80078L13.6854 8.31657Z" fill="#009B3A"/>
<path d="M14.7954 8.44091L15.1901 8.50407L15.2007 8.41986L14.8914 8.36723L14.9127 8.25144L15.1581 8.29354L15.1687 8.20933L14.9234 8.16723L14.9341 8.08302L15.2327 8.13565L15.2434 8.05144L14.8594 7.98828L14.7954 8.44091Z" fill="#009B3A"/>
<path d="M18.0953 9.12383L18.0656 9.19141L18.2514 9.27113L18.2812 9.20355L18.0953 9.12383Z" fill="#009B3A"/>
<path d="M18.2142 9.17663L18.1079 9.41797L18.1764 9.44735L18.2827 9.206L18.2142 9.17663Z" fill="#009B3A"/>
<path d="M19.7328 10.0847C19.7008 10.1268 19.7328 10.1794 19.7968 10.2215C19.8608 10.2636 19.9035 10.2636 19.9248 10.232C19.9888 10.1373 19.6475 10.011 19.7541 9.85308C19.8395 9.71624 19.9995 9.8215 20.0528 9.86361C20.1381 9.90571 20.1808 10.0005 20.1381 10.0952C20.1381 10.0952 20.1381 10.1057 20.1275 10.1057L20.0315 10.0426C20.0635 10.0005 20.0315 9.94782 19.9781 9.91624C19.9248 9.88466 19.8821 9.87413 19.8608 9.91624C19.8075 9.98992 20.1381 10.1268 20.0421 10.2847C19.9675 10.4005 19.8395 10.3478 19.7541 10.2952C19.6688 10.2426 19.5728 10.1373 19.6368 10.032L19.7328 10.0847Z" fill="#009B3A"/>
<path d="M18.9647 9.83035L19.3807 10.0619L19.4341 9.97771L19.0927 9.78824L19.1567 9.67245L19.4234 9.81982L19.4661 9.73561L19.1994 9.58824L19.2527 9.4935L19.5727 9.67245L19.6261 9.58824L19.2314 9.36719L18.9647 9.83035Z" fill="#009B3A"/>
<path d="M20.3095 10.4636C20.2775 10.5057 20.3095 10.5584 20.3629 10.6005C20.4162 10.6426 20.4695 10.6426 20.4909 10.6215C20.5549 10.5373 20.2242 10.3899 20.3415 10.232C20.4375 10.1057 20.5869 10.211 20.6402 10.2531C20.7255 10.2952 20.7575 10.4005 20.7149 10.4847C20.7149 10.4847 20.7149 10.4952 20.7042 10.4952L20.6082 10.432C20.6402 10.3899 20.6082 10.3373 20.5655 10.3057C20.5229 10.2741 20.4802 10.2531 20.4482 10.2952C20.3949 10.3689 20.7149 10.5268 20.6082 10.6741C20.5229 10.7899 20.4055 10.7268 20.3202 10.6741C20.2349 10.6215 20.1495 10.5057 20.2242 10.4005L20.3095 10.4636Z" fill="#009B3A"/>
<path d="M11.4347 8.09381C11.4027 7.96749 11.2747 7.88328 11.1467 7.91486C11.0187 7.94644 10.9334 8.07276 10.9654 8.19907C10.9974 8.31486 11.104 8.39907 11.232 8.37802C11.36 8.35697 11.456 8.23065 11.4347 8.09381ZM11.1894 7.95697C11.3707 7.95697 11.3707 8.27276 11.1894 8.27276C11.008 8.27276 11.008 7.95697 11.1894 7.95697Z" fill="#009B3A"/>
<path d="M21.2585 10.9782C21.3118 10.8519 21.2478 10.715 21.1198 10.6729C20.9918 10.6203 20.8531 10.6834 20.8105 10.8098C20.7678 10.9255 20.8105 11.0519 20.9278 11.1045C21.0451 11.1571 21.1945 11.1045 21.2585 10.9782ZM21.1305 10.7361C21.2798 10.8413 21.0985 11.1045 20.9491 10.9992C20.7998 10.894 20.9811 10.6413 21.1305 10.7361Z" fill="#009B3A"/>
<path d="M12.7676 7.86427C12.7249 7.81164 12.6609 7.76953 12.5862 7.76953H12.3196L12.3302 8.29585C12.3302 8.29585 12.5436 8.29585 12.5969 8.29585C12.6609 8.28532 12.7249 8.25374 12.7676 8.20111C12.7996 8.14848 12.8102 8.09585 12.8102 8.03269C12.8209 7.98006 12.7996 7.9169 12.7676 7.86427ZM12.5542 8.20111H12.4262V7.87479H12.5862C12.6502 7.87479 12.6929 7.9169 12.7142 7.96953C12.7142 8.00111 12.7249 8.03269 12.7249 8.06427C12.7249 8.10637 12.7036 8.13795 12.6716 8.16953C12.6396 8.19058 12.5969 8.20111 12.5542 8.20111Z" fill="#009B3A"/>
<path d="M12.0424 8.09433C12.0744 8.06275 12.1064 8.02064 12.1171 7.97854C12.1278 7.8838 12.0638 7.79959 11.9784 7.78906H11.9678C11.9144 7.78906 11.6371 7.81011 11.6371 7.81011L11.6691 8.33643L11.7651 8.3259L11.7544 8.13643L11.9251 8.1259H11.9678C11.9998 8.16801 12.0104 8.22064 12.0318 8.26275C12.0318 8.2838 12.0318 8.30485 12.0318 8.3259H12.1278C12.1278 8.27327 12.1171 8.22064 12.1064 8.17854C12.0744 8.14696 12.0638 8.11538 12.0424 8.09433ZM11.9784 8.01011C11.9571 8.02064 11.9251 8.03117 11.9038 8.03117L11.7331 8.04169L11.7224 7.90485C11.7438 7.90485 11.8824 7.89433 11.8824 7.89433H11.9358C11.9464 7.89433 11.9678 7.90485 11.9784 7.91538C11.9891 7.9259 11.9998 7.94696 11.9998 7.95748C12.0104 7.97854 11.9998 7.99959 11.9784 8.01011Z" fill="#009B3A"/>
<path d="M17.6746 8.89445C17.6746 8.76813 17.5786 8.65234 17.4399 8.65234C17.3119 8.65234 17.1946 8.74708 17.1946 8.88392C17.1946 9.01024 17.2799 9.10498 17.3972 9.12603C17.5359 9.12603 17.6639 9.03129 17.6746 8.89445ZM17.4826 8.70498C17.6532 8.74708 17.5786 9.06287 17.3972 9.01024C17.2159 8.95761 17.3012 8.65234 17.4826 8.70498Z" fill="#009B3A"/>
<path d="M16.9066 8.68415C16.9493 8.6631 16.992 8.64205 17.0133 8.59994C17.056 8.51573 17.024 8.42099 16.9386 8.37889H16.928C16.8746 8.35784 16.608 8.29468 16.608 8.29468L16.4586 8.79994L16.5546 8.82099L16.608 8.63152L16.7786 8.67362L16.8213 8.68415C16.832 8.73678 16.832 8.77889 16.832 8.83152C16.832 8.85257 16.8213 8.87362 16.8213 8.88415L16.9173 8.91573C16.9386 8.8631 16.9493 8.82099 16.9386 8.76836C16.928 8.74731 16.9173 8.71573 16.9066 8.68415ZM16.8746 8.58941C16.8426 8.58941 16.8213 8.58941 16.7893 8.57889L16.6293 8.53678L16.6613 8.41047C16.6826 8.42099 16.8106 8.45257 16.8106 8.45257L16.864 8.4631C16.8746 8.47362 16.8853 8.48415 16.896 8.49468C16.9066 8.5052 16.9066 8.52626 16.9066 8.54731C16.9173 8.56836 16.896 8.57889 16.8746 8.58941Z" fill="#009B3A"/>
<path d="M18.8481 9.46402C18.8908 9.4535 18.9228 9.42192 18.9548 9.39034C18.9975 9.31665 18.9761 9.21139 18.9015 9.15876C18.8481 9.13771 18.5921 9.04297 18.5921 9.04297L18.4001 9.53771L18.4961 9.56928L18.5601 9.37981L18.7201 9.44297L18.7628 9.4535C18.7735 9.50613 18.7735 9.55876 18.7628 9.60086C18.7521 9.62192 18.7521 9.63244 18.7415 9.65349L18.8268 9.6956C18.8481 9.65349 18.8588 9.60086 18.8695 9.54823C18.8588 9.52718 18.8588 9.4956 18.8481 9.46402ZM18.8268 9.35876C18.7948 9.35876 18.7735 9.35876 18.7415 9.33771L18.5921 9.28507L18.6348 9.15876C18.6561 9.16928 18.7841 9.21139 18.7841 9.21139L18.8375 9.23244C18.8481 9.24297 18.8588 9.25349 18.8695 9.26402C18.8801 9.27455 18.8801 9.2956 18.8695 9.31665C18.8588 9.33771 18.8481 9.35876 18.8268 9.35876Z" fill="#009B3A"/>
<path d="M16.2559 8.51579C16.2986 8.49474 16.3413 8.46316 16.3626 8.43158C16.4053 8.34737 16.3626 8.25263 16.2879 8.21052H16.2773C16.2239 8.2 15.9573 8.13684 15.9573 8.13684L15.8186 8.6421L15.9146 8.66316L15.9573 8.47368L16.1279 8.51579L16.1706 8.52631L16.2559 8.51579ZM16.2239 8.41052C16.1919 8.41052 16.1706 8.41053 16.1386 8.4L15.9786 8.35789L16.0106 8.22105C16.0319 8.23158 16.1599 8.25263 16.1599 8.25263L16.2133 8.26316C16.2239 8.27368 16.2453 8.28421 16.2453 8.29474C16.2559 8.30526 16.2559 8.32631 16.2559 8.34737C16.2559 8.38947 16.2346 8.41052 16.2239 8.41052Z" fill="#009B3A"/>
<path d="M18.2286 9.17768C18.218 9.16715 18.1966 9.16715 18.186 9.16715C18.154 9.24084 18.0686 9.28294 17.994 9.25136C17.9833 9.25136 17.9833 9.25136 17.9726 9.24084C17.8233 9.13557 18.0046 8.87242 18.154 8.97768C18.186 8.99873 18.2073 9.03031 18.2073 9.07242C18.2286 9.08294 18.25 9.08294 18.2713 9.09347L18.3033 9.104C18.314 9.00926 18.2606 8.91452 18.1753 8.87242C18.0473 8.78821 17.8873 8.83031 17.802 8.9461C17.7166 9.07242 17.7593 9.23031 17.8766 9.31452C18.0046 9.39873 18.1646 9.35663 18.25 9.24084C18.25 9.23031 18.2606 9.23031 18.2606 9.21978L18.2713 9.19873L18.2286 9.17768Z" fill="#009B3A"/>
<path d="M17.9515 8.21106L17.8235 8.29527L17.8768 8.43211L17.7595 8.3479L17.6422 8.43211L17.6848 8.29527L17.5675 8.21106H17.7062L17.7595 8.07422L17.8022 8.21106H17.9515Z" fill="white"/>
<path d="M11.2006 8.93795L11.3392 9.03269L11.2859 9.20111L11.4246 9.09585L11.5739 9.20111L11.5206 9.03269L11.6592 8.93795H11.4886L11.4246 8.76953L11.3712 8.93795H11.2006Z" fill="white"/>
<path d="M17.376 9.67438L17.472 9.74807L17.44 9.85333L17.536 9.79017L17.632 9.85333L17.5893 9.74807L17.696 9.67438H17.568L17.536 9.55859L17.4933 9.67438H17.376Z" fill="white"/>
<path d="M12.374 10.9694L12.438 11.0115L12.406 11.0852L12.47 11.0431L12.5234 11.0852L12.502 11.0115L12.566 10.9694H12.4914L12.47 10.9062L12.4487 10.9694H12.374Z" fill="white"/>
<path d="M11.9246 11.0938L11.8712 11.2516H11.7006L11.8392 11.3569L11.7859 11.5253L11.9246 11.4201L12.0632 11.5253L12.0099 11.3569L12.1486 11.2516H11.9779L11.9246 11.0938Z" fill="white"/>
<path d="M11.0514 11.7697L11.1687 11.8539L11.1261 11.9907L11.2434 11.9065L11.3607 11.9907L11.3074 11.8539L11.4247 11.7697H11.2861L11.2434 11.6328L11.1901 11.7697H11.0514Z" fill="white"/>
<path d="M13.6854 10.1576L13.8028 10.2418L13.7494 10.3786L13.8668 10.2944L13.9841 10.3786L13.9414 10.2418L14.0588 10.1576H13.9094L13.8668 10.0312L13.8241 10.1576H13.6854Z" fill="white"/>
<path d="M12.9285 11.8099L13.0351 11.8836L12.9925 12.0099L13.0991 11.9362L13.2058 12.0099L13.1631 11.8836L13.2698 11.8099H13.1418L13.0991 11.6836L13.0671 11.8099H12.9285Z" fill="white"/>
<path d="M12.7682 12.3895L12.8749 12.4632L12.8322 12.5684L12.9282 12.5053L13.0242 12.5684L12.9922 12.4632L13.0882 12.3895H12.9709L12.9282 12.2737L12.8962 12.3895H12.7682Z" fill="white"/>
<path d="M13.5251 12.8325L13.6745 12.9272L13.6105 13.0956L13.7598 12.9904L13.8985 13.0956L13.8451 12.9272L13.9838 12.8325H13.8131L13.7598 12.6641L13.7065 12.8325H13.5251Z" fill="white"/>
<path d="M15.8075 10.8419L15.9248 10.9261L15.8822 11.063L15.9995 10.9788L16.1168 11.063L16.0742 10.9261L16.1915 10.8419H16.0422L15.9995 10.7051L15.9568 10.8419H15.8075Z" fill="white"/>
<path d="M15.2751 11.3463L15.3711 11.4094L15.3391 11.5252L15.4351 11.4515L15.5311 11.5252L15.4991 11.4094L15.5951 11.3463H15.4671L15.4351 11.2305L15.3925 11.3463H15.2751Z" fill="white"/>
<path d="M15.616 11.726L15.68 11.7681L15.6586 11.8313L15.712 11.7892L15.776 11.8313L15.7546 11.7681L15.808 11.726H15.7333L15.712 11.6523L15.6906 11.726H15.616Z" fill="white"/>
<path d="M16.4586 11.3263L16.576 11.4105L16.5333 11.5473L16.6506 11.4631L16.768 11.5473L16.7253 11.4105L16.8426 11.3263H16.6933L16.6506 11.1895L16.5973 11.3263H16.4586Z" fill="white"/>
<path d="M15.7762 12.4316L15.9149 12.5368L15.8616 12.6947L16.0002 12.6L16.1389 12.6947L16.0856 12.5368L16.2242 12.4316H16.0536L16.0002 12.2737L15.9469 12.4316H15.7762Z" fill="white"/>
<path d="M15.9254 14.2947L15.9681 14.3263L15.9467 14.3789L16.0001 14.3473L16.0427 14.3789L16.0214 14.3263L16.0641 14.2947H16.0107L16.0001 14.2421L15.9787 14.2947H15.9254Z" fill="white"/>
<path d="M17.0776 13.0533L17.1736 13.1164L17.131 13.2322L17.2376 13.1691L17.3336 13.2322L17.291 13.1164L17.387 13.0533H17.2696L17.2376 12.9375L17.195 13.0533H17.0776Z" fill="white"/>
<path d="M17.4829 13.6527L17.6002 13.7474L17.5576 13.8843L17.6749 13.8001L17.7922 13.8843L17.7496 13.7474L17.8669 13.6527H17.7176L17.6749 13.5159L17.6322 13.6527H17.4829Z" fill="white"/>
<path d="M18.2183 13.2414L18.3143 13.1783H18.197L18.1543 13.0625L18.1223 13.1783H18.005L18.101 13.2414L18.0583 13.3572L18.1543 13.2941L18.2503 13.3572L18.2183 13.2414Z" fill="white"/>
<path d="M18.624 12.9881L18.72 13.0618L18.688 13.1775L18.784 13.1039L18.88 13.1775L18.8374 13.0618L18.944 12.9881H18.816L18.784 12.8828L18.7414 12.9881H18.624Z" fill="white"/>
<path d="M18.6028 13.5157L18.7201 13.6L18.6775 13.7368L18.7948 13.6526L18.9121 13.7368L18.8694 13.6L18.9868 13.5157H18.8375L18.7948 13.3789L18.7521 13.5157H18.6028Z" fill="white"/>
<path d="M18.6562 14.0943L18.7523 14.1575L18.7096 14.2733L18.8056 14.2101L18.9123 14.2733L18.8696 14.1575L18.9656 14.0943H18.8483L18.8056 13.9785L18.7736 14.0943H18.6562Z" fill="white"/>
<path d="M19.2107 13.0943L19.3067 13.1575L19.264 13.2733L19.3707 13.1996L19.4667 13.2733L19.424 13.1575L19.52 13.0943H19.4027L19.3707 12.9785L19.328 13.0943H19.2107Z" fill="white"/>
<path d="M19.626 12.8114L19.7433 12.8956L19.69 13.0325L19.818 12.9483L19.9353 13.0325L19.882 12.8956L20.01 12.8114H19.8606L19.818 12.6641L19.7646 12.8114L19.626 12.8009" fill="white"/>
<path d="M19.9567 12.379L20.074 12.4632L20.0313 12.6001L20.1487 12.5159L20.266 12.6001L20.2233 12.4632L20.3407 12.379H20.1913L20.1487 12.2422L20.106 12.379H19.9567Z" fill="white"/>
<path d="M19.6906 11.8637L19.8399 11.969L19.7759 12.1269L19.9252 12.0216L20.0639 12.1269L20.0106 11.969L20.1492 11.8637H19.9786L19.9252 11.6953L19.8719 11.8637H19.6906Z" fill="white"/>
<path d="M20.5433 11.9478L20.65 12.011L20.6073 12.1268L20.7033 12.0636L20.7993 12.1268L20.7673 12.011L20.8633 11.9478H20.746L20.7033 11.832L20.6713 11.9478H20.5433Z" fill="white"/>
</g>
<defs>
<clipPath id="clip0_11_446">
<rect width="32" height="20" fill="white"/>
</clipPath>
</defs>
</svg>
