<svg width="32" height="20" viewBox="0 0 32 20" fill="none" xmlns="http://www.w3.org/2000/svg">
<g clip-path="url(#clip0_11_348)">
<path d="M32 0H0V20H32V0Z" fill="#74ACDF"/>
<path d="M32 6.66406H0V13.3272H32V6.66406Z" fill="white"/>
<path d="M15.5912 11.2139C16.2421 11.2139 16.7697 10.6764 16.7697 10.0134C16.7697 9.35035 16.2421 8.81287 15.5912 8.81287C14.9403 8.81287 14.4127 9.35035 14.4127 10.0134C14.4127 10.6764 14.9403 11.2139 15.5912 11.2139Z" fill="#F6B40E"/>
<path d="M14.4463 8.3856C14.5597 8.74344 14.7523 8.8127 14.8656 9.06665C14.9223 9.02048 14.9789 8.98585 15.0356 8.95122C14.8769 8.70881 14.6616 8.58184 14.571 8.29326C14.469 7.94696 14.2084 7.83153 14.1064 7.71609C14.0157 7.60066 14.0724 7.48523 14.0157 7.48523C13.9704 7.48523 13.9251 7.62375 14.0384 7.7969C14.1517 7.9585 14.3104 7.9585 14.4463 8.3856Z" fill="#F6B40E"/>
<path d="M14.6963 9.22702C14.7416 9.16931 14.7869 9.12314 14.8436 9.07696L13.5858 7.88801C13.5858 7.88801 13.5518 7.85338 13.5178 7.87647C13.4951 7.89955 13.5291 7.94573 13.5291 7.94573L14.6963 9.22702Z" fill="#F6B40E"/>
<path d="M15.0583 8.9384C15.115 8.90377 15.1829 8.88068 15.2396 8.8576L14.5257 7.26463C14.5257 7.26463 14.503 7.21846 14.469 7.23C14.4351 7.24155 14.4577 7.29926 14.4577 7.29926L15.0583 8.9384Z" fill="#F6B40E"/>
<path d="M15.1371 8.06189C15.1031 8.44282 15.2504 8.56979 15.2731 8.84683C15.3411 8.82375 15.409 8.8122 15.477 8.80066C15.4204 8.52362 15.2731 8.31584 15.2957 8.01572C15.3184 7.64634 15.1371 7.4501 15.0918 7.30004C15.0464 7.16152 15.1371 7.06917 15.1031 7.05763C15.0691 7.04609 14.9671 7.14998 15.0011 7.34621C15.0351 7.54245 15.1711 7.62325 15.1371 8.06189Z" fill="#F6B40E"/>
<path d="M12.9614 9.56365C13.154 9.60982 13.2673 9.49439 13.6526 9.70217C13.9812 9.87532 14.1625 9.78297 14.4231 9.87532C14.4345 9.80606 14.4458 9.72525 14.4685 9.66754C14.1852 9.60982 13.9472 9.67908 13.6866 9.54056C13.3693 9.36741 13.1087 9.48285 12.9614 9.4713C12.814 9.45976 12.78 9.33278 12.7461 9.36741C12.7007 9.3905 12.7687 9.51748 12.9614 9.56365Z" fill="#F6B40E"/>
<path d="M13.3358 8.5691C13.4944 8.68453 13.6417 8.62682 13.925 8.96157C14.163 9.25015 14.3669 9.23861 14.5709 9.4233C14.6049 9.35404 14.6502 9.29633 14.6956 9.23861C14.4576 9.077 14.2083 9.04237 14.0157 8.81151C13.789 8.53447 13.5057 8.52293 13.3698 8.46521C13.2451 8.39595 13.2451 8.26898 13.1998 8.28052C13.1545 8.30361 13.1658 8.44213 13.3358 8.5691Z" fill="#F6B40E"/>
<path d="M12.9053 8.90572L14.4691 9.63295C14.4917 9.56369 14.5144 9.50597 14.5484 9.43671L12.928 8.82492C12.928 8.82492 12.8826 8.80183 12.86 8.83646C12.86 8.88264 12.9053 8.90572 12.9053 8.90572Z" fill="#F6B40E"/>
<path d="M18.1974 9.37793C18.0047 9.41256 17.9367 9.56262 17.5061 9.52799C17.1435 9.49336 17.0076 9.64342 16.7356 9.66651C16.7583 9.73577 16.7696 9.80503 16.7809 9.87429C17.0529 9.81657 17.2568 9.66651 17.5515 9.68959C17.9141 9.71268 18.1067 9.51645 18.254 9.47027C18.39 9.4241 18.4807 9.51645 18.492 9.48182C18.5033 9.44719 18.39 9.35484 18.1974 9.37793Z" fill="#F6B40E"/>
<path d="M16.7239 9.64301L18.2876 8.91579C18.2876 8.91579 18.3329 8.8927 18.3216 8.85807C18.3103 8.82344 18.2536 8.84653 18.2536 8.84653L16.6445 9.45832C16.6785 9.50449 16.7125 9.57375 16.7239 9.64301Z" fill="#F6B40E"/>
<path d="M14.4238 10.0007C14.4238 9.96611 14.4238 9.93148 14.4238 9.89685L12.7014 9.96611C12.7014 9.96611 12.6448 9.96611 12.6448 10.0007C12.6448 10.0354 12.7014 10.0354 12.7014 10.0354L14.4238 10.1046C14.4238 10.07 14.4238 10.0354 14.4238 10.0007Z" fill="#F6B40E"/>
<path d="M17.1879 8.82328C16.8366 8.93871 16.7686 9.13495 16.5193 9.25038C16.5646 9.30809 16.5986 9.36581 16.6326 9.42353C16.8706 9.26192 16.9952 9.0426 17.2785 8.95025C17.6185 8.84637 17.7318 8.58087 17.8451 8.47698C17.9584 8.38464 18.0717 8.44235 18.0717 8.38464C18.0717 8.32692 17.9357 8.29229 17.7658 8.40772C17.5958 8.52315 17.6071 8.68476 17.1879 8.82328Z" fill="#F6B40E"/>
<path d="M15.7268 8.80027C15.7948 8.81182 15.8741 8.82336 15.9308 8.84645C15.9874 8.55786 15.9194 8.31546 16.0554 8.04996C16.2254 7.72675 16.1234 7.46126 16.1347 7.3112C16.1461 7.16113 16.2594 7.11496 16.2367 7.08033C16.2027 7.0457 16.0781 7.11496 16.0328 7.3112C15.9874 7.50743 16.1007 7.62286 15.8968 8.01533C15.7268 8.36163 15.8175 8.54632 15.7268 8.80027Z" fill="#F6B40E"/>
<path d="M15.6023 8.80057C15.6363 8.80057 15.6703 8.80057 15.7043 8.80057L15.6363 7.046C15.6363 7.046 15.6363 6.98828 15.6023 6.98828C15.5683 6.98828 15.5683 7.046 15.5683 7.046L15.489 8.80057C15.5343 8.80057 15.5683 8.80057 15.6023 8.80057Z" fill="#F6B40E"/>
<path d="M16.508 9.22702L17.6752 7.94573C17.6752 7.94573 17.7092 7.9111 17.6865 7.87647C17.6639 7.85338 17.6185 7.88801 17.6185 7.88801L16.3607 9.07696C16.4174 9.12314 16.4627 9.16931 16.508 9.22702Z" fill="#F6B40E"/>
<path d="M16.6212 8.29212C16.3379 8.53453 16.3493 8.74231 16.168 8.95009C16.236 8.98472 16.2926 9.03089 16.3493 9.07706C16.5079 8.83466 16.5419 8.58071 16.7685 8.38447C17.0405 8.15361 17.0518 7.86503 17.1085 7.72651C17.1765 7.58799 17.3011 7.59953 17.2898 7.55336C17.2785 7.50719 17.1312 7.51873 17.0178 7.69188C16.8932 7.85348 16.9612 8.00354 16.6212 8.29212Z" fill="#F6B40E"/>
<path d="M16.1458 8.9392L16.7464 7.28852C16.7464 7.28852 16.769 7.24235 16.735 7.21926C16.701 7.20772 16.6784 7.25389 16.6784 7.25389L15.9645 8.84685C16.0211 8.86994 16.0891 8.90457 16.1458 8.9392Z" fill="#F6B40E"/>
<path d="M16.0668 11.939C16.1007 11.5696 15.9534 11.4311 15.9308 11.1541C15.8628 11.1771 15.7948 11.1887 15.7268 11.2002C15.7835 11.4773 15.9308 11.685 15.9081 11.9852C15.8854 12.3545 16.0781 12.5508 16.1121 12.7008C16.1574 12.8394 16.0668 12.9317 16.1007 12.9433C16.1461 12.9548 16.2367 12.8509 16.2027 12.6547C16.1687 12.4584 16.0328 12.3776 16.0668 11.939Z" fill="#F6B40E"/>
<path d="M17.8683 11.4321C17.7097 11.3166 17.5624 11.3859 17.2791 11.0396C17.0411 10.751 16.8372 10.7626 16.6332 10.5779C16.5992 10.6471 16.5539 10.7049 16.5085 10.7626C16.7465 10.9242 16.9958 10.9588 17.1884 11.1897C17.4151 11.4667 17.6984 11.4783 17.8343 11.536C17.959 11.6052 17.959 11.7322 18.0043 11.7207C18.0496 11.7091 18.027 11.5591 17.8683 11.4321Z" fill="#F6B40E"/>
<path d="M16.7572 11.6167C16.6439 11.2589 16.4513 11.1896 16.3379 10.9357C16.2813 10.9818 16.2246 11.0165 16.168 11.0511C16.3266 11.2935 16.5419 11.4205 16.6326 11.7091C16.7345 12.0554 16.9952 12.1708 17.0972 12.2862C17.1991 12.4017 17.1312 12.5171 17.1878 12.5171C17.2331 12.5171 17.2785 12.3786 17.1652 12.2054C17.0518 12.0323 16.8932 12.0438 16.7572 11.6167Z" fill="#F6B40E"/>
<path d="M16.1458 11.062C16.0891 11.0966 16.0211 11.1197 15.9645 11.1428L16.6784 12.7358C16.6784 12.7358 16.701 12.782 16.735 12.7704C16.769 12.7589 16.7464 12.7012 16.7464 12.7012L16.1458 11.062Z" fill="#F6B40E"/>
<path d="M16.508 10.775C16.4627 10.8327 16.4174 10.8789 16.3607 10.9251L17.6185 12.114C17.6185 12.114 17.6525 12.1487 17.6865 12.1256C17.7092 12.1025 17.6752 12.0563 17.6752 12.0563L16.508 10.775Z" fill="#F6B40E"/>
<path d="M18.5029 9.95537L16.7805 9.88611C16.7805 9.92074 16.7805 9.95537 16.7805 10.0015C16.7805 10.0362 16.7805 10.0708 16.7805 10.1054L18.5029 10.0362C18.5029 10.0362 18.5596 10.0362 18.5596 10.0015C18.5482 9.95537 18.5029 9.95537 18.5029 9.95537Z" fill="#F6B40E"/>
<path d="M18.2995 11.0975L16.7357 10.3702C16.713 10.4395 16.6904 10.4972 16.6564 10.5549L18.2768 11.1667C18.2768 11.1667 18.3221 11.1898 18.3448 11.1552C18.3448 11.1205 18.2995 11.0975 18.2995 11.0975Z" fill="#F6B40E"/>
<path d="M18.2427 10.4398C18.0501 10.3937 17.9367 10.5091 17.5515 10.3013C17.2229 10.1282 17.0415 10.2205 16.7809 10.1282C16.7696 10.1974 16.7583 10.2782 16.7356 10.336C17.0189 10.3937 17.2568 10.3244 17.5175 10.4629C17.8348 10.6361 18.0954 10.5322 18.2427 10.5437C18.39 10.5553 18.424 10.6822 18.4693 10.6476C18.5033 10.613 18.4353 10.486 18.2427 10.4398Z" fill="#F6B40E"/>
<path d="M14.582 11.7099C14.8653 11.4675 14.854 11.2597 15.0353 11.0519C14.9673 11.0173 14.9106 10.9711 14.854 10.9249C14.6953 11.1673 14.6613 11.4213 14.4347 11.6175C14.1627 11.8484 14.1514 12.137 14.0947 12.2755C14.0268 12.4025 13.9021 12.4025 13.9134 12.4486C13.9248 12.4948 14.0721 12.4833 14.1854 12.3101C14.31 12.1485 14.2421 11.9984 14.582 11.7099Z" fill="#F6B40E"/>
<path d="M14.0147 11.1783C14.366 11.0628 14.434 10.8666 14.6833 10.7512C14.638 10.6934 14.604 10.6357 14.57 10.578C14.332 10.7396 14.2074 10.9589 13.9241 11.0513C13.5841 11.1552 13.4708 11.4207 13.3575 11.5245C13.2442 11.6169 13.1309 11.5707 13.1309 11.6169C13.1309 11.6631 13.2668 11.7092 13.4368 11.6054C13.6068 11.4784 13.5955 11.3168 14.0147 11.1783Z" fill="#F6B40E"/>
<path d="M14.4799 10.3595L12.9162 11.0867C12.9162 11.0867 12.8709 11.1098 12.8822 11.1444C12.8935 11.1791 12.9502 11.156 12.9502 11.156L14.5593 10.5442C14.5253 10.498 14.4913 10.4288 14.4799 10.3595Z" fill="#F6B40E"/>
<path d="M15.6017 11.2012C15.5677 11.2012 15.5338 11.2012 15.4998 11.2012L15.5677 12.9557C15.5677 12.9557 15.5677 13.0135 15.6017 13.0135C15.6357 13.0135 15.6357 12.9557 15.6357 12.9557L15.7037 11.2012C15.6697 11.2012 15.6357 11.2012 15.6017 11.2012Z" fill="#F6B40E"/>
<path d="M14.6963 10.775L13.5291 12.0563C13.5291 12.0563 13.4951 12.091 13.5178 12.1256C13.5405 12.1487 13.5858 12.114 13.5858 12.114L14.8436 10.9251C14.7869 10.8789 14.7416 10.8327 14.6963 10.775Z" fill="#F6B40E"/>
<path d="M15.4773 11.2002C15.4093 11.1887 15.33 11.1771 15.2733 11.1541C15.2166 11.4426 15.2846 11.685 15.1487 11.9505C14.9787 12.2737 15.092 12.5392 15.0693 12.6893C15.058 12.8394 14.9447 12.874 14.9673 12.9202C15.0013 12.9548 15.126 12.8855 15.1713 12.6893C15.2166 12.4931 15.1033 12.3776 15.3073 11.9852C15.4773 11.6389 15.3866 11.4542 15.4773 11.2002Z" fill="#F6B40E"/>
<path d="M15.0583 11.062L14.4577 12.7127C14.4577 12.7127 14.4351 12.7589 14.469 12.782C14.503 12.7935 14.5257 12.7473 14.5257 12.7473L15.2396 11.1544C15.1829 11.1313 15.115 11.0966 15.0583 11.062Z" fill="#F6B40E"/>
<path d="M13.0065 10.6245C13.1991 10.5899 13.2671 10.4398 13.6977 10.4745C14.0603 10.5091 14.1963 10.359 14.4682 10.336C14.4456 10.2667 14.4342 10.1974 14.4229 10.1282C14.151 10.1859 13.947 10.336 13.6524 10.3129C13.2897 10.2898 13.0971 10.486 12.9498 10.5206C12.8138 10.5668 12.7232 10.4745 12.7118 10.5091C12.7005 10.5437 12.8138 10.6476 13.0065 10.6245Z" fill="#F6B40E"/>
<path d="M18.5035 9.93213L16.9057 9.87442C16.9737 9.85133 17.0304 9.83979 17.087 9.8167C17.2344 9.75898 17.3703 9.71281 17.5516 9.72435C17.8236 9.74744 18.0049 9.64355 18.1409 9.57429C18.1862 9.55121 18.2315 9.52812 18.2655 9.51658C18.3449 9.49349 18.4015 9.51658 18.4355 9.52812C18.4695 9.53966 18.5035 9.55121 18.5262 9.51658C18.5375 9.49349 18.5262 9.4704 18.5148 9.45886C18.4695 9.40114 18.3675 9.36651 18.2202 9.3896C18.1522 9.40114 18.0956 9.42423 18.0389 9.44732C17.9369 9.49349 17.8123 9.55121 17.529 9.52812C17.3023 9.50503 17.1664 9.55121 17.0417 9.59738C16.9737 9.62047 16.8944 9.64355 16.8151 9.6551L18.3222 8.95096C18.3562 8.93942 18.3902 8.90479 18.3675 8.85861C18.3675 8.84707 18.3562 8.83553 18.3335 8.82398C18.3109 8.81244 18.2769 8.82398 18.2655 8.82398L16.7471 9.40114C16.8038 9.35497 16.8604 9.3088 16.9057 9.25108C17.0191 9.13565 17.1324 9.03176 17.3023 8.98559C17.563 8.90478 17.6876 8.74318 17.7783 8.6162C17.8123 8.57003 17.8463 8.5354 17.8689 8.51232C17.9256 8.46614 17.9936 8.4546 18.0276 8.4546C18.0616 8.4546 18.1069 8.44306 18.1069 8.40843C18.1069 8.38534 18.0956 8.3738 18.0729 8.35071C18.0162 8.31608 17.9029 8.31608 17.7669 8.39688C17.7103 8.43151 17.665 8.47769 17.6196 8.52386C17.5403 8.6162 17.4497 8.70855 17.1777 8.8009C16.9624 8.87016 16.8604 8.9625 16.7471 9.05485C16.6904 9.11256 16.6338 9.15874 16.5545 9.20491L17.6876 7.95824C17.7103 7.93515 17.7329 7.88898 17.699 7.85435C17.665 7.81972 17.631 7.84281 17.597 7.86589L16.4185 8.98559C16.4525 8.92787 16.4865 8.85861 16.5091 8.8009C16.5771 8.65083 16.6338 8.51232 16.7698 8.39688C16.9737 8.22373 17.0304 8.01596 17.0757 7.86589C17.087 7.80818 17.0984 7.76201 17.121 7.72738C17.155 7.65812 17.2117 7.63503 17.2457 7.61194C17.2797 7.6004 17.3137 7.57731 17.3023 7.54268C17.3023 7.53114 17.291 7.50805 17.2457 7.50805C17.189 7.49651 17.0757 7.54268 16.9851 7.66966C16.9397 7.72738 16.9284 7.78509 16.9057 7.84281C16.8717 7.95824 16.8264 8.08522 16.5998 8.26991C16.4298 8.41997 16.3618 8.54695 16.2938 8.67392C16.2598 8.74318 16.2258 8.81244 16.1805 8.8817L16.7584 7.30028C16.7698 7.26565 16.7698 7.21947 16.7358 7.20793C16.7244 7.19639 16.7018 7.19639 16.6904 7.20793C16.6564 7.21947 16.6451 7.2541 16.6451 7.2541L15.9539 8.77781C15.9652 8.69701 15.9652 8.6162 15.9765 8.5354C15.9765 8.3738 15.9879 8.22373 16.0672 8.06213C16.1919 7.81972 16.1692 7.61194 16.1465 7.45034C16.1465 7.39262 16.1352 7.34645 16.1352 7.31182C16.1352 7.23102 16.1805 7.18484 16.2032 7.15021C16.2258 7.12713 16.2485 7.0925 16.2258 7.05787C16.2145 7.04633 16.1918 7.03478 16.1692 7.04633C16.1012 7.05787 16.0219 7.15021 15.9879 7.30028C15.9652 7.36954 15.9765 7.42725 15.9765 7.49651C15.9765 7.61194 15.9879 7.75046 15.8632 8.00441C15.7612 8.21219 15.7499 8.35071 15.7386 8.48923C15.7386 8.55849 15.7273 8.63929 15.7046 8.70855L15.6366 7.03478C15.6366 7.00015 15.6139 6.95398 15.5799 6.95398C15.5346 6.95398 15.5233 7.00015 15.5233 7.03478L15.4666 8.67392C15.444 8.60466 15.4213 8.54695 15.41 8.48923C15.3533 8.33917 15.308 8.20065 15.3193 8.01596C15.342 7.73892 15.24 7.55423 15.172 7.41571C15.1493 7.36954 15.1267 7.32336 15.1153 7.28873C15.0927 7.20793 15.1153 7.15021 15.1267 7.11558C15.138 7.08096 15.1493 7.04633 15.1153 7.02324C15.0927 7.0117 15.07 7.02324 15.0587 7.03478C15.002 7.08096 14.968 7.18484 14.9907 7.33491C15.002 7.40417 15.0247 7.46188 15.0474 7.5196C15.0927 7.62349 15.1493 7.75046 15.1267 8.03904C15.104 8.26991 15.1493 8.40843 15.1947 8.5354C15.2173 8.60466 15.24 8.68546 15.2513 8.76627L14.5601 7.23102C14.5488 7.19639 14.5148 7.16176 14.4694 7.18484C14.4581 7.18484 14.4468 7.19639 14.4355 7.21947C14.4241 7.24256 14.4355 7.27719 14.4355 7.28873L15.002 8.83553C14.9567 8.77781 14.9114 8.72009 14.8547 8.67392C14.7414 8.55849 14.6394 8.44306 14.5941 8.26991C14.5148 8.00441 14.3561 7.87744 14.2315 7.78509C14.1862 7.75046 14.1522 7.71583 14.1295 7.69275C14.0842 7.63503 14.0728 7.57731 14.0728 7.53114C14.0728 7.49651 14.0728 7.45034 14.0275 7.45034C14.0049 7.45034 13.9935 7.46188 13.9709 7.48497C13.9369 7.54268 13.9369 7.65812 14.0162 7.79664C14.0502 7.85435 14.0955 7.90052 14.1408 7.9467C14.2315 8.0275 14.3221 8.11985 14.4128 8.39688C14.4808 8.6162 14.5714 8.72009 14.6621 8.83553C14.7187 8.89324 14.7641 8.95096 14.8094 9.03176L13.5856 7.87744C13.5629 7.85435 13.5176 7.83127 13.4836 7.86589C13.4609 7.88898 13.4609 7.91207 13.4723 7.93515C13.4836 7.95824 13.4949 7.96978 13.4949 7.96978L14.5941 9.18182C14.5261 9.14719 14.4694 9.11256 14.4015 9.08948C14.2541 9.02022 14.1182 8.9625 14.0048 8.82398C13.8349 8.6162 13.6309 8.55849 13.4836 8.51232C13.4269 8.50077 13.3929 8.47769 13.3589 8.46614C13.291 8.43151 13.2683 8.3738 13.2456 8.33917C13.2343 8.30454 13.2116 8.26991 13.1776 8.28145C13.1663 8.28145 13.1436 8.29299 13.1436 8.33917C13.1323 8.40843 13.1776 8.51232 13.3023 8.60466C13.3589 8.65083 13.4156 8.67392 13.4723 8.68546C13.5856 8.73164 13.7102 8.77781 13.8915 8.99713C14.0388 9.17028 14.1635 9.23954 14.2881 9.29726C14.3561 9.33188 14.4241 9.36651 14.4921 9.42423L12.9397 8.83553C12.9057 8.82398 12.8604 8.82398 12.849 8.85861C12.849 8.87016 12.8377 8.8817 12.849 8.90479C12.8604 8.93941 12.8944 8.95096 12.8944 8.95096L14.3901 9.6551C14.3108 9.64355 14.2315 9.64355 14.1522 9.63201C13.9935 9.63201 13.8462 9.62047 13.6876 9.53966C13.4496 9.41269 13.2456 9.43577 13.087 9.45886C13.0303 9.45886 12.985 9.4704 12.951 9.4704C12.8717 9.4704 12.8264 9.42423 12.7924 9.3896C12.7697 9.36651 12.7357 9.34343 12.7017 9.36651C12.6904 9.37806 12.6791 9.40114 12.6904 9.42423C12.7017 9.49349 12.7924 9.57429 12.9397 9.60892C13.0077 9.63201 13.0643 9.62047 13.1323 9.62047C13.2456 9.62047 13.3816 9.60892 13.6309 9.7359C13.8349 9.83979 13.9709 9.85133 14.1068 9.86287C14.1748 9.86287 14.2541 9.87442 14.3221 9.8975L12.6791 9.96676C12.6451 9.96676 12.5997 9.98985 12.5997 10.0245C12.5997 10.0707 12.6451 10.0822 12.6791 10.0822L14.2768 10.1399C14.2088 10.163 14.1522 10.1745 14.0955 10.1976C13.9482 10.2553 13.8122 10.3015 13.6309 10.29C13.3589 10.2669 13.1776 10.3708 13.0417 10.44C12.9963 10.4631 12.951 10.4862 12.917 10.4978C12.8377 10.5208 12.781 10.4978 12.747 10.4862C12.713 10.4747 12.6791 10.4631 12.6564 10.4978C12.6451 10.5208 12.6564 10.5439 12.6677 10.5555C12.713 10.6132 12.815 10.6478 12.9623 10.6247C13.0303 10.6132 13.087 10.5901 13.1436 10.567C13.2456 10.5208 13.3703 10.4631 13.6536 10.4862C13.8802 10.5093 14.0162 10.4631 14.1408 10.4169C14.2088 10.3939 14.2881 10.3708 14.3675 10.3592L12.8604 11.0634C12.8264 11.0749 12.7924 11.1095 12.815 11.1557C12.815 11.1673 12.8264 11.1788 12.849 11.1903C12.8604 11.1903 12.8717 11.1903 12.8717 11.1903C12.8944 11.1903 12.9057 11.1788 12.917 11.1788L14.4468 10.6016C14.3901 10.6478 14.3335 10.694 14.2768 10.7517C14.1635 10.8671 14.0502 10.971 13.8802 11.0172C13.6196 11.098 13.4949 11.2596 13.4043 11.3866C13.3703 11.4328 13.3363 11.4674 13.3136 11.4905C13.257 11.5366 13.2003 11.5482 13.155 11.5482C13.121 11.5482 13.0757 11.5482 13.0757 11.5944C13.0757 11.6174 13.087 11.629 13.1097 11.6521C13.1663 11.6867 13.2796 11.6867 13.4156 11.6059C13.4723 11.5713 13.5176 11.5251 13.5629 11.4789C13.6422 11.3866 13.7329 11.2942 14.0048 11.2019C14.2201 11.1326 14.3221 11.0403 14.4355 10.9479C14.4921 10.8902 14.5488 10.844 14.6281 10.7979L13.4949 12.0445C13.4723 12.0676 13.4496 12.1138 13.4836 12.1484C13.4949 12.16 13.5063 12.16 13.5176 12.16C13.5403 12.16 13.5629 12.1484 13.5742 12.1253L14.7641 11.0057C14.7301 11.0749 14.6961 11.1326 14.6734 11.2019C14.6054 11.3519 14.5488 11.4905 14.4128 11.6059C14.2088 11.779 14.1522 11.9868 14.1068 12.1369C14.0955 12.1946 14.0728 12.2292 14.0615 12.2639C14.0275 12.3331 13.9709 12.3562 13.9369 12.3793C13.9029 12.3908 13.8689 12.4139 13.8802 12.4486C13.8802 12.4601 13.8915 12.4832 13.9369 12.4832C14.0049 12.4947 14.1068 12.4486 14.1975 12.3216C14.2428 12.2639 14.2655 12.2061 14.2768 12.1484C14.3221 12.033 14.3675 11.906 14.5828 11.7213C14.7527 11.5713 14.8207 11.4443 14.8774 11.3173C14.9114 11.2481 14.9454 11.1788 15.002 11.1095L14.4241 12.691C14.4128 12.7256 14.4128 12.7718 14.4468 12.7833C14.4581 12.7833 14.4581 12.7833 14.4694 12.7833C14.4808 12.7833 14.4808 12.7833 14.4921 12.7833C14.5261 12.7718 14.5374 12.7371 14.5374 12.7371L15.2287 11.2134C15.2173 11.2942 15.2173 11.375 15.206 11.4558C15.206 11.6174 15.1947 11.7675 15.1153 11.9291C14.9907 12.1715 15.0134 12.3793 15.036 12.5409C15.036 12.5986 15.0474 12.6448 15.0474 12.6794C15.0474 12.7602 15.002 12.8064 14.9794 12.841C14.9567 12.8641 14.934 12.8987 14.9567 12.9334C14.968 12.9449 14.9907 12.9565 15.0134 12.9449C15.0814 12.9334 15.1607 12.841 15.1947 12.691C15.2173 12.6217 15.206 12.564 15.206 12.4947C15.206 12.3793 15.1947 12.2408 15.3193 11.9868C15.4213 11.779 15.4326 11.6405 15.444 11.502C15.444 11.4328 15.4553 11.3519 15.478 11.2827L15.5459 12.9565C15.5459 12.9911 15.5686 13.0373 15.6026 13.0373C15.6479 13.0373 15.6593 12.9911 15.6593 12.9565L15.7159 11.3289C15.7386 11.3981 15.7499 11.4558 15.7726 11.5136C15.8292 11.6636 15.8746 11.8021 15.8632 11.9868C15.8406 12.2639 15.9426 12.4486 16.0105 12.5871C16.0332 12.6332 16.0559 12.6794 16.0672 12.7141C16.0899 12.7949 16.0672 12.8526 16.0559 12.8872C16.0445 12.9218 16.0332 12.9565 16.0672 12.9795H16.0785C16.0899 12.9795 16.1125 12.9795 16.1239 12.968C16.1805 12.9218 16.2145 12.8179 16.1918 12.6679C16.1805 12.5986 16.1579 12.5409 16.1352 12.4832C16.0899 12.3793 16.0332 12.2523 16.0559 11.9637C16.0785 11.7329 16.0332 11.5944 15.9879 11.4674C15.9652 11.3981 15.9426 11.3173 15.9312 11.2365L16.6225 12.7718C16.6338 12.8064 16.6678 12.841 16.7131 12.8179C16.7244 12.8179 16.7358 12.8064 16.7471 12.7833C16.7584 12.7602 16.7471 12.7256 16.7471 12.7141L16.1805 11.1673C16.2258 11.225 16.2712 11.2827 16.3278 11.3289C16.4411 11.4443 16.5431 11.5597 16.5885 11.7329C16.6678 11.9984 16.8264 12.1253 16.9511 12.2177C16.9964 12.2523 17.0304 12.287 17.0531 12.31C17.0984 12.3678 17.1097 12.437 17.1097 12.4716C17.1097 12.5063 17.121 12.5524 17.155 12.5524C17.1777 12.5524 17.189 12.5409 17.2117 12.5178C17.2457 12.4601 17.2457 12.3447 17.1664 12.2061C17.1324 12.1484 17.087 12.1023 17.0417 12.0561C16.9511 11.9753 16.8604 11.8829 16.7698 11.6059C16.7018 11.3866 16.6111 11.2827 16.5205 11.1673C16.4638 11.1095 16.4185 11.0518 16.3732 10.971L17.597 12.1253C17.6196 12.1484 17.665 12.1715 17.699 12.1369C17.7329 12.1023 17.7103 12.0676 17.6876 12.033L16.5885 10.821C16.6451 10.8556 16.7131 10.8902 16.7811 10.9133C16.9284 10.9826 17.0644 11.0403 17.1777 11.1788C17.3477 11.3866 17.5516 11.4443 17.699 11.4905C17.7556 11.502 17.8009 11.5251 17.8349 11.5366C17.9029 11.5713 17.9256 11.629 17.9482 11.6636C17.9596 11.6867 17.9709 11.7213 18.0049 11.7213H18.0162C18.0276 11.7213 18.0502 11.7098 18.0502 11.6752C18.0616 11.6059 18.0162 11.502 17.8916 11.3981C17.8349 11.3519 17.7783 11.3404 17.7216 11.3173C17.6083 11.2827 17.4837 11.2365 17.3023 11.0057C17.155 10.8325 17.0304 10.7632 16.9057 10.694C16.8378 10.6594 16.7698 10.6247 16.7018 10.5786L18.2542 11.1673C18.2882 11.1788 18.3335 11.1788 18.3449 11.1442C18.3449 11.1326 18.3562 11.1211 18.3449 11.098C18.3335 11.0634 18.2995 11.0518 18.2995 11.0518L16.8038 10.3477C16.8831 10.3592 16.9624 10.3592 17.0417 10.3708C17.2004 10.3708 17.3477 10.3823 17.5063 10.4631C17.7443 10.5901 17.9482 10.567 18.1069 10.5439C18.1635 10.5439 18.2089 10.5324 18.2429 10.5324C18.3222 10.5324 18.3675 10.5786 18.4015 10.6016C18.4242 10.6132 18.4355 10.6363 18.4582 10.6363C18.4695 10.6363 18.4808 10.6363 18.4808 10.6247C18.4922 10.6132 18.5035 10.5901 18.4922 10.567C18.4808 10.4978 18.3902 10.4169 18.2429 10.3823C18.1749 10.3592 18.1182 10.3708 18.0502 10.3708C17.9369 10.3708 17.8009 10.3823 17.5516 10.2553C17.3477 10.1515 17.2117 10.1399 17.0757 10.1284C17.0077 10.1284 16.9284 10.1168 16.8604 10.0937L18.5035 10.0245C18.5375 10.0245 18.5828 10.0014 18.5828 9.96676C18.5828 9.95522 18.5375 9.93213 18.5035 9.93213ZM17.0304 9.62047C17.155 9.57429 17.291 9.52812 17.5063 9.55121C17.8009 9.57429 17.9256 9.51658 18.0389 9.45886C18.0956 9.43577 18.1409 9.41269 18.2089 9.40114C18.3562 9.37806 18.4355 9.42423 18.4582 9.44732C18.4582 9.45886 18.4695 9.45886 18.4695 9.45886C18.4582 9.45886 18.4582 9.45886 18.4468 9.44732C18.4015 9.43577 18.3335 9.41269 18.2429 9.43577C18.2089 9.44732 18.1635 9.4704 18.1069 9.50503C17.9822 9.57429 17.8009 9.67818 17.5516 9.6551C17.3703 9.64355 17.223 9.70127 17.0644 9.74744C16.9851 9.78207 16.8944 9.80516 16.8038 9.82824C16.8038 9.80516 16.8038 9.79361 16.7924 9.77053C17.0757 9.71281 17.2457 9.55121 17.5403 9.59738C17.3023 9.51658 17.0984 9.67818 16.7811 9.71281C16.7811 9.70127 16.7698 9.67818 16.7698 9.66664C16.8717 9.67818 16.9511 9.65509 17.0304 9.62047ZM15.6026 11.1673C14.968 11.1673 14.4581 10.6478 14.4581 10.0014C14.4581 9.35497 14.968 8.83553 15.6026 8.83553C16.2372 8.83553 16.7471 9.35497 16.7471 10.0014C16.7471 10.6478 16.2372 11.1673 15.6026 11.1673ZM18.2769 8.85861C18.2882 8.85861 18.2995 8.85861 18.3109 8.85861C18.3109 8.87016 18.2882 8.8817 18.2882 8.8817L16.7584 9.59738C16.7584 9.58584 16.7471 9.56275 16.7471 9.55121L17.461 9.21645L16.7244 9.49349C16.7131 9.48195 16.7131 9.45886 16.7018 9.44732L18.2769 8.85861ZM16.7811 9.08948C16.8831 8.99713 16.9851 8.90479 17.189 8.83553C17.4723 8.74318 17.563 8.63929 17.6536 8.54695C17.699 8.50077 17.7329 8.46614 17.7896 8.43151C17.9143 8.35071 18.0049 8.36225 18.0389 8.38534C18.0502 8.38534 18.0502 8.39688 18.0502 8.39688C18.0389 8.39688 18.0276 8.39688 18.0276 8.39688C17.9822 8.39688 17.9143 8.40843 17.8349 8.46614C17.8009 8.48923 17.7669 8.5354 17.7329 8.58157C17.6423 8.69701 17.5176 8.85861 17.2797 8.92787C17.0984 8.98559 16.9851 9.08948 16.8717 9.20491C16.8038 9.26263 16.7358 9.33188 16.6564 9.37806C16.6451 9.36651 16.6338 9.34343 16.6338 9.33188C16.8717 9.17028 16.9737 8.9625 17.257 8.87016C16.9964 8.8817 16.8831 9.11256 16.5998 9.27417C16.5885 9.26262 16.5771 9.25108 16.5771 9.23954C16.6564 9.20491 16.7244 9.14719 16.7811 9.08948ZM17.6423 7.90052C17.6423 7.90052 17.665 7.87744 17.6763 7.88898C17.6876 7.90052 17.665 7.91207 17.665 7.92361L16.5091 9.18182C16.4978 9.17028 16.4865 9.15874 16.4751 9.14719L17.0077 8.55849L16.4298 9.10102C16.4185 9.08948 16.4071 9.07793 16.3845 9.06639L17.6423 7.90052ZM16.3505 8.70855C16.4072 8.58158 16.4751 8.4546 16.6338 8.31608C16.8604 8.11985 16.9171 7.99287 16.9511 7.86589C16.9737 7.80818 16.9851 7.76201 17.0304 7.70429C17.121 7.58886 17.2117 7.55423 17.2457 7.55423C17.257 7.55423 17.257 7.55423 17.2684 7.55423L17.2457 7.56577C17.2004 7.58886 17.1437 7.62349 17.0984 7.70429C17.0757 7.73892 17.0644 7.78509 17.0531 7.84281C17.0077 7.98133 16.9511 8.17756 16.7584 8.35071C16.6111 8.46614 16.5545 8.6162 16.4865 8.76627C16.4525 8.84707 16.4071 8.93941 16.3618 9.02022C16.3505 9.00867 16.3278 8.99713 16.3165 8.98559C16.4751 8.74318 16.4865 8.51232 16.7244 8.31608C16.4978 8.43151 16.4751 8.69701 16.2598 8.95096C16.2485 8.93942 16.2372 8.92787 16.2145 8.92787C16.2712 8.85861 16.3052 8.77781 16.3505 8.70855ZM16.7018 7.26565C16.7018 7.2541 16.7131 7.24256 16.7244 7.24256C16.7358 7.24256 16.7244 7.27719 16.7244 7.27719L16.1352 8.89324C16.1239 8.8817 16.1125 8.8817 16.0899 8.87016L16.3618 8.11985L16.0332 8.84707C16.0219 8.83553 15.9992 8.83553 15.9879 8.82398L16.7018 7.26565ZM15.9199 8.03904C16.0559 7.77355 16.0445 7.63503 16.0445 7.50805C16.0445 7.45034 16.0445 7.39262 16.0559 7.33491C16.0899 7.19639 16.1579 7.13867 16.1918 7.11558C16.2032 7.11558 16.2145 7.11559 16.2145 7.10404C16.2145 7.11559 16.2032 7.11558 16.1918 7.12713C16.1579 7.16176 16.1125 7.21947 16.1012 7.31182C16.1012 7.35799 16.1012 7.40417 16.1125 7.46188C16.1239 7.61194 16.1465 7.80818 16.0332 8.03904C15.9426 8.21219 15.9426 8.36225 15.9312 8.5354C15.9312 8.62775 15.9199 8.72009 15.9086 8.81244C15.8972 8.81244 15.8746 8.8009 15.8632 8.8009C15.9199 8.51232 15.8406 8.29299 15.9879 8.0275C15.8179 8.22373 15.8972 8.46614 15.8066 8.77781C15.7839 8.77781 15.7726 8.76627 15.7499 8.76627C15.7839 8.67392 15.7839 8.58158 15.7952 8.48923C15.8066 8.3738 15.8179 8.22373 15.9199 8.03904ZM15.5799 7.04633C15.5799 7.04633 15.5799 7.0117 15.5913 7.0117C15.6026 7.0117 15.6026 7.03478 15.6026 7.04633L15.6706 8.76627C15.6593 8.76627 15.6366 8.76627 15.6253 8.76627L15.5913 7.96978L15.5573 8.76627C15.5346 8.76627 15.5233 8.76627 15.5006 8.76627L15.5799 7.04633ZM15.2287 8.54695C15.1833 8.41997 15.138 8.28145 15.1607 8.06213C15.1833 7.76201 15.1267 7.63503 15.07 7.5196C15.0474 7.46188 15.0247 7.41571 15.0134 7.34645C14.9907 7.19639 15.036 7.11559 15.0587 7.0925L15.07 7.08095C15.07 7.0925 15.0587 7.0925 15.0587 7.10404C15.0474 7.15021 15.0247 7.21947 15.0474 7.31182C15.0587 7.34645 15.0814 7.39262 15.1153 7.45034C15.1833 7.57731 15.2853 7.76201 15.2627 8.01596C15.2513 8.20065 15.2967 8.35071 15.3533 8.51232C15.3873 8.59312 15.41 8.68546 15.4326 8.77781C15.4213 8.77781 15.3986 8.77781 15.3873 8.78935C15.3306 8.50077 15.172 8.32762 15.2173 8.0275C15.138 8.26991 15.2967 8.47769 15.3306 8.8009C15.3193 8.8009 15.2967 8.81244 15.2853 8.81244C15.2853 8.70855 15.2513 8.62775 15.2287 8.54695ZM14.4808 7.27719C14.4808 7.26565 14.4694 7.2541 14.4808 7.24256C14.4921 7.24256 14.5034 7.26565 14.5034 7.26565L15.206 8.82398C15.1947 8.82398 15.172 8.83553 15.1607 8.83553L14.8321 8.1083L15.104 8.85861C15.0927 8.87016 15.07 8.87016 15.0587 8.8817L14.4808 7.27719ZM14.7074 8.8009C14.6168 8.69701 14.5261 8.59312 14.4581 8.38534C14.3675 8.09676 14.2655 8.00441 14.1748 7.91207C14.1295 7.86589 14.0955 7.83126 14.0615 7.77355C13.9822 7.64657 13.9935 7.55423 14.0162 7.5196C14.0162 7.50805 14.0162 7.50805 14.0275 7.50805C14.0275 7.5196 14.0275 7.53114 14.0275 7.53114C14.0275 7.57731 14.0388 7.64657 14.0955 7.72738C14.1182 7.76201 14.1635 7.79663 14.2088 7.83126C14.3221 7.92361 14.4808 8.05059 14.5488 8.29299C14.6054 8.47769 14.7074 8.59312 14.8207 8.70855C14.8774 8.77781 14.9454 8.84707 14.9907 8.92787C14.9794 8.93941 14.9567 8.95096 14.9454 8.95096C14.7867 8.70855 14.5828 8.60466 14.5034 8.31608C14.5148 8.58158 14.7527 8.69701 14.9 8.98559C14.8887 8.99713 14.8774 9.00867 14.8661 9.00867C14.8207 8.92787 14.7641 8.85861 14.7074 8.8009ZM13.5403 7.92361C13.5403 7.92361 13.5176 7.90052 13.5289 7.88898C13.5403 7.87744 13.5516 7.90052 13.5629 7.90052L14.7981 9.07793C14.7867 9.08948 14.7754 9.10102 14.7641 9.11256L14.1862 8.57003L14.7187 9.15874C14.7074 9.17028 14.6961 9.18182 14.6847 9.20491L13.5403 7.92361ZM14.3221 9.23954C14.1975 9.18182 14.0728 9.11256 13.9369 8.95096C13.7442 8.72009 13.6082 8.67392 13.4949 8.62775C13.4383 8.60466 13.3929 8.59312 13.3363 8.54695C13.223 8.4546 13.189 8.3738 13.189 8.32762C13.189 8.31608 13.189 8.31608 13.189 8.30454C13.189 8.30454 13.2003 8.31608 13.2003 8.32762C13.223 8.3738 13.257 8.43151 13.3363 8.47769C13.3703 8.50077 13.4156 8.51232 13.4723 8.52386C13.6082 8.57003 13.8122 8.62775 13.9709 8.82398C14.0842 8.97405 14.2315 9.03176 14.3788 9.10102C14.4581 9.13565 14.5488 9.18182 14.6281 9.228C14.6168 9.23954 14.6054 9.25108 14.5941 9.27417C14.3561 9.11256 14.1295 9.10102 13.9369 8.85861C14.0502 9.08948 14.3108 9.11256 14.5601 9.33188C14.5488 9.34343 14.5488 9.35497 14.5374 9.37806C14.4808 9.32034 14.4015 9.27417 14.3221 9.23954ZM12.917 8.8817C12.9057 8.8817 12.8944 8.87016 12.8944 8.85861C12.8944 8.84707 12.9283 8.85861 12.9283 8.85861L14.5148 9.45886C14.5034 9.4704 14.5034 9.48195 14.4921 9.50503L13.7556 9.228L14.4694 9.56275C14.4581 9.57429 14.4581 9.59738 14.4468 9.60892L12.917 8.8817ZM14.1295 9.80516C13.9935 9.79361 13.8575 9.78207 13.6649 9.68973C13.4043 9.55121 13.2683 9.56275 13.1436 9.56275C13.087 9.56275 13.0303 9.56275 12.9737 9.55121C12.8377 9.51658 12.781 9.44732 12.7584 9.41269C12.7584 9.40114 12.7584 9.3896 12.747 9.3896C12.7584 9.3896 12.7584 9.40114 12.7697 9.41269C12.8037 9.44732 12.8604 9.49349 12.951 9.50503C12.9963 9.50503 13.0417 9.50503 13.0983 9.49349C13.2456 9.48195 13.4383 9.45886 13.6649 9.57429C13.8349 9.66664 13.9822 9.66664 14.1522 9.67818C14.2428 9.67818 14.3335 9.68972 14.4241 9.70127C14.4241 9.71281 14.4128 9.7359 14.4128 9.74744C14.1295 9.68973 13.9142 9.77053 13.6536 9.62047C13.8462 9.79361 14.0842 9.71281 14.3901 9.80516C14.3901 9.82824 14.3788 9.83979 14.3788 9.86287C14.3108 9.8167 14.2202 9.80516 14.1295 9.80516ZM12.7017 10.0245C12.7017 10.0245 12.6677 10.0245 12.6677 10.0129C12.6677 10.0014 12.6904 10.0014 12.7017 10.0014L14.3901 9.93213C14.3901 9.94368 14.3901 9.96676 14.3901 9.97831L13.6082 10.0129L14.3901 10.0476C14.3901 10.0707 14.3901 10.0822 14.3901 10.1053L12.7017 10.0245ZM14.1748 10.3823C14.0502 10.4285 13.9142 10.4747 13.6989 10.4516C13.4043 10.4285 13.2796 10.4862 13.1663 10.5439C13.1097 10.567 13.0643 10.5901 12.9963 10.6016C12.849 10.6247 12.7697 10.5786 12.747 10.5555C12.747 10.5439 12.7357 10.5439 12.7357 10.5439C12.747 10.5439 12.747 10.5439 12.7584 10.5555C12.8037 10.567 12.8717 10.5901 12.9623 10.567C12.9963 10.5555 13.0417 10.5324 13.0983 10.4978C13.223 10.4285 13.4043 10.3246 13.6536 10.3477C13.8349 10.3592 13.9822 10.3015 14.1408 10.2553C14.2202 10.2207 14.3108 10.1976 14.4015 10.1745C14.4015 10.1976 14.4015 10.2092 14.4128 10.2323C14.1295 10.29 13.9595 10.4516 13.6649 10.4054C13.9029 10.4862 14.1068 10.3246 14.4241 10.29C14.4241 10.3015 14.4355 10.3246 14.4355 10.3361C14.3335 10.3246 14.2541 10.3477 14.1748 10.3823ZM12.9283 11.1442C12.917 11.1442 12.9057 11.1442 12.8944 11.1442C12.8944 11.1326 12.917 11.1211 12.917 11.1211L14.4468 10.4054C14.4468 10.4169 14.4581 10.44 14.4581 10.4516L13.7442 10.7863L14.4808 10.5093C14.4921 10.5208 14.4921 10.5439 14.5034 10.5555L12.9283 11.1442ZM14.4241 10.9133C14.3221 11.0057 14.2202 11.098 14.0162 11.1673C13.7329 11.2596 13.6422 11.3635 13.5516 11.4558C13.5063 11.502 13.4723 11.5366 13.4156 11.5713C13.291 11.6521 13.2003 11.6405 13.1663 11.6174C13.155 11.6174 13.155 11.6059 13.155 11.6059C13.1663 11.6059 13.1776 11.6059 13.1776 11.6059C13.223 11.6059 13.291 11.5944 13.3703 11.5366C13.4043 11.5136 13.4383 11.4674 13.4723 11.4212C13.5629 11.3058 13.6876 11.1442 13.9255 11.0749C14.1068 11.0172 14.2202 10.9133 14.3335 10.7979C14.4015 10.7402 14.4694 10.6709 14.5488 10.6247C14.5601 10.6363 14.5714 10.6594 14.5714 10.6709C14.3335 10.8325 14.2315 11.0403 13.9482 11.1326C14.2088 11.1211 14.3221 10.8902 14.6054 10.7286C14.6168 10.7402 14.6281 10.7517 14.6281 10.7632C14.5488 10.7979 14.4808 10.8556 14.4241 10.9133ZM13.5629 12.1023C13.5629 12.1023 13.5403 12.1253 13.5289 12.1138C13.5176 12.1023 13.5403 12.0792 13.5403 12.0792L14.6847 10.821C14.6961 10.8325 14.7074 10.844 14.7187 10.8556L14.1862 11.4443L14.7641 10.9018C14.7754 10.9133 14.7867 10.9248 14.8094 10.9364L13.5629 12.1023ZM14.8547 11.3058C14.7981 11.4328 14.7301 11.5597 14.5714 11.6982C14.3448 11.8945 14.2995 12.033 14.2541 12.1484C14.2315 12.2061 14.2201 12.2523 14.1748 12.31C14.0955 12.4255 14.0049 12.4601 13.9595 12.4601C13.9482 12.4601 13.9482 12.4601 13.9369 12.4601C13.9369 12.4601 13.9482 12.4486 13.9595 12.4486C14.0049 12.4255 14.0615 12.3908 14.1068 12.31C14.1295 12.2754 14.1408 12.2177 14.1522 12.1715C14.1975 12.033 14.2541 11.8252 14.4468 11.6636C14.5941 11.5482 14.6508 11.3981 14.7187 11.2481C14.7527 11.1673 14.7981 11.0749 14.8434 10.9941C14.8547 11.0057 14.8661 11.0172 14.8887 11.0287C14.7301 11.2711 14.7187 11.502 14.4808 11.6982C14.7074 11.5828 14.7301 11.3173 14.9454 11.0634C14.9567 11.0749 14.968 11.0865 14.9907 11.0865C14.934 11.1442 14.8887 11.225 14.8547 11.3058ZM14.5034 12.7371C14.5034 12.7487 14.4921 12.7602 14.4808 12.7602C14.4694 12.7602 14.4808 12.7256 14.4808 12.7256L15.07 11.1095C15.0814 11.1211 15.0927 11.1211 15.1153 11.1326L14.8434 11.8829L15.172 11.1557C15.1833 11.1673 15.206 11.1673 15.2173 11.1788L14.5034 12.7371ZM15.2853 11.9637C15.1493 12.2292 15.1607 12.3678 15.1607 12.4947C15.1607 12.5524 15.1607 12.6102 15.1493 12.6679C15.1153 12.8064 15.0474 12.8641 15.0134 12.8872C15.002 12.8872 14.9907 12.8872 14.9907 12.8987C14.9907 12.8872 15.002 12.8872 15.0134 12.8757C15.0474 12.841 15.0927 12.7833 15.104 12.691C15.104 12.6448 15.104 12.5986 15.0927 12.5409C15.0814 12.3908 15.0587 12.1946 15.172 11.9637C15.2627 11.7906 15.2627 11.6405 15.274 11.4674C15.274 11.375 15.2853 11.2827 15.2967 11.1903C15.308 11.1903 15.3306 11.2019 15.342 11.2019C15.2853 11.4905 15.3646 11.7098 15.2173 11.9637C15.3873 11.7675 15.308 11.5251 15.3986 11.2134C15.4213 11.2134 15.4326 11.225 15.4553 11.225C15.4213 11.3173 15.4213 11.4097 15.41 11.502C15.3986 11.629 15.3873 11.779 15.2853 11.9637ZM15.6253 12.9565C15.6253 12.968 15.6253 12.9911 15.6139 12.9911C15.6026 12.9911 15.6026 12.968 15.6026 12.9565L15.5346 11.2365C15.5459 11.2365 15.5686 11.2365 15.5799 11.2365L15.6139 12.033L15.6366 11.2365C15.6593 11.2365 15.6706 11.2365 15.6933 11.2365L15.6253 12.9565ZM15.9765 11.4558C16.0219 11.5828 16.0672 11.7213 16.0445 11.9407C16.0219 12.2408 16.0785 12.3678 16.1352 12.4832C16.1579 12.5409 16.1805 12.5871 16.1918 12.6563C16.2145 12.8064 16.1692 12.8872 16.1465 12.9103C16.1352 12.9103 16.1352 12.9218 16.1352 12.9218C16.1352 12.9103 16.1352 12.9103 16.1465 12.8987C16.1579 12.8526 16.1805 12.7833 16.1579 12.691C16.1465 12.6563 16.1239 12.6102 16.0899 12.5524C16.0219 12.4255 15.9199 12.2408 15.9426 11.9868C15.9539 11.8021 15.8972 11.6521 15.8519 11.4905C15.8179 11.4097 15.7952 11.3173 15.7726 11.225C15.7952 11.225 15.8066 11.225 15.8292 11.2134C15.8859 11.502 16.0445 11.6752 15.9992 11.9753C16.0785 11.7329 15.9199 11.5251 15.8859 11.2019C15.8972 11.2019 15.9199 11.1903 15.9312 11.1903C15.9199 11.2942 15.9426 11.375 15.9765 11.4558ZM16.7244 12.7256C16.7244 12.7371 16.7358 12.7487 16.7244 12.7602C16.7131 12.7602 16.7018 12.7371 16.7018 12.7371L15.9992 11.1788C16.0105 11.1788 16.0332 11.1673 16.0445 11.1673L16.3732 11.8945L16.1012 11.1442C16.1125 11.1326 16.1352 11.1326 16.1465 11.1211L16.7244 12.7256ZM16.4978 11.2019C16.5885 11.3058 16.6791 11.4097 16.7471 11.6174C16.8378 11.906 16.9397 11.9984 17.0304 12.0907C17.0757 12.1369 17.1097 12.1715 17.1437 12.2292C17.223 12.3562 17.2117 12.4486 17.189 12.4832C17.189 12.4947 17.189 12.4947 17.1777 12.4947C17.1777 12.4832 17.1777 12.4716 17.1777 12.4716C17.1777 12.4255 17.1664 12.3562 17.1097 12.2754C17.087 12.2408 17.0417 12.2061 16.9964 12.1715C16.8831 12.0792 16.7244 11.9522 16.6564 11.7098C16.5998 11.5251 16.4978 11.4097 16.3845 11.2942C16.3278 11.225 16.2598 11.1557 16.2145 11.0749C16.2258 11.0634 16.2485 11.0518 16.2598 11.0518C16.4185 11.2942 16.6225 11.3981 16.7131 11.6867C16.7018 11.4212 16.4751 11.3058 16.3165 11.0172C16.3278 11.0057 16.3392 10.9941 16.3505 10.9941C16.3845 11.0749 16.4411 11.1442 16.4978 11.2019ZM17.665 12.0792C17.665 12.0792 17.6876 12.1023 17.6763 12.1138C17.665 12.1253 17.6423 12.1023 17.6423 12.1023L16.4072 10.9249C16.4185 10.9133 16.4298 10.9018 16.4411 10.8902L17.0191 11.4328L16.4865 10.844C16.4978 10.8325 16.5091 10.821 16.5205 10.7979L17.665 12.0792ZM16.8831 10.7632C17.0077 10.821 17.1324 10.8902 17.2684 11.0634C17.461 11.2942 17.5856 11.3404 17.7103 11.3866C17.7669 11.4097 17.8123 11.4212 17.8689 11.4674C17.9822 11.5482 18.0162 11.6405 18.0162 11.6867C18.0162 11.6982 18.0162 11.7098 18.0162 11.7098C18.0162 11.7098 18.0049 11.6982 18.0049 11.6867C17.9822 11.6405 17.9482 11.5828 17.8689 11.5366C17.8349 11.5136 17.7783 11.502 17.7329 11.4905C17.597 11.4443 17.393 11.3866 17.2344 11.1903C17.121 11.0403 16.9737 10.9826 16.8264 10.9133C16.7471 10.8787 16.6564 10.8325 16.5771 10.7863C16.5885 10.7748 16.5998 10.7517 16.6111 10.7402C16.8491 10.9018 17.0757 10.9133 17.2684 11.1557C17.155 10.9249 16.8944 10.9018 16.6451 10.6824C16.6564 10.6709 16.6564 10.6594 16.6678 10.6363C16.7244 10.6824 16.8038 10.7171 16.8831 10.7632ZM18.2882 11.1211C18.2995 11.1211 18.3109 11.1326 18.3109 11.1442C18.3109 11.1557 18.2769 11.1442 18.2769 11.1442L16.6904 10.5439C16.7018 10.5324 16.7018 10.5208 16.7131 10.4978L17.4497 10.7748L16.7358 10.44C16.7471 10.4285 16.7471 10.4054 16.7584 10.3939L18.2882 11.1211ZM17.0757 10.1976C17.2117 10.2092 17.3477 10.2207 17.5403 10.3131C17.8009 10.4516 17.9369 10.44 18.0616 10.44C18.1182 10.44 18.1749 10.44 18.2315 10.4516C18.3675 10.4862 18.4242 10.5555 18.4468 10.5901C18.4468 10.6016 18.4468 10.6132 18.4582 10.6132C18.4468 10.6132 18.4468 10.6016 18.4355 10.5901C18.4015 10.5555 18.3449 10.5093 18.2542 10.4978C18.2089 10.4978 18.1635 10.4978 18.1069 10.5093C17.9596 10.5208 17.7669 10.5439 17.5403 10.4285C17.3703 10.3361 17.223 10.3361 17.0531 10.3246C16.9624 10.3246 16.8717 10.3131 16.7811 10.3015C16.7811 10.29 16.7924 10.2669 16.7924 10.2553C17.0757 10.3131 17.291 10.2323 17.5403 10.3823C17.3477 10.2092 17.1097 10.29 16.8038 10.1976C16.8038 10.1745 16.8151 10.163 16.8151 10.1399C16.8944 10.1861 16.9851 10.1976 17.0757 10.1976ZM18.4922 10.0129L16.8038 10.0822C16.8038 10.0707 16.8038 10.0476 16.8038 10.036L17.5856 10.0014L16.8038 9.96676C16.8038 9.94368 16.8038 9.93213 16.8038 9.90905L18.4922 9.97831C18.5035 9.97831 18.5262 9.97831 18.5262 9.98985C18.5262 10.0014 18.5035 10.0129 18.4922 10.0129Z" fill="#85340A"/>
<path d="M15.806 9.85084C15.8627 9.89701 15.9307 9.90855 15.9987 9.9201C16.078 9.9201 16.1573 9.89701 16.2253 9.85084C16.1686 9.78158 16.0893 9.74695 15.9987 9.74695C15.9193 9.74695 15.84 9.78158 15.806 9.85084ZM16.1686 9.82775C16.1346 9.86238 16.0893 9.88547 16.044 9.89701C16.0667 9.88547 16.078 9.86238 16.078 9.82775C16.078 9.79312 16.0667 9.77003 16.044 9.75849C16.112 9.78158 16.1573 9.80466 16.1686 9.82775ZM15.9533 9.77003C15.9307 9.78158 15.9193 9.80466 15.9193 9.83929C15.9193 9.87392 15.942 9.89701 15.9647 9.90855C15.9193 9.90855 15.874 9.88547 15.84 9.85084C15.8627 9.80466 15.908 9.78158 15.9533 9.77003Z" fill="#85340A"/>
<path d="M16.0216 9.68913C15.9423 9.67758 15.8743 9.71221 15.8176 9.75839C15.795 9.78147 15.761 9.79302 15.727 9.80456C15.7156 9.8161 15.727 9.83919 15.7496 9.82765C15.795 9.80456 15.829 9.78147 15.863 9.75839C15.9083 9.72376 15.9649 9.70067 16.0216 9.71221C16.1802 9.71221 16.2709 9.85073 16.2936 9.83919C16.3162 9.83919 16.2029 9.68913 16.0216 9.68913Z" fill="#85340A"/>
<path d="M15.6708 9.65695C15.6595 9.69158 15.6481 9.72621 15.6368 9.76084C15.6141 9.9109 15.6368 10.0494 15.7048 10.1764C15.7161 10.1649 15.7274 10.1649 15.7388 10.1533C15.6595 10.061 15.6255 9.93399 15.6481 9.81855C15.6595 9.76084 15.6821 9.71466 15.7161 9.66849C15.8634 9.52997 16.1241 9.55306 16.328 9.73775C16.3167 9.71466 16.294 9.69158 16.2714 9.66849C16.1241 9.49534 15.8521 9.4838 15.6708 9.65695Z" fill="#85340A"/>
<path d="M15.8741 9.92026C15.7948 9.88564 15.7834 9.86255 15.7608 9.86255C15.7381 9.86255 15.7381 9.88564 15.8287 9.93181C15.9647 10.0011 16.112 9.97798 16.2254 9.87409C16.0554 9.95489 15.9534 9.95489 15.8741 9.92026Z" fill="#85340A"/>
<path d="M15.5005 10.2201C15.5005 10.2547 15.4778 10.2778 15.4438 10.2778C15.4098 10.2778 15.3871 10.2547 15.3871 10.2201C15.3871 10.197 15.3985 10.1739 15.4211 10.1624C15.3758 10.1739 15.3418 10.2085 15.3531 10.2547C15.3645 10.3009 15.3985 10.324 15.4325 10.324C15.4551 10.324 15.4891 10.3124 15.5005 10.2893C15.5345 10.3124 15.5684 10.3124 15.6024 10.3124H15.6138C15.6478 10.3124 15.6818 10.3009 15.7158 10.2893C15.7271 10.3124 15.7611 10.324 15.7837 10.324C15.8291 10.324 15.8631 10.2893 15.8631 10.2432C15.8631 10.197 15.8404 10.1624 15.7951 10.1624C15.8177 10.1739 15.8404 10.2085 15.8291 10.2316C15.8177 10.2547 15.7837 10.2778 15.7611 10.2662C15.7384 10.2547 15.7271 10.2432 15.7271 10.2201C15.7044 10.2893 15.6251 10.3124 15.5684 10.2893C15.5345 10.2778 15.5118 10.2547 15.5005 10.2201Z" fill="#85340A"/>
<path d="M15.6929 10.4172C15.6589 10.4172 15.6249 10.4288 15.6022 10.4519C15.5796 10.4403 15.5456 10.4288 15.5116 10.4172C15.4209 10.4172 15.3869 10.498 15.3076 10.5558C15.5002 10.5788 15.4096 10.6827 15.6022 10.6827C15.8062 10.6827 15.7155 10.5673 15.9082 10.5558C15.8175 10.498 15.7835 10.4172 15.6929 10.4172ZM15.6022 10.6596C15.4549 10.6596 15.5002 10.5558 15.3416 10.5558C15.5002 10.5211 15.5342 10.5788 15.6022 10.5788C15.6702 10.5788 15.7155 10.5211 15.8742 10.5558C15.7155 10.5558 15.7495 10.6596 15.6022 10.6596ZM15.8742 10.5558C15.7835 10.5211 15.6929 10.5211 15.6022 10.5327C15.5569 10.5211 15.5116 10.5211 15.4776 10.5211C15.4436 10.5211 15.3756 10.5327 15.3303 10.5442H15.2963C15.3416 10.5211 15.3982 10.4865 15.4436 10.4519C15.5116 10.4172 15.5569 10.4634 15.6022 10.4634C15.6362 10.4634 15.6929 10.4172 15.7609 10.4519C15.8062 10.4865 15.8515 10.5211 15.9082 10.5442C15.8855 10.5558 15.8855 10.5558 15.8742 10.5558Z" fill="#85340A"/>
<path d="M15.6027 10.6827C15.5121 10.6827 15.4441 10.752 15.4441 10.8443C15.4668 10.752 15.5574 10.6943 15.6481 10.7174C15.7047 10.7289 15.7614 10.7866 15.7727 10.8443C15.7614 10.7635 15.6934 10.6827 15.6027 10.6827Z" fill="#85340A"/>
<path d="M15.489 9.66849C15.523 9.71466 15.5456 9.77238 15.557 9.81855C15.5683 9.93399 15.5343 10.061 15.4663 10.1533C15.4776 10.1533 15.489 10.1649 15.5003 10.1764C15.5683 10.0494 15.5909 9.89936 15.5683 9.76084C15.557 9.72621 15.5569 9.69158 15.5343 9.65695C15.3643 9.4838 15.081 9.49534 14.9224 9.66849C14.8997 9.69158 14.8884 9.71466 14.8657 9.73775C15.081 9.5646 15.3416 9.52997 15.489 9.66849Z" fill="#85340A"/>
<path d="M15.3528 9.75903C15.3868 9.79366 15.4208 9.81675 15.4661 9.82829C15.4888 9.83984 15.4888 9.80521 15.4888 9.80521C15.4548 9.79366 15.4208 9.78212 15.3981 9.75903C15.3415 9.70132 15.2735 9.67823 15.1941 9.68978C15.0128 9.68978 14.8995 9.83984 14.9222 9.85138C14.9448 9.86292 15.0355 9.7244 15.1941 9.7244C15.2508 9.71286 15.3075 9.7244 15.3528 9.75903Z" fill="#85340A"/>
<path d="M14.99 9.85084C15.058 9.89701 15.126 9.9201 15.2053 9.9201C15.2846 9.9201 15.3526 9.89701 15.4206 9.85084C15.3639 9.78158 15.2846 9.74695 15.194 9.74695C15.1033 9.74695 15.0353 9.78158 14.99 9.85084ZM15.3526 9.82775C15.3299 9.86238 15.2959 9.87392 15.2619 9.88547C15.2733 9.87392 15.2846 9.85084 15.2846 9.82775C15.2846 9.80466 15.2733 9.78158 15.2506 9.75849C15.2959 9.78158 15.3413 9.80466 15.3526 9.82775ZM15.16 9.77003C15.1373 9.78158 15.1146 9.80466 15.1146 9.83929C15.1146 9.87392 15.1373 9.89701 15.16 9.90855C15.1146 9.90855 15.058 9.88547 15.024 9.85084C15.058 9.80466 15.1033 9.77003 15.16 9.77003Z" fill="#85340A"/>
<path d="M15.4546 9.86255C15.4319 9.86255 15.4206 9.88564 15.3413 9.92026C15.2619 9.95489 15.16 9.95489 14.99 9.88563C15.1033 9.98952 15.2619 10.0011 15.3866 9.94335C15.4659 9.88563 15.4659 9.86255 15.4546 9.86255Z" fill="#85340A"/>
</g>
<defs>
<clipPath id="clip0_11_348">
<rect width="32" height="20" fill="white"/>
</clipPath>
</defs>
</svg>
