<svg width="32" height="20" viewBox="0 0 32 20" fill="none" xmlns="http://www.w3.org/2000/svg">
<g clip-path="url(#clip0_11_332)">
<path d="M0 0H32V20H0V0Z" fill="white"/>
<path d="M0 0H16.0454V20H0V0Z" fill="#006233"/>
<path fill-rule="evenodd" clip-rule="evenodd" d="M18.5972 14.6899C17.8922 15.0573 17.0935 15.2646 16.2472 15.2646C13.3938 15.2646 11.0806 12.9082 11.0806 10.0014C11.0806 7.09468 13.3938 4.73828 16.2472 4.73828C17.0901 4.73828 17.8859 4.94389 18.5888 5.30856C18.3154 5.25981 18.034 5.23438 17.7466 5.23438C15.1146 5.23438 12.981 7.36802 12.981 10C12.981 12.632 15.1146 14.7656 17.7466 14.7656C18.0369 14.7656 18.3212 14.7397 18.5972 14.6899Z" fill="#D21034"/>
<path d="M16.2466 11.5456L18.0322 10.955L19.1347 12.5024V10.5898L20.9193 9.99925L19.1347 9.40873V7.49609L18.0322 9.04346L16.2466 8.45294L17.3502 9.99925L16.2466 11.5456Z" fill="#D21034"/>
</g>
<defs>
<clipPath id="clip0_11_332">
<rect width="32" height="20" fill="white"/>
</clipPath>
</defs>
</svg>
