<svg width="32" height="20" viewBox="0 0 32 20" fill="none" xmlns="http://www.w3.org/2000/svg">
<g clip-path="url(#clip0_11_1023)">
<path d="M32 0H0V20H32V0Z" fill="white"/>
<path d="M32 0H0V1.53895H32V0Z" fill="#B22234"/>
<path d="M32 3.07812H0V4.61707H32V3.07812Z" fill="#B22234"/>
<path d="M32 6.15234H0V7.69129H32V6.15234Z" fill="#B22234"/>
<path d="M32 9.23059H0V10.7695H32V9.23059Z" fill="#B22234"/>
<path d="M32 12.3086H0V13.8475H32V12.3086Z" fill="#B22234"/>
<path d="M32 15.3828H0V16.9218H32V15.3828Z" fill="#B22234"/>
<path d="M32 18.4611H0V20H32V18.4611Z" fill="#B22234"/>
<path d="M12.8 0H0V10.7695H12.8V0Z" fill="#3C3B6E"/>
<path d="M0.6008 0.98259L0.905866 1.20154L0.7896 1.55522L1.0936 1.33627L1.39867 1.55522L1.2824 1.20154L1.58747 0.98259H1.21093L1.0936 0.628906L0.977333 0.98259H0.6008Z" fill="white"/>
<path d="M2.72379 0.98259L3.02885 1.20154L2.91259 1.55522L3.21765 1.33627L3.52272 1.55522L3.40539 1.20154L3.71045 0.98259H3.33392L3.21765 0.628906L3.10139 0.98259H2.72379Z" fill="white"/>
<path d="M4.84677 0.98259L5.15184 1.20154L5.0345 1.55522L5.33957 1.33627L5.64464 1.55522L5.52837 1.20154L5.83344 0.98259H5.45584L5.33957 0.628906L5.2233 0.98259H4.84677Z" fill="white"/>
<path d="M6.96774 0.98259L7.27281 1.20154L7.15654 1.55522L7.46161 1.33627L7.76668 1.55522L7.64934 1.20154L7.95441 0.98259H7.57788L7.46161 0.628906L7.34534 0.98259H6.96774Z" fill="white"/>
<path d="M9.09073 0.98259L9.3958 1.20154L9.27846 1.55522L9.58353 1.33627L9.88859 1.55522L9.77233 1.20154L10.0774 0.98259H9.6998L9.58353 0.628906L9.46726 0.98259H9.09073Z" fill="white"/>
<path d="M11.2117 0.98259L11.5168 1.20154L11.4005 1.55522L11.7056 1.33627L12.0096 1.55522L11.8933 1.20154L12.1984 0.98259H11.8218L11.7056 0.628906L11.5882 0.98259H11.2117Z" fill="white"/>
<path d="M1.6633 2.02556L1.9673 2.24451L1.85103 2.59819L2.1561 2.37924L2.46117 2.59819L2.3449 2.24451L2.64997 2.02556H2.27237L2.1561 1.67188L2.03983 2.02556H1.6633Z" fill="white"/>
<path d="M3.78427 2.02556L4.08934 2.24451L3.97307 2.59819L4.27707 2.37924L4.58214 2.59819L4.46587 2.24451L4.77094 2.02556H4.3944L4.27707 1.67188L4.1608 2.02556H3.78427Z" fill="white"/>
<path d="M5.90726 2.02556L6.21126 2.24451L6.09499 2.59819L6.40006 2.37924L6.70512 2.59819L6.58886 2.24451L6.89392 2.02556H6.51632L6.40006 1.67188L6.28379 2.02556H5.90726Z" fill="white"/>
<path d="M8.02823 2.02556L8.3333 2.24451L8.21703 2.59819L8.52103 2.37924L8.8261 2.59819L8.70983 2.24451L9.0149 2.02556H8.63836L8.52103 1.67188L8.40476 2.02556H8.02823Z" fill="white"/>
<path d="M10.1512 2.02556L10.4563 2.24451L10.34 2.59819L10.6451 2.37924L10.9501 2.59819L10.8339 2.24451L11.1379 2.02556H10.7613L10.6451 1.67188L10.5288 2.02556H10.1512Z" fill="white"/>
<path d="M0.6008 3.06657L0.905866 3.28552L0.7896 3.63921L1.0936 3.42026L1.39867 3.63921L1.2824 3.28552L1.58747 3.06657H1.21093L1.0936 2.71289L0.977333 3.06657H0.6008Z" fill="white"/>
<path d="M2.72379 3.06657L3.02885 3.28552L2.91259 3.63921L3.21765 3.42026L3.52272 3.63921L3.40539 3.28552L3.71045 3.06657H3.33392L3.21765 2.71289L3.10139 3.06657H2.72379Z" fill="white"/>
<path d="M4.84677 3.06657L5.15184 3.28552L5.0345 3.63921L5.33957 3.42026L5.64464 3.63921L5.52837 3.28552L5.83344 3.06657H5.45584L5.33957 2.71289L5.2233 3.06657H4.84677Z" fill="white"/>
<path d="M6.96774 3.06657L7.27281 3.28552L7.15654 3.63921L7.46161 3.42026L7.76668 3.63921L7.64934 3.28552L7.95441 3.06657H7.57788L7.46161 2.71289L7.34534 3.06657H6.96774Z" fill="white"/>
<path d="M9.09073 3.06657L9.3958 3.28552L9.27846 3.63921L9.58353 3.42026L9.88859 3.63921L9.77233 3.28552L10.0774 3.06657H9.6998L9.58353 2.71289L9.46726 3.06657H9.09073Z" fill="white"/>
<path d="M11.2117 3.06657L11.5168 3.28552L11.4005 3.63921L11.7056 3.42026L12.0096 3.63921L11.8933 3.28552L12.1984 3.06657H11.8218L11.7056 2.71289L11.5882 3.06657H11.2117Z" fill="white"/>
<path d="M1.68951 4.10735L1.99458 4.32629L1.87831 4.67998L2.18338 4.46103L2.48738 4.67998L2.37111 4.32629L2.67618 4.10735H2.29965L2.18338 3.75366L2.06605 4.10735H1.68951Z" fill="white"/>
<path d="M3.81049 4.10735L4.11449 4.32629L3.99822 4.67998L4.30329 4.46103L4.60835 4.67998L4.49209 4.32629L4.79715 4.10735H4.41955L4.30329 3.75366L4.18702 4.10735H3.81049Z" fill="white"/>
<path d="M5.93347 4.10735L6.23854 4.32629L6.12227 4.67998L6.42627 4.46103L6.73134 4.67998L6.61507 4.32629L6.92014 4.10735H6.54361L6.42627 3.75366L6.31001 4.10735H5.93347Z" fill="white"/>
<path d="M8.05444 4.10735L8.35844 4.32629L8.24218 4.67998L8.54724 4.46103L8.85231 4.67998L8.73604 4.32629L9.04111 4.10735H8.66351L8.54724 3.75366L8.43098 4.10735H8.05444Z" fill="white"/>
<path d="M10.1774 4.10735L10.4825 4.32629L10.3662 4.67998L10.6702 4.46103L10.9753 4.67998L10.859 4.32629L11.1641 4.10735H10.7876L10.6702 3.75366L10.554 4.10735H10.1774Z" fill="white"/>
<path d="M0.633057 5.14861L0.938123 5.36755L0.821857 5.72124L1.12586 5.50229L1.43092 5.72124L1.31466 5.36755L1.61972 5.14861H1.24319L1.12586 4.79492L1.00959 5.14861H0.633057Z" fill="white"/>
<path d="M2.75604 5.14861L3.06004 5.36755L2.94378 5.72124L3.24884 5.50229L3.55391 5.72124L3.43764 5.36755L3.74271 5.14861H3.36511L3.24884 4.79492L3.13258 5.14861H2.75604Z" fill="white"/>
<path d="M4.87701 5.14861L5.18208 5.36755L5.06581 5.72124L5.36981 5.50229L5.67488 5.72124L5.55861 5.36755L5.86368 5.14861H5.48715L5.36981 4.79492L5.25355 5.14861H4.87701Z" fill="white"/>
<path d="M7 5.14861L7.30507 5.36755L7.1888 5.72124L7.49387 5.50229L7.79893 5.72124L7.68267 5.36755L7.98667 5.14861H7.61013L7.49387 4.79492L7.3776 5.14861H7Z" fill="white"/>
<path d="M9.12299 5.14861L9.42805 5.36755L9.31072 5.72124L9.61579 5.50229L9.92085 5.72124L9.80459 5.36755L10.1097 5.14861H9.73312L9.61579 4.79492L9.49952 5.14861H9.12299Z" fill="white"/>
<path d="M11.244 5.14861L11.549 5.36755L11.4328 5.72124L11.7378 5.50229L12.0429 5.72124L11.9266 5.36755L12.2306 5.14861H11.8541L11.7378 4.79492L11.6216 5.14861H11.244Z" fill="white"/>
<path d="M0.653229 7.23259L0.957229 7.45049L0.840962 7.80522L1.14603 7.58627L1.4511 7.80522L1.33483 7.45049L1.6399 7.23259H1.2623L1.14603 6.87891L1.02976 7.23259H0.653229Z" fill="white"/>
<path d="M2.77621 7.23259L3.08128 7.45049L2.96501 7.80522L3.27008 7.58627L3.57515 7.80522L3.45781 7.45049L3.76288 7.23259H3.38635L3.27008 6.87891L3.15275 7.23259H2.77621Z" fill="white"/>
<path d="M4.89719 7.23259L5.20119 7.45049L5.08492 7.80522L5.38999 7.58627L5.69505 7.80522L5.57879 7.45049L5.88385 7.23259H5.50625L5.38999 6.87891L5.27372 7.23259H4.89719Z" fill="white"/>
<path d="M7.02017 7.23259L7.32524 7.45049L7.20897 7.80522L7.51404 7.58627L7.81804 7.80522L7.70177 7.45049L8.00684 7.23259H7.63031L7.51404 6.87891L7.39671 7.23259H7.02017Z" fill="white"/>
<path d="M9.14114 7.23259L9.44621 7.45049L9.32994 7.80522L9.63501 7.58627L9.94008 7.80522L9.82381 7.45049L10.1278 7.23259H9.75128L9.63501 6.87891L9.51874 7.23259H9.14114Z" fill="white"/>
<path d="M11.2641 7.23259L11.5692 7.45049L11.4529 7.80522L11.7569 7.58627L12.062 7.80522L11.9457 7.45049L12.2508 7.23259H11.8742L11.7569 6.87891L11.6406 7.23259H11.2641Z" fill="white"/>
<path d="M0.627014 9.31657L0.932081 9.53552L0.815814 9.88921L1.12088 9.67026L1.42595 9.88921L1.30968 9.53552L1.61368 9.31657H1.23715L1.12088 8.96289L1.00461 9.31657H0.627014Z" fill="white"/>
<path d="M2.75 9.31657L3.05507 9.53552L2.9388 9.88921L3.2428 9.67026L3.54787 9.88921L3.4316 9.53552L3.73667 9.31657H3.36013L3.2428 8.96289L3.12653 9.31657H2.75Z" fill="white"/>
<path d="M4.87097 9.31657L5.17604 9.53552L5.05977 9.88921L5.36484 9.67026L5.66991 9.88921L5.55257 9.53552L5.85764 9.31657H5.48111L5.36484 8.96289L5.24857 9.31657H4.87097Z" fill="white"/>
<path d="M6.99396 9.31657L7.29902 9.53552L7.18169 9.88921L7.48676 9.67026L7.79182 9.88921L7.67556 9.53552L7.98062 9.31657H7.60302L7.48676 8.96289L7.37049 9.31657H6.99396Z" fill="white"/>
<path d="M9.11493 9.31657L9.42 9.53552L9.30373 9.88921L9.6088 9.67026L9.91386 9.88921L9.79653 9.53552L10.1016 9.31657H9.72506L9.6088 8.96289L9.49253 9.31657H9.11493Z" fill="white"/>
<path d="M11.2379 9.31657L11.543 9.53552L11.4256 9.88921L11.7307 9.67026L12.0358 9.88921L11.9195 9.53552L12.2246 9.31657H11.847L11.7307 8.96289L11.6144 9.31657H11.2379Z" fill="white"/>
<path d="M1.69556 6.18962L2.00062 6.40857L1.88436 6.76225L2.18942 6.54331L2.49342 6.76225L2.37716 6.40857L2.68222 6.18962H2.30569L2.18942 5.83594L2.07209 6.18962H1.69556Z" fill="white"/>
<path d="M3.81653 6.18962L4.1216 6.40857L4.00533 6.76225L4.3104 6.54331L4.61546 6.76225L4.4992 6.40857L4.80319 6.18962H4.42666L4.3104 5.83594L4.19413 6.18962H3.81653Z" fill="white"/>
<path d="M5.93951 6.18962L6.24458 6.40857L6.12831 6.76225L6.43231 6.54331L6.73738 6.76225L6.62111 6.40857L6.92618 6.18962H6.54965L6.43231 5.83594L6.31605 6.18962H5.93951Z" fill="white"/>
<path d="M8.06049 6.18962L8.36555 6.40857L8.24929 6.76225L8.55435 6.54331L8.85942 6.76225L8.74315 6.40857L9.04715 6.18962H8.67062L8.55435 5.83594L8.43809 6.18962H8.06049Z" fill="white"/>
<path d="M10.1835 6.18962L10.4885 6.40857L10.3712 6.76225L10.6763 6.54331L10.9813 6.76225L10.8651 6.40857L11.1701 6.18962H10.7936L10.6763 5.83594L10.56 6.18962H10.1835Z" fill="white"/>
<path d="M1.68951 8.27373L1.99458 8.49268L1.87831 8.84636L2.18338 8.62741L2.48738 8.84636L2.37111 8.49268L2.67618 8.27373H2.29965L2.18338 7.92004L2.06605 8.27373H1.68951Z" fill="white"/>
<path d="M3.81049 8.27373L4.11449 8.49268L3.99822 8.84636L4.30329 8.62741L4.60835 8.84636L4.49209 8.49268L4.79715 8.27373H4.41955L4.30329 7.92004L4.18702 8.27373H3.81049Z" fill="white"/>
<path d="M5.93347 8.27373L6.23854 8.49268L6.12227 8.84636L6.42734 8.62741L6.73134 8.84636L6.61507 8.49268L6.92014 8.27373H6.54361L6.42734 7.92004L6.31001 8.27373H5.93347Z" fill="white"/>
<path d="M8.05444 8.27373L8.35844 8.49268L8.24218 8.84636L8.54724 8.62741L8.85231 8.84636L8.73604 8.49268L9.04111 8.27373H8.66351L8.54724 7.92004L8.43098 8.27373H8.05444Z" fill="white"/>
<path d="M10.1774 8.27373L10.4825 8.49268L10.3662 8.84636L10.6702 8.62741L10.9753 8.84636L10.859 8.49268L11.1641 8.27373H10.7876L10.6702 7.92004L10.554 8.27373H10.1774Z" fill="white"/>
</g>
<defs>
<clipPath id="clip0_11_1023">
<rect width="32" height="20" fill="white"/>
</clipPath>
</defs>
</svg>
